<?xml version="1.0" standalone="no"?>
<!DOCTYPE svg PUBLIC "-//W3C//DTD SVG 1.1//EN" "http://www.w3.org/Graphics/SVG/1.1/DTD/svg11.dtd" >
<svg xmlns="http://www.w3.org/2000/svg">
<metadata></metadata>
<defs>
<font id="verblight" horiz-adv-x="1243" >
<font-face units-per-em="2048" ascent="1638" descent="-410" />
<missing-glyph horiz-adv-x="584" />
<glyph unicode="ff" horiz-adv-x="1419" d="M776 973v102h150v178q0 69 16.5 117.5t48 74.5t69 37t85.5 11q107 0 301 -66l-49 -96q-184 49 -240 49q-50 0 -77 -26t-27 -90v-189h295v-102h-295v-973h-127v973h-150zM74 973v102h149v178q0 69 16.5 117.5t48 74.5t69 37t85.5 11q107 0 301 -66l-49 -96 q-184 49 -239 49q-50 0 -77.5 -26t-27.5 -90v-189h291v-102h-291v-973h-127v973h-149z" />
<glyph unicode="fi" horiz-adv-x="1204" d="M74 973v102h149v178q0 240 211 240q99 0 248 -51l-43 -96q-126 34 -184 34q-50 0 -77.5 -26t-27.5 -90v-189h295v-102h-295v-973h-127v973h-149zM1010 0h-127v1075h127v-1075zM874 1309v178h148v-178h-148z" />
<glyph unicode="fl" horiz-adv-x="1227" d="M74 973v102h149v178q0 240 211 240q99 0 248 -51l-43 -96q-126 34 -184 34q-50 0 -77.5 -26t-27.5 -90v-189h295v-102h-295v-973h-127v973h-149zM1022 0h-127v1493h127v-1493z" />
<glyph unicode="ffi" horiz-adv-x="1905" d="M74 973v102h149v178q0 69 16.5 117.5t48 74.5t69 37t85.5 11q107 0 301 -66l-49 -96q-184 49 -239 49q-50 0 -77.5 -26t-27.5 -90v-189h291v-102h-291v-973h-127v973h-149zM776 973v102h150v178q0 240 211 240q98 0 247 -51l-43 -96q-126 34 -184 34q-50 0 -77 -26 t-27 -90v-189h295v-102h-295v-973h-127v973h-150zM1710 0h-127v1075h127v-1075zM1575 1309v178h147v-178h-147z" />
<glyph unicode="ffl" horiz-adv-x="1929" d="M74 973v102h149v178q0 69 16.5 117.5t48 74.5t69 37t85.5 11q107 0 301 -66l-49 -96q-184 49 -239 49q-50 0 -77.5 -26t-27.5 -90v-189h291v-102h-291v-973h-127v973h-149zM776 973v102h150v178q0 240 211 240q98 0 247 -51l-43 -96q-126 34 -184 34q-50 0 -77 -26 t-27 -90v-189h295v-102h-295v-973h-127v973h-150zM1722 0h-127v1493h127v-1493z" />
<glyph unicode="ffk" horiz-adv-x="2470" d="M2345 1075l-363 -436l431 -639h-140l-368 547l-193 -232v-315h-127v1493h127v-1026l486 608h147zM74 973v102h149v178q0 69 16.5 117.5t48 74.5t69 37t85.5 11q107 0 301 -66l-49 -96q-184 49 -239 49q-50 0 -77.5 -26t-27.5 -90v-189h291v-102h-291v-973h-127v973h-149z M776 973v102h150v178q0 240 211 240q98 0 247 -51l-43 -96q-126 34 -184 34q-50 0 -77 -26t-27 -90v-189h295v-102h-295v-973h-127v973h-150z" />
<glyph unicode="ffj" horiz-adv-x="1909" d="M74 973v102h149v178q0 69 16.5 117.5t48 74.5t69 37t85.5 11q107 0 301 -66l-49 -96q-184 49 -239 49q-50 0 -77.5 -26t-27.5 -90v-189h291v-102h-291v-973h-127v973h-149zM776 973v102h150v178q0 240 211 240q98 0 247 -51l-43 -96q-126 34 -184 34q-50 0 -77 -26 t-27 -90v-189h295v-102h-295v-973h-127v973h-150zM1716 1075v-1138q0 -128 -13 -172q-21 -72 -102 -116q-68 -38 -210 -75l-43 100q48 16 79 26.5t59 24.5l43 21.5t28 25t18 27t8.5 35t3.5 42v54.5v2v1143h129zM1579 1309v178h147v-178h-147z" />
<glyph unicode="fft" horiz-adv-x="2175" d="M776 973v102h150v178q0 69 16.5 117.5t48 74.5t69 37t85.5 11q107 0 301 -66l-49 -96q-184 49 -240 49q-50 0 -77 -26t-27 -90v-189h290v-102h-290v-973h-127v973h-150zM74 973v102h149v178q0 69 16.5 117.5t48 74.5t69 37t85.5 11q107 0 301 -66l-49 -96 q-184 49 -239 49q-50 0 -77.5 -26t-27.5 -90v-189h291v-102h-291v-973h-127v973h-149zM1479 973v102h149v271l127 40v-311h297v-102h-297v-764q0 -119 105 -119q76 0 215 57l51 -98q-51 -24 -131 -48t-148 -24q-219 0 -219 240v756h-149z" />
<glyph unicode="fh" horiz-adv-x="1948" d="M74 973v102h149v178q0 240 211 240q99 0 248 -51l-43 -96q-126 34 -184 34q-50 0 -77.5 -26t-27.5 -90v-189h295v-102h-295v-973h-127v973h-149zM1012 1493v-578q37 28 78.5 54t103.5 58t133 51.5t137 19.5q84 0 144.5 -26.5t93 -74t47 -103t14.5 -124.5v-770h-127v750 q0 53 -9 94t-30.5 75t-62 52t-98.5 18q-108 0 -230.5 -62.5t-193.5 -127.5v-799h-127v1493h127z" />
<glyph unicode="fj" horiz-adv-x="1206" d="M74 973v102h149v178q0 240 211 240q99 0 248 -51l-43 -96q-126 34 -184 34q-50 0 -77.5 -26t-27.5 -90v-189h295v-102h-295v-973h-127v973h-149zM879 1309v178h147v-178h-147zM1016 1075v-1138q0 -66 -1.5 -95t-10.5 -71.5t-28.5 -62.5t-56 -47t-92 -46t-137.5 -41 l-43 100l79.5 26.5t59 24.5t43 22t28.5 25t18 27t8.5 35.5t3.5 42.5v55v1143h129z" />
<glyph unicode="fk" horiz-adv-x="1768" d="M1645 1075l-363 -436l430 -639h-139l-369 547l-192 -232v-315h-127v1493h127v-1026l485 608h148zM74 973v102h149v178q0 240 211 240q99 0 248 -51l-43 -96q-126 34 -184 34q-50 0 -77.5 -26t-27.5 -90v-189h295v-102h-295v-973h-127v973h-149z" />
<glyph unicode="ft" horiz-adv-x="1473" d="M74 973v102h149v178q0 69 16.5 117.5t48 74.5t69 37t85.5 11q107 0 301 -66l-49 -96q-184 49 -239 49q-50 0 -77.5 -26t-27.5 -90v-189h291v-102h-291v-973h-127v973h-149zM778 973v102h150v271l127 40v-311h297v-102h-297v-764q0 -65 27 -92t77 -27q76 0 215 57l51 -98 q-51 -24 -130.5 -48t-147.5 -24q-219 0 -219 240v756h-150z" />
<glyph unicode="ffh" horiz-adv-x="2650" d="M1714 1493v-578q37 28 78.5 54t103.5 58t133.5 51.5t137.5 19.5q84 0 144.5 -26.5t93 -74t47 -103t14.5 -124.5v-770h-127v750q0 53 -9 94t-31 75t-62.5 52t-98.5 18q-108 0 -230.5 -62.5t-193.5 -127.5v-799h-127v1493h127zM74 973v102h149v178q0 69 16.5 117.5t48 74.5 t69 37t85.5 11q107 0 301 -66l-49 -96q-184 49 -239 49q-50 0 -77.5 -26t-27.5 -90v-189h291v-102h-291v-973h-127v973h-149zM776 973v102h150v178q0 240 211 240q98 0 247 -51l-43 -96q-126 34 -184 34q-50 0 -77 -26t-27 -90v-189h295v-102h-295v-973h-127v973h-150z" />
<glyph unicode="ffb" horiz-adv-x="2644" d="M1585 0v1493h127v-565q183 170 387 170q85 0 156.5 -32t128.5 -97t89 -175.5t32 -256.5t-32 -256t-89 -175t-128.5 -97t-156.5 -32q-210 0 -387 168v-145h-127zM2085 987q-107 0 -205 -52t-168 -132v-533q71 -79 168.5 -130.5t204.5 -51.5q140 0 214.5 119t74.5 330 q0 212 -74 331t-215 119zM74 973v102h149v178q0 69 16.5 117.5t48 74.5t69 37t85.5 11q107 0 301 -66l-49 -96q-184 49 -239 49q-50 0 -77.5 -26t-27.5 -90v-189h291v-102h-291v-973h-127v973h-149zM776 973v102h150v178q0 240 211 240q98 0 247 -51l-43 -96 q-126 34 -184 34q-50 0 -77 -26t-27 -90v-189h295v-102h-295v-973h-127v973h-150z" />
<glyph unicode="fb" horiz-adv-x="1944" d="M74 973v102h149v178q0 240 211 240q99 0 248 -51l-43 -96q-126 34 -184 34q-50 0 -77.5 -26t-27.5 -90v-189h295v-102h-295v-973h-127v973h-149zM885 0v1493h127v-565q183 170 387 170q67 0 126 -19.5t111 -62.5t89 -107t58 -159t21 -213q0 -146 -32 -256t-89 -175 t-128 -97t-156 -32q-210 0 -387 168v-145h-127zM1384 987q-107 0 -204.5 -52t-167.5 -132v-533q71 -79 168 -130.5t204 -51.5q140 0 214.5 119t74.5 330q0 212 -74 331t-215 119z" />
<glyph unicode=" "  horiz-adv-x="584" />
<glyph unicode="&#x09;" horiz-adv-x="584" />
<glyph unicode="&#xa0;" horiz-adv-x="584" />
<glyph unicode="!" horiz-adv-x="547" d="M186 0v211h162v-211h-162zM342 1434l-35 -1016h-82l-37 1016h154z" />
<glyph unicode="&#x22;" horiz-adv-x="924" d="M297 1434l-27 -523h-94l-24 523h145zM670 1434l-27 -523h-94l-25 523h146z" />
<glyph unicode="#" horiz-adv-x="1546" d="M866 0l60 381h-428l-60 -381h-110l59 381h-287v106h303l72 457h-287v107h304l61 383h111l-62 -383h428l62 383h108l-59 -383h289v-107h-306l-71 -457h288v-106h-305l-59 -381h-111zM586 944l-72 -457h428l72 457h-428z" />
<glyph unicode="$" horiz-adv-x="1231" d="M668 -205h-105v189q-125 14 -247.5 59t-215.5 102l66 103q84 -50 190 -91t207 -55v588l-6 2q-52 16 -87.5 28.5t-84 33t-80.5 41t-67.5 51t-56.5 64t-34.5 79t-13.5 98.5q0 171 123 268.5t307 100.5v184h105v-190q212 -27 397 -123l-64 -102q-162 81 -333 106v-536 q53 -17 92 -31.5t89.5 -37.5t86.5 -46t73.5 -56.5t61 -71t38.5 -87t15 -105.5q0 -93 -38.5 -167t-104 -119.5t-145 -70t-168.5 -26.5v-182zM989 352q0 57 -23 103t-69 82t-99 62t-130 54v-559q133 2 227 69t94 189zM268 1096q0 -46 15.5 -83t39 -62.5t65 -49.5t79.5 -39 t96 -35v512q-126 -3 -210.5 -64.5t-84.5 -178.5z" />
<glyph unicode="%" horiz-adv-x="2026" d="M1917 360q0 -185 -99 -284t-264 -99q-163 0 -261.5 99t-98.5 284q0 187 98 286t262 99q165 0 264 -99t99 -286zM1802 360q0 139 -65 214t-183 75q-116 0 -179.5 -75t-63.5 -214q0 -137 63.5 -211.5t179.5 -74.5q118 0 183 74.5t65 211.5zM815 1071q0 -185 -98.5 -284 t-263.5 -99q-164 0 -262.5 99t-98.5 284q0 187 98.5 286t262.5 99q165 0 263.5 -99t98.5 -286zM700 1071q0 139 -64.5 214t-182.5 75q-116 0 -180 -75t-64 -214q0 -137 64 -212t180 -75q117 0 182 74.5t65 212.5zM1442 1434l-756 -1434h-119l756 1434h119z" />
<glyph unicode="&#x26;" horiz-adv-x="1413" d="M1384 0h-167l-179 182q-183 -205 -446 -205q-188 0 -314 100t-126 271q0 60 18 114.5t44.5 95t71.5 83.5t82 71t93 66q-48 49 -75 81.5t-61.5 82t-50.5 102t-16 109.5q0 78 31.5 138.5t83 95t109.5 52t118 17.5q133 0 226.5 -79t93.5 -216q0 -52 -16 -101t-40 -87 t-63 -78t-74.5 -68.5t-85.5 -64.5l383 -393q99 174 127 387h133q-14 -110 -57 -238t-115 -239zM592 88q213 0 362 180l-411 426q-50 -35 -81.5 -59.5t-69.5 -59.5t-59.5 -65.5t-36.5 -69.5t-15 -80q0 -43 16 -87.5t50 -87.5t97.5 -70t147.5 -27zM385 1151q0 -45 15 -88.5 t45 -85t54 -68.5t62 -65q54 37 91 67t72.5 69.5t53 84t17.5 94.5q0 80 -49.5 134.5t-147.5 54.5q-99 0 -156 -56t-57 -141z" />
<glyph unicode="'" horiz-adv-x="490" d="M297 1434l-27 -523h-94l-24 523h145z" />
<glyph unicode="(" horiz-adv-x="641" d="M160 53v1317q0 43 1 68t6 56t13.5 49.5t25 41t40 37.5t58.5 32.5t80 32.5t105 31l41 -94q-37 -12 -64 -21t-51.5 -19.5t-40 -17.5t-29.5 -19t-22 -19t-14.5 -22.5t-9 -25t-4.5 -31t-2 -35.5v-44v-1315v-44t2 -35.5t4.5 -31t9 -25t14.5 -22.5t22 -19t29.5 -19t40 -17.5 t51.5 -19.5t64 -21l-41 -94q-60 16 -105 31t-80 32.5t-58.5 32t-40 37t-25 40.5t-13.5 49t-6 56t-1 68z" />
<glyph unicode=")" horiz-adv-x="641" d="M467 1372v-1317q0 -42 -1 -67.5t-6 -56.5t-14 -49.5t-25.5 -41t-40 -37.5t-58.5 -32.5t-80 -32.5t-105 -31l-41 94q63 20 100 33.5t66.5 32t41.5 30t20 40t9 49.5t1 69v1315q0 48 -1 69t-9 49.5t-20 40t-41.5 30t-66.5 32t-100 33.5l41 94q60 -16 105 -31t80 -32.5 t58.5 -32t40 -37t25.5 -40.5t14 -49t6 -56.5t1 -67.5z" />
<glyph unicode="*" horiz-adv-x="993" d="M428 678l31 317l-269 -186l-63 104l299 134l-297 139l64 104l266 -190l-31 317h123l-29 -315l264 186l62 -106l-299 -133l299 -138l-64 -104l-262 186l29 -315h-123z" />
<glyph unicode="+" horiz-adv-x="1325" d="M600 1141h109v-406h456v-106h-456v-404h-109v404h-455v106h455v406z" />
<glyph unicode="," horiz-adv-x="512" d="M178 0v217h154l22 -225l-141 -250l-51 51l90 207h-74z" />
<glyph unicode="-" horiz-adv-x="903" d="M723 524h-559v117h559v-117z" />
<glyph unicode="." horiz-adv-x="502" d="M162 0v217h162v-217h-162z" />
<glyph unicode="/" horiz-adv-x="918" d="M852 1618l-686 -1802h-113l686 1802h113z" />
<glyph unicode="0" horiz-adv-x="1340" d="M664 1456q256 0 387 -190.5t131 -548.5t-131 -549t-387 -191t-389.5 191.5t-133.5 548.5t133.5 548t389.5 191zM664 88q133 0 220 79.5t125 217t38 332.5q0 145 -22 258t-67.5 196.5t-119.5 127.5t-174 44q-197 0 -291 -165t-94 -461q0 -195 38.5 -332.5t126 -217 t220.5 -79.5z" />
<glyph unicode="1" horiz-adv-x="727" d="M504 0h-133v1292l-258 -135l-58 96l332 181h117v-1434z" />
<glyph unicode="2" horiz-adv-x="1180" d="M1034 117v-117h-923v104q0 69 14.5 129t45 110.5t64.5 91.5t85.5 83t95 73t106.5 73q10 6 15.5 10t14 9.5t15.5 10.5q65 45 103.5 73t88 71.5t76 79.5t45.5 82.5t19 95.5q0 108 -80.5 175.5t-220.5 67.5q-111 0 -212.5 -39.5t-168.5 -87.5l-67 93q211 151 452 151 q194 0 312 -97t118 -261q0 -88 -31 -162t-107 -145.5t-126.5 -109.5t-165.5 -115q-14 -10 -22 -15.5t-20.5 -13.5t-22.5 -15q-62 -42 -99 -70.5t-77 -67t-61 -75t-34.5 -85.5t-13.5 -107h782z" />
<glyph unicode="3" horiz-adv-x="1196" d="M84 117l63 100q60 -39 175.5 -81t230.5 -42q156 0 260.5 83.5t104.5 219.5q0 70 -29.5 127.5t-77.5 94.5t-110.5 62.5t-125.5 36.5t-126 11h-64v119h74q103 0 191 29.5t146 92.5t58 148q0 103 -78.5 162t-210.5 59q-183 0 -356 -118l-62 90q23 17 56 36.5t90 46.5 t133 44.5t154 17.5q191 0 299 -97t108 -235q0 -66 -27 -126.5t-93 -117t-165 -89.5q155 -37 254 -142.5t99 -251.5q0 -80 -30.5 -154t-89 -134t-154 -96t-214.5 -36q-143 0 -273.5 45t-209.5 95z" />
<glyph unicode="4" horiz-adv-x="1264" d="M74 330v106l700 998h170v-988h221v-116h-221v-330h-133v330h-737zM217 446h594v859z" />
<glyph unicode="5" horiz-adv-x="1174" d="M164 731l78 703h743v-117h-639l-41 -479q119 63 264 63q142 0 251 -62.5t165.5 -165.5t56.5 -229q0 -90 -32 -172.5t-92 -149t-157 -106t-216 -39.5q-212 0 -439 138l64 102q30 -20 74 -43.5t129 -50.5t159 -27q98 0 182.5 42.5t137.5 123.5t53 184q0 144 -96.5 242 t-259.5 98q-154 0 -313 -92z" />
<glyph unicode="6" horiz-adv-x="1254" d="M858 1341q-77 0 -150.5 -21.5t-143.5 -69t-126.5 -116.5t-98 -170.5t-58.5 -224.5q23 28 54.5 54.5t80 55.5t116.5 46.5t144 17.5q108 0 195.5 -36.5t143.5 -99.5t85.5 -144.5t29.5 -173.5q0 -130 -56.5 -238.5t-167.5 -176t-257 -67.5q-102 0 -188 34t-145.5 91.5 t-100.5 134t-60.5 161t-19.5 173.5q-1 213 60 385.5t163.5 279.5t230 163.5t265.5 56.5q46 0 92 -5.5t69 -10.5l23 -6l-32 -111q-68 18 -148 18zM659 803q-73 0 -140.5 -21.5t-116 -56t-82.5 -72.5t-50 -75v-13q0 -75 14 -143t44 -128.5t73.5 -105t106.5 -70.5t139 -26 q84 0 152.5 32t110.5 84.5t64.5 117t22.5 133.5q0 51 -11.5 99t-38 93t-65 78.5t-96 53.5t-127.5 20z" />
<glyph unicode="7" horiz-adv-x="1022" d="M965 1333q-11 -14 -30 -39t-74.5 -107t-105.5 -167t-111 -212t-105.5 -249.5t-74.5 -271.5t-30 -287h-143q0 123 27 259t66 251.5t95.5 239t103 208.5t102 174t78 121.5t44.5 63.5h-746v117h904v-101z" />
<glyph unicode="8" horiz-adv-x="1276" d="M119 365q0 265 356 407q-272 117 -272 340q0 156 119.5 250t306.5 94q189 0 309.5 -94t120.5 -250q0 -222 -275 -340q359 -144 359 -407q0 -119 -70 -208.5t-185.5 -134.5t-258.5 -45t-257.5 45t-183.5 134t-69 209zM1006 369q0 54 -23 102.5t-58 83t-87.5 67 t-100.5 53.5t-108 42q-76 -27 -134 -55.5t-116.5 -70.5t-90.5 -98.5t-32 -123.5q0 -128 107.5 -203.5t265.5 -75.5q161 0 269 75.5t108 203.5zM334 1104q0 -47 21 -88.5t50 -69t74 -53t77 -38.5t75 -28q43 15 75 28t77 38.5t74 53t50 69t21 88.5q0 101 -85 171.5t-214 70.5 q-126 0 -210.5 -70.5t-84.5 -171.5z" />
<glyph unicode="9" horiz-adv-x="1254" d="M381 92q97 0 188 35.5t171 105.5t137.5 188.5t78.5 270.5q-22 -28 -54 -54.5t-80.5 -54.5t-116 -45.5t-142.5 -17.5q-143 0 -248 64t-155.5 165.5t-50.5 225.5q0 129 57 237.5t168.5 176t257.5 67.5q127 0 227.5 -51.5t161.5 -137t92.5 -189t32.5 -216.5 q1 -213 -60.5 -385.5t-164 -279.5t-230 -163.5t-266.5 -56.5q-46 0 -92 5.5t-69 11.5l-23 6l35 111q65 -19 145 -19zM580 631q138 0 243.5 69t145.5 152v16q0 94 -23 177.5t-67.5 150.5t-118 106t-166.5 39q-85 0 -154 -31.5t-111 -84t-64.5 -117t-22.5 -133.5 q0 -51 11.5 -99t38 -93t65 -78.5t96 -53.5t127.5 -20z" />
<glyph unicode=":" horiz-adv-x="508" d="M166 715v217h162v-217h-162zM166 0v217h162v-217h-162z" />
<glyph unicode=";" horiz-adv-x="543" d="M190 715v217h162v-217h-162zM193 0v217h153l23 -225l-142 -250l-51 51l90 207h-73z" />
<glyph unicode="&#x3c;" horiz-adv-x="1325" d="M117 735l1018 432v-129l-875 -354l875 -356v-129l-1018 434v102z" />
<glyph unicode="=" horiz-adv-x="1325" d="M145 813v107h1020v-107h-1020zM145 449v108h1020v-108h-1020z" />
<glyph unicode="&#x3e;" horiz-adv-x="1325" d="M1192 633l-1018 -432v129l875 354l-875 356v129l1018 -434v-102z" />
<glyph unicode="?" horiz-adv-x="1034" d="M346 0v211h158v-211h-158zM926 1116q0 -298 -441 -409l-10 -289h-100l-13 364q81 18 143.5 37.5t119 47.5t92.5 61t57 77.5t21 98.5q0 112 -82 173.5t-207 61.5q-164 0 -363 -122l-67 90q82 58 199.5 103.5t242.5 45.5q79 0 150.5 -21.5t130 -62t93 -107t34.5 -149.5z " />
<glyph unicode="@" horiz-adv-x="1999" d="M1878 520q-2 -249 -104 -405t-281 -156q-68 0 -118 23t-75.5 61.5t-37.5 75.5t-15 80q-164 -150 -348 -150q-54 0 -104 15t-94.5 48t-71.5 93.5t-27 142.5q0 79 25.5 139.5t69.5 97t98 54.5t116 18q36 0 86.5 -7t87.5 -14t91 -19t69 -15v121q0 113 -43.5 163t-157.5 50 q-138 0 -329 -84l-51 88q209 92 391 92q301 0 301 -295v-440q0 -45 1 -70.5t9 -64t22.5 -60t43.5 -37.5t71 -16q34 0 70 13t75.5 47.5t70.5 86t51 136t20 190.5q0 137 -29.5 256.5t-91.5 219.5t-152 171.5t-217 111.5t-280 40q-152 0 -283 -42t-226 -116.5t-163 -175 t-101.5 -220t-33.5 -249.5q0 -167 55 -314t152.5 -255t241.5 -170t313 -62q71 0 137 9.5t110.5 23t79 27.5t50.5 23l16 10l53 -66q-6 -5 -18 -12t-54 -26.5t-89.5 -34t-124 -26.5t-158.5 -12q-151 0 -285.5 44t-237 125t-177 190t-113.5 243.5t-39 282.5q0 186 63 348.5 t177 282t284.5 188t374.5 68.5q206 0 368.5 -65.5t268 -183.5t161 -279.5t56.5 -356.5zM920 145q92 0 170 41.5t155 114.5v227q-19 3 -79.5 14.5t-115.5 19t-100 7.5q-123 0 -179 -63t-56 -158q0 -103 57 -153t148 -50z" />
<glyph unicode="A" horiz-adv-x="1393" d="M1178 0l-140 373h-698l-139 -373h-144l561 1434h142l561 -1434h-143zM688 1305l-305 -818h612z" />
<glyph unicode="B" horiz-adv-x="1368" d="M1241 381q0 -179 -119 -280t-342 -101h-573v1434h473q230 0 355.5 -92t125.5 -259q0 -73 -25 -134.5t-64.5 -99.5t-80.5 -60.5t-80 -28.5q39 -6 79.5 -20t87 -43.5t81.5 -69.5t58.5 -104t23.5 -142zM1030 1069q0 115 -85 183.5t-257 68.5h-348v-512h336q158 0 256 65.5 t98 194.5zM1110 399q0 148 -108 223.5t-314 75.5h-348v-585h434q165 0 250.5 78.5t85.5 207.5z" />
<glyph unicode="C" horiz-adv-x="1323" d="M1223 1245l-74 -96q-54 37 -95.5 62.5t-104.5 57.5t-127 49t-126 17q-187 0 -303.5 -164.5t-116.5 -453.5t116.5 -454t303.5 -165q62 0 126 17t127 49.5t104 57.5t96 63l74 -97q-65 -44 -117 -75.5t-122.5 -65.5t-144.5 -52t-147 -18q-113 0 -211 43.5t-176 130.5 t-123 232t-45 334t45 334t123 231.5t176 130t211 43.5q73 0 147 -18t144.5 -52t122.5 -65.5t117 -75.5z" />
<glyph unicode="D" horiz-adv-x="1440" d="M1288 717q0 -717 -661 -717h-420v1434h420q661 0 661 -717zM1147 717q0 309 -126 454.5t-398 145.5h-283v-1200h283q272 0 398 145.5t126 454.5z" />
<glyph unicode="E" horiz-adv-x="1221" d="M1094 0h-887v1434h874v-117h-741v-543h614v-115h-614v-542h754v-117z" />
<glyph unicode="F" horiz-adv-x="1165" d="M1081 1317h-741v-543h596v-117h-596v-657h-133v1434h874v-117z" />
<glyph unicode="G" horiz-adv-x="1442" d="M1143 0v178q-239 -201 -457 -201q-111 0 -207.5 43.5t-174 130.5t-122.5 232.5t-45 333.5q0 152 30 276t81.5 209t122.5 143t151.5 84.5t169.5 26.5q149 0 284.5 -62.5t270.5 -162.5l-78 -98q-63 44 -98 66.5t-104.5 60.5t-136 56.5t-132.5 18.5q-187 0 -304.5 -165 t-117.5 -453q0 -287 116.5 -455t305.5 -168q196 0 445 225v336h-416v113h547v-768h-131z" />
<glyph unicode="H" horiz-adv-x="1458" d="M1104 0v694h-764v-694h-133v1434h133v-625h764v625h133v-1434h-133z" />
<glyph unicode="I" horiz-adv-x="563" d="M340 0h-133v1434h133v-1434z" />
<glyph unicode="J" horiz-adv-x="565" d="M344 1434v-1354q0 -66 -1.5 -95t-11 -71.5t-29 -62.5t-56.5 -47t-93 -46t-139 -41l-45 105l79.5 26.5t59 24.5t43 22t28 25t18 27t8.5 35t3.5 41t0.5 53v1358h135z" />
<glyph unicode="K" horiz-adv-x="1325" d="M207 0v1434h133v-846l709 846h161l-585 -693l655 -741h-164l-571 649l-205 -241v-408h-133z" />
<glyph unicode="L" horiz-adv-x="1127" d="M1059 0h-852v1434h133v-1317h719v-117z" />
<glyph unicode="M" horiz-adv-x="1727" d="M1372 0v1208l-469 -968h-94l-469 966v-1206h-133v1434h141l508 -1045l506 1045h143v-1434h-133z" />
<glyph unicode="N" horiz-adv-x="1491" d="M1130 0l-790 1235v-1235h-133v1434h139l791 -1235v1235h133v-1434h-140z" />
<glyph unicode="O" horiz-adv-x="1510" d="M748 1456q131 0 234.5 -38t173 -104.5t115.5 -160.5t66.5 -202t20.5 -234q0 -124 -20.5 -232t-66.5 -202.5t-115.5 -161.5t-173.5 -105.5t-234 -38.5t-234 38.5t-174 105.5t-116 161.5t-66.5 202.5t-20.5 232q0 126 20.5 234t66.5 202t116 160.5t173.5 104.5t234.5 38z M748 96q104 0 185.5 32t135 87t88.5 135t49.5 170t14.5 197q0 134 -24.5 242t-78 195t-147.5 135t-223 48t-223 -48t-147 -135t-77.5 -195t-24.5 -242q0 -107 14.5 -197t49 -170t88 -135t135 -87t185.5 -32z" />
<glyph unicode="P" horiz-adv-x="1313" d="M1214 1004q0 -96 -26.5 -170.5t-73 -123t-113 -80t-142 -44.5t-165.5 -13h-354v-573h-133v1434h487q90 0 165.5 -13t142 -44.5t113 -80t73 -123t26.5 -169.5zM1077 1004q0 85 -28.5 147t-80.5 97.5t-118 52t-148 16.5h-362v-627h362q83 0 148.5 16.5t117.5 52t80.5 97.5 t28.5 148z" />
<glyph unicode="Q" horiz-adv-x="1510" d="M748 -23q-130 0 -234 38.5t-174 105.5t-116 161.5t-66.5 202.5t-20.5 232q0 126 20.5 234t66.5 202t116 160.5t173.5 104.5t234.5 38t234.5 -38t173 -104.5t115.5 -160.5t66.5 -202t20.5 -234q0 -137 -25.5 -254t-79 -215t-143.5 -164.5t-211 -91.5l248 -201l-94 -96z M748 96q104 0 185.5 32t135 87t88.5 135t49.5 170t14.5 197q0 134 -24.5 242t-78 195t-147.5 135t-223 48t-223 -48t-147 -135t-77.5 -195t-24.5 -242q0 -107 14.5 -197t49 -170t88 -135t135 -87t185.5 -32z" />
<glyph unicode="R" horiz-adv-x="1399" d="M1112 0l-385 625h-387v-625h-133v1434h532q90 0 166.5 -12.5t143.5 -42.5t113 -75.5t73 -115t27 -158.5q0 -95 -30.5 -168.5t-86 -120.5t-126.5 -73.5t-159 -36.5l404 -631h-152zM1124 1030q0 150 -101.5 219.5t-274.5 69.5h-408v-580h397q87 0 156 16t121.5 50t81 91 t28.5 134z" />
<glyph unicode="S" horiz-adv-x="1233" d="M655 799q55 -18 94 -31.5t92 -37t89.5 -46.5t76.5 -57t64 -71.5t39.5 -88t15.5 -107.5q0 -95 -40 -170t-107.5 -120.5t-150 -69t-173.5 -23.5q-141 0 -291 50t-262 118l66 103q106 -63 240 -108.5t251 -45.5q137 0 234.5 67t97.5 191q0 39 -12 74t-30.5 61.5t-52 52 t-65 44t-81.5 39t-90 35t-101 34.5q-52 16 -87.5 28.5t-84 33t-80.5 41t-67.5 51t-56.5 64t-34.5 79t-13.5 98.5q0 117 61 202t159 126t220 41q119 0 255 -37.5t237 -91.5l-63 -102q-96 50 -214.5 82t-211.5 32q-83 0 -150.5 -24.5t-112.5 -81t-45 -137.5q0 -49 20 -89 t44 -65t78.5 -51.5t89.5 -39.5t111 -38q28 -9 42 -14z" />
<glyph unicode="T" horiz-adv-x="1165" d="M1102 1317h-459v-1317h-133v1317h-461v117h1053v-117z" />
<glyph unicode="U" horiz-adv-x="1436" d="M1229 1434v-928q0 -92 -16 -169t-53.5 -145t-95.5 -114.5t-147.5 -73.5t-203.5 -27q-520 0 -520 529v928h133v-928q0 -73 9.5 -130.5t35.5 -111.5t68.5 -89.5t111.5 -57t162 -21.5q91 0 159.5 21.5t110.5 57t68 89.5t35.5 111.5t9.5 130.5v928h133z" />
<glyph unicode="V" horiz-adv-x="1389" d="M203 1434l483 -1295l485 1295h148l-561 -1434h-142l-561 1434h148z" />
<glyph unicode="W" horiz-adv-x="1927" d="M1284 0l-330 1243l-327 -1243h-150l-395 1434h145l328 -1280l334 1280h133l334 -1280l330 1280h147l-399 -1434h-150z" />
<glyph unicode="X" horiz-adv-x="1258" d="M76 1434h155l390 -631l391 631h155l-475 -723l500 -711h-160l-411 616l-410 -616h-160l500 711z" />
<glyph unicode="Y" horiz-adv-x="1290" d="M571 0v567l-526 867h150l444 -764l442 764h150l-526 -867v-567h-134z" />
<glyph unicode="Z" horiz-adv-x="1256" d="M84 109l887 1208h-842v117h1004v-109l-891 -1208h901v-117h-1059v109z" />
<glyph unicode="[" horiz-adv-x="694" d="M604 -295h-414v2013h414v-100h-280v-1813h280v-100z" />
<glyph unicode="\" horiz-adv-x="916" d="M737 -184l-686 1802h111l686 -1802h-111z" />
<glyph unicode="]" horiz-adv-x="694" d="M76 1718h413v-2013h-413v100h280v1813h-280v100z" />
<glyph unicode="^" horiz-adv-x="1323" d="M965 725l-312 596l-313 -596h-143l391 709h129l393 -709h-145z" />
<glyph unicode="_" horiz-adv-x="1456" d="M1278 -279h-1114v103h1114v-103z" />
<glyph unicode="`" horiz-adv-x="438" d="M434 1231h-108l-338 262h196z" />
<glyph unicode="a" horiz-adv-x="1184" d="M872 0v147q-188 -170 -409 -170q-65 0 -124.5 18t-112.5 55.5t-85 106t-32 160.5q0 90 30.5 160t82.5 111.5t116 62.5t137 21q56 0 128.5 -11t164 -30t104.5 -21v135q0 127 -52 186.5t-185 59.5q-83 0 -176 -24.5t-228 -71.5l-49 100q281 103 463 103q354 0 354 -340 v-758h-127zM487 90q112 0 204 45t181 125v264q-16 3 -69 13.5t-91 17.5t-91.5 13.5t-94.5 6.5q-151 0 -217.5 -70.5t-66.5 -182.5q0 -119 66.5 -175.5t178.5 -56.5z" />
<glyph unicode="b" horiz-adv-x="1239" d="M180 0v1493h127v-565q183 170 387 170q85 0 156.5 -32t128.5 -97t89 -175.5t32 -256.5t-32 -256t-89 -175t-128.5 -97t-156.5 -32q-210 0 -387 168v-145h-127zM680 987q-107 0 -205 -52t-168 -132v-533q71 -79 168.5 -130.5t204.5 -51.5q140 0 214.5 119t74.5 330 q0 212 -74 331t-215 119z" />
<glyph unicode="c" horiz-adv-x="1079" d="M979 954l-64 -96q-4 2 -32.5 19t-47 27.5t-54 27.5t-64.5 27t-65.5 18t-69.5 8q-140 0 -234 -122t-94 -324t94 -325.5t234 -123.5q33 0 69.5 8t65.5 18t64.5 27t54 27.5t47 27.5t32.5 19l64 -96q-42 -25 -57 -34t-66.5 -35.5t-87 -38.5t-89 -24t-101.5 -12 q-91 0 -172 36.5t-145.5 105t-102 177t-37.5 243.5t37.5 243.5t102 176t145.5 103.5t172 36q31 0 64 -5t58.5 -10.5t59 -18.5t52.5 -20.5t51.5 -24.5t42.5 -22.5t41 -23.5t32 -19z" />
<glyph unicode="d" horiz-adv-x="1239" d="M1044 0h-126v145q-181 -168 -388 -168q-86 0 -157.5 32t-128.5 97t-89 175t-32 256t32 256.5t89 175.5t128.5 97t157.5 32q205 0 388 -170v565h126v-1493zM545 88q105 0 202.5 51.5t170.5 130.5v533q-72 80 -169.5 132t-203.5 52q-142 0 -215.5 -118.5t-73.5 -331.5 q0 -211 73.5 -330t215.5 -119z" />
<glyph unicode="e" horiz-adv-x="1186" d="M1036 502h-782q9 -189 100 -303.5t230 -114.5q55 0 113.5 14t115.5 41t92 46t82 48l68 -88q-6 -3 -17 -10q-56 -33 -92.5 -52.5t-101 -48t-131 -43t-133.5 -14.5q-94 0 -177 36.5t-146.5 105t-100.5 177t-37 243.5q0 265 136 412t351 147q210 0 325.5 -128.5 t115.5 -334.5q0 -34 -2.5 -67t-5.5 -50zM604 993q-151 0 -243.5 -108t-104.5 -291h662q4 204 -78 301.5t-236 97.5z" />
<glyph unicode="f" horiz-adv-x="719" d="M74 973v102h149v178q0 69 16.5 117.5t48 74.5t69 37t85.5 11q107 0 301 -66l-49 -96q-184 49 -239 49q-50 0 -77.5 -26t-27.5 -90v-189h295v-102h-295v-973h-127v973h-149z" />
<glyph unicode="g" horiz-adv-x="1239" d="M918 1075h126v-1157q0 -356 -391 -356q-100 0 -232 20t-249 53q17 70 31 113q274 -78 440 -78q136 0 205.5 58.5t69.5 187.5v229q-181 -168 -388 -168q-86 0 -157.5 32t-128.5 97t-89 175t-32 256t32 256.5t89 175.5t128.5 97t157.5 32q205 0 388 -170v147zM545 88 q105 0 202.5 51.5t170.5 130.5v533q-72 80 -169.5 132t-203.5 52q-142 0 -215.5 -118.5t-73.5 -331.5q0 -211 73.5 -330t215.5 -119z" />
<glyph unicode="h" d="M307 1493v-578q37 28 78.5 54t103.5 58t133.5 51.5t137.5 19.5q84 0 144.5 -26.5t93 -74t47 -103t14.5 -124.5v-770h-127v750q0 53 -9 94t-31 75t-62.5 52t-98.5 18q-108 0 -230.5 -62.5t-193.5 -127.5v-799h-127v1493h127z" />
<glyph unicode="i" horiz-adv-x="500" d="M305 0h-127v1075h127v-1075zM170 1309v178h147v-178h-147z" />
<glyph unicode="j" horiz-adv-x="504" d="M174 1309v178h148v-178h-148zM311 1075v-1138q0 -128 -13 -172q-21 -72 -102 -116q-68 -38 -210 -75l-43 100q48 16 79 26.5t59 24.5l43 21.5t28 25t18 27t8.5 35t3.5 42v54.5v2v1143h129z" />
<glyph unicode="k" horiz-adv-x="1065" d="M940 1075l-362 -436l430 -639h-140l-368 547l-193 -232v-315h-127v1493h127v-1026l486 608h147z" />
<glyph unicode="l" horiz-adv-x="522" d="M317 0h-127v1493h127v-1493z" />
<glyph unicode="m" horiz-adv-x="1888" d="M307 1075v-164q78 73 186 130t220 57q221 0 278 -205q45 45 101.5 86.5t147 80t173.5 38.5q82 0 140.5 -26.5t90.5 -74t46 -103t14 -124.5v-770h-127v750q0 239 -193 239q-99 0 -201 -62t-179 -141v-786h-127v750q0 239 -193 239q-96 0 -196 -59.5t-181 -138.5v-791h-127 v1075h127z" />
<glyph unicode="n" d="M307 1075v-160q37 28 78.5 54t103.5 58t133.5 51.5t137.5 19.5q84 0 144.5 -26.5t93 -74t47 -103t14.5 -124.5v-770h-127v750q0 53 -9 94t-31 75t-62.5 52t-98.5 18q-108 0 -230.5 -62.5t-193.5 -127.5v-799h-127v1075h127z" />
<glyph unicode="o" horiz-adv-x="1241" d="M1102 537q0 -263 -127.5 -411.5t-362.5 -148.5q-236 0 -362.5 148.5t-126.5 411.5t126.5 412t362.5 149q235 0 362.5 -149t127.5 -412zM971 537q0 213 -88 332.5t-271 119.5q-182 0 -269 -119.5t-87 -332.5t87 -332t269 -119q183 0 271 119t88 332z" />
<glyph unicode="p" horiz-adv-x="1239" d="M307 1075v-147q179 170 387 170q85 0 156.5 -32t128.5 -97t89 -175.5t32 -256.5t-32 -256t-89 -175t-128.5 -97t-156.5 -32q-210 0 -387 168v-563h-127v1493h127zM680 987q-107 0 -205 -52t-168 -132v-533q71 -79 168.5 -130.5t204.5 -51.5q140 0 214.5 119t74.5 330 q0 212 -74 331t-215 119z" />
<glyph unicode="q" horiz-adv-x="1239" d="M918 -418v563q-181 -168 -388 -168q-86 0 -157.5 32t-128.5 97t-89 175t-32 256t32 256.5t89 175.5t128.5 97t157.5 32q205 0 388 -170v147h126v-1493h-126zM545 88q105 0 202.5 51.5t170.5 130.5v533q-72 80 -169.5 132t-203.5 52q-142 0 -215.5 -118.5t-73.5 -331.5 q0 -211 73.5 -330t215.5 -119z" />
<glyph unicode="r" horiz-adv-x="787" d="M307 1075v-231q6 16 19.5 40.5t48 64.5t77.5 71t113.5 52t151.5 15v-122q-75 0 -138 -18.5t-104 -48.5t-73 -66t-49.5 -72t-28.5 -66t-14 -48l-3 -19v-627h-127v1075h127z" />
<glyph unicode="s" horiz-adv-x="1049" d="M547 604q200 -54 294.5 -129.5t94.5 -204.5q0 -74 -31 -131.5t-85 -92t-120.5 -52t-142.5 -17.5q-120 0 -241 38.5t-214 90.5l60 97q87 -49 193.5 -84t195.5 -35q103 0 180.5 46.5t77.5 133.5q0 24 -7.5 46t-17.5 38.5t-31 33.5t-35 27.5t-45 24t-45.5 20t-50.5 17.5 t-47 14t-47 13q-43 12 -72 21t-70 24.5t-68.5 31.5t-57.5 40t-48 51.5t-30 64.5t-12 80q0 136 101.5 211.5t262.5 75.5q188 0 402 -107l-60 -92q-188 92 -342 92q-103 0 -170 -45.5t-67 -126.5q0 -28 10 -53t23 -42.5t38 -34t44 -26.5t52.5 -21.5t51 -16.5t50.5 -14 q18 -5 26 -7z" />
<glyph unicode="t" horiz-adv-x="772" d="M76 973v102h149v271l127 40v-311h297v-102h-297v-764q0 -119 105 -119q76 0 215 57l51 -98q-51 -24 -131 -48t-148 -24q-219 0 -219 240v756h-149z" />
<glyph unicode="u" d="M922 0v158q-36 -27 -79 -53.5t-104.5 -57.5t-133.5 -50.5t-138 -19.5q-83 0 -143 26.5t-92.5 74t-47 103t-14.5 124.5v770h127v-749q0 -53 9 -94t31 -75.5t62.5 -52.5t98.5 -18q73 0 163.5 35.5t152.5 75t108 77.5v801h127v-1075h-127z" />
<glyph unicode="v" horiz-adv-x="1139" d="M625 0h-125l-434 1075h141l354 -938l354 938h144z" />
<glyph unicode="w" horiz-adv-x="1673" d="M1108 0l-279 920l-278 -920h-131l-340 1075h137l270 -936l279 936h127l276 -936l273 936h135l-340 -1075h-129z" />
<glyph unicode="x" horiz-adv-x="1182" d="M952 0l-370 463l-367 -463h-162l457 541l-434 534h155l353 -454l348 454h158l-435 -534l459 -541h-162z" />
<glyph unicode="y" horiz-adv-x="1141" d="M68 1075h141l354 -921l355 921h143l-608 -1493h-142l189 424z" />
<glyph unicode="z" horiz-adv-x="1036" d="M94 0v104l670 861h-649v110h805v-104l-666 -860h666v-111h-826z" />
<glyph unicode="{" horiz-adv-x="815" d="M63 647v131q110 0 164.5 58.5t34.5 199.5l-26 191q-32 235 80 363t374 128h37v-100h-37q-362 0 -319 -365l28 -194q37 -291 -196 -346q233 -58 196 -346l-28 -195q-5 -59 -3.5 -113t22.5 -100t56 -80t97.5 -53t146.5 -19h37v-100h-37q-262 0 -374 128.5t-80 363.5l26 190 q20 141 -34.5 199.5t-164.5 58.5z" />
<glyph unicode="|" horiz-adv-x="506" d="M299 -252h-106v1927h106v-1927z" />
<glyph unicode="}" horiz-adv-x="815" d="M737 778v-131q-110 0 -164 -58.5t-34 -199.5l26 -190q32 -235 -80 -363.5t-374 -128.5h-37v100h37q362 0 319 365l-29 195q-37 291 197 346q-234 58 -197 346l29 194q5 59 3.5 113t-22.5 100t-56 80t-97.5 53t-146.5 19h-37v100h37q262 0 374 -128t80 -363l-26 -191 q-20 -141 34 -199.5t164 -58.5z" />
<glyph unicode="~" horiz-adv-x="1325" d="M207 438l-96 37q105 219 301 219q68 0 139 -23.5t121.5 -52t116.5 -52t124 -23.5q57 0 104.5 28t90.5 109l94 -39q-103 -217 -299 -217q-68 0 -140 23.5t-123 52t-116.5 52t-122.5 23.5q-56 0 -101.5 -28t-92.5 -109z" />
<glyph unicode="&#xa1;" horiz-adv-x="547" d="M346 1434v-211h-162v211h162zM190 0l35 1016h82l37 -1016h-154z" />
<glyph unicode="&#xa2;" horiz-adv-x="1143" d="M670 0h-105v158q-87 5 -164 43.5t-137.5 107t-95.5 174.5t-35 236q0 129 35 235t95.5 174.5t137.5 106.5t164 43v156h105v-164q23 -4 46.5 -10t47.5 -15t42.5 -15.5t43.5 -19l38 -19t37.5 -21t31 -18.5t30.5 -19t25 -15l-66 -94q-2 1 -44 26.5t-69 40.5t-74.5 35 t-88.5 29v-876q28 6 59 17.5t54.5 22t52.5 26.5t43.5 25t38.5 24.5t28 17.5l66 -95q-1 -1 -28 -17.5t-35.5 -21.5t-36.5 -21t-43.5 -23.5t-44 -21t-50.5 -21t-50 -15t-54 -12.5v-164zM266 719q0 -192 84.5 -313.5t214.5 -135.5v893q-129 -12 -214 -133t-85 -311z" />
<glyph unicode="&#xa3;" horiz-adv-x="1127" d="M150 537v100h217q-13 56 -46.5 118t-65 107t-56.5 111.5t-25 136.5q0 155 107.5 250.5t285.5 95.5q81 0 168.5 -24t139.5 -48t126 -63l-69 -96q-220 114 -357 114q-126 0 -197 -70.5t-71 -172.5q0 -58 25.5 -118t57.5 -105t65 -109.5t45 -126.5h338v-100h-334 q-7 -128 -75 -244t-130 -176h678v-117h-850v98q10 8 26 22t57.5 60.5t74 95t61 120.5t31.5 141h-227z" />
<glyph unicode="&#xa5;" horiz-adv-x="1344" d="M193 618v99h315l-436 717h149l445 -764l442 764h149l-436 -717h316v-99h-375l-31 -51v-110h406v-99h-406v-358h-133v358h-405v99h405v110l-31 51h-374z" />
<glyph unicode="&#xa6;" horiz-adv-x="510" d="M301 829h-106v846h106v-846zM301 -252h-106v846h106v-846z" />
<glyph unicode="&#xa7;" horiz-adv-x="1067" d="M522 344q-189 48 -289 128.5t-100 203.5q0 96 57.5 157t155.5 89q-170 83 -170 247q0 135 102.5 211t262.5 76q191 0 399 -106l-57 -93q-186 93 -342 93q-105 0 -173.5 -45.5t-68.5 -126.5q0 -24 5.5 -45t20 -38.5t26 -30.5t37 -26t38 -20.5t45.5 -18t42.5 -13.5 t45.5 -12.5t39 -10.5q94 -25 161.5 -53t121.5 -66.5t81 -90.5t27 -118q0 -99 -58 -160t-157 -88q170 -83 170 -248q0 -135 -101.5 -210.5t-260.5 -75.5q-192 0 -404 106l60 92q188 -92 342 -92q103 0 170 45.5t67 126.5q0 40 -18 72.5t-46.5 53.5t-66 37t-74 26.5 t-72.5 19.5q-12 3 -18 4zM532 856l-34 8q-104 -6 -172 -51.5t-68 -124.5q0 -41 22.5 -76t47 -56t79 -43.5t78.5 -30t86 -24.5q4 -1 6 -2t5 -1.5t6 -1.5l33 -11q105 6 174 52t69 127q0 30 -11.5 56.5t-27 45.5t-44.5 37.5t-51 29.5t-61 24.5t-59 19.5t-60 17q-4 1 -6.5 1.5 t-5.5 1.5z" />
<glyph unicode="&#xa8;" horiz-adv-x="477" d="M-10 1251v176h147v-176h-147zM326 1251v176h145v-176h-145z" />
<glyph unicode="&#xa9;" horiz-adv-x="1737" d="M1190 1034l-53 -63q-87 60 -137 81q-73 31 -148 31q-119 0 -193.5 -101.5t-74.5 -266.5t74.5 -265t193.5 -100q22 0 42.5 2t41 7.5t36 10t35 13.5t30.5 14t30 17t25 15.5t24.5 16t20.5 13.5l53 -62q-52 -36 -90 -58.5t-109 -45.5t-143 -23q-152 0 -254 117t-102 328 q0 212 101.5 329t254.5 117q72 0 143 -23t109 -45.5t90 -58.5zM131 717q0 156 49 290.5t140 234.5t230.5 157t311.5 57t311 -57t230 -157t139.5 -234.5t48.5 -290.5t-48.5 -290.5t-139.5 -234.5t-230 -157.5t-311 -57.5t-311.5 57.5t-230.5 157.5t-140 234.5t-49 290.5z M209 717q0 -190 74 -339t223.5 -238t353.5 -89q155 0 280 51t206.5 141t125.5 211.5t44 262.5t-44 262t-125.5 211t-206.5 141t-280 51q-154 0 -278.5 -51t-205 -141t-124 -211t-43.5 -262z" />
<glyph unicode="&#xaa;" horiz-adv-x="776" d="M551 788v86q-113 -100 -254 -100q-92 0 -158.5 51.5t-66.5 155.5q0 103 66.5 157t168.5 54q26 0 64.5 -4.5t63 -8.5t68.5 -12.5t48 -9.5v72q0 70 -32 102.5t-111 32.5q-80 0 -252 -53l-37 75q189 62 301 62q115 0 175 -51t60 -164v-445h-104zM324 860q115 0 227 94v142 q-15 2 -55.5 9.5t-79.5 13t-68 5.5q-168 0 -168 -139q0 -63 39 -94t105 -31z" />
<glyph unicode="&#xab;" horiz-adv-x="1413" d="M80 623l627 460v-137l-504 -368l504 -369v-135l-627 461v88zM643 623l627 460v-137l-504 -368l504 -369v-135l-627 461v88z" />
<glyph unicode="&#xac;" horiz-adv-x="1323" d="M1237 184h-121v445h-1050v106h1171v-551z" />
<glyph unicode="&#xae;" horiz-adv-x="1073" d="M125 1065q0 178 108 294t297 116q188 0 296 -116t108 -294t-108 -294t-296 -116q-189 0 -297 116t-108 294zM199 1065q0 -152 84.5 -247t246.5 -95q161 0 245.5 95t84.5 247t-84.5 247t-245.5 95q-162 0 -246.5 -95t-84.5 -247zM709 1157q0 -41 -29 -72.5t-74 -42.5 l96 -178h-75l-90 174h-91v-174h-67v412h190q64 0 102 -33t38 -86zM639 1157q0 57 -68 57h-125v-112h121q72 0 72 55z" />
<glyph unicode="&#xaf;" horiz-adv-x="602" d="M0 1282v94h588v-94h-588z" />
<glyph unicode="&#xb0;" horiz-adv-x="1098" d="M111 1100q0 138 98.5 236t236.5 98t236 -98t98 -236t-98 -237t-236 -99t-236.5 99t-98.5 237zM203 1100q0 -101 71 -172.5t172 -71.5q100 0 171 71.5t71 172.5q0 100 -71 170.5t-171 70.5q-101 0 -172 -70.5t-71 -170.5z" />
<glyph unicode="&#xb1;" horiz-adv-x="1325" d="M594 1077h111v-346h460v-106h-460v-351h-111v351h-449v106h449v346zM145 0v100h1020v-100h-1020z" />
<glyph unicode="&#xb2;" horiz-adv-x="776" d="M678 881v-93h-606v70q0 49 15 92t37.5 74.5t59 63t70 54.5t79.5 53q18 11 27 17q53 35 80.5 54.5t61.5 49.5t48.5 59.5t14.5 62.5q0 59 -46.5 96t-129.5 37q-68 0 -133.5 -24.5t-105.5 -53.5l-54 72q146 98 301 98q127 0 203 -61.5t76 -161.5q0 -24 -5 -47t-12 -41.5 t-22 -39t-26 -34.5t-34 -33.5t-35.5 -30t-41.5 -30t-42 -27.5l-45.5 -28t-43.5 -27q-92 -60 -132 -105.5t-40 -115.5h481z" />
<glyph unicode="&#xb3;" horiz-adv-x="787" d="M55 864l54 78q43 -27 115 -51.5t143 -24.5q91 0 152 45.5t61 120.5q0 47 -27.5 83.5t-71.5 56t-91.5 29t-96.5 9.5h-43v95h49q96 0 168 38t72 109q0 55 -45 87t-121 32q-111 0 -228 -72l-47 70q19 15 52.5 34t100.5 39.5t134 20.5q126 0 195 -59t69 -144 q0 -63 -43 -115.5t-129 -80.5q93 -22 152 -85t59 -149q0 -105 -79.5 -180.5t-231.5 -75.5q-95 0 -181.5 29t-140.5 61z" />
<glyph unicode="&#xb4;" horiz-adv-x="438" d="M98 1231h-110l250 262h196z" />
<glyph unicode="&#xb5;" horiz-adv-x="1235" d="M940 0v158q-36 -27 -79 -53.5t-104.5 -57.5t-133.5 -50.5t-138 -19.5q-103 0 -170 39v-434h-127v1493h127v-749q0 -53 9 -94t31 -75.5t62.5 -52.5t98.5 -18q73 0 163.5 35.5t152.5 75t108 77.5v801h127v-1075h-127z" />
<glyph unicode="&#xb6;" horiz-adv-x="1272" d="M571 1434h117v-1813h-121v961q-227 0 -358 110t-131 316q0 210 123.5 318t369.5 108zM932 -381v1815h121v-1815h-121z" />
<glyph unicode="&#xb7;" horiz-adv-x="506" d="M164 475v217h162v-217h-162z" />
<glyph unicode="&#xb8;" horiz-adv-x="361" d="M-4 -307l37 86q62 -29 106 -29q55 0 87 24.5t32 75.5q0 35 -16 73.5t-32 59.5l-15 21h71q3 -3 9 -9.5t20.5 -26.5t25.5 -40.5t20 -50t9 -57.5q0 -76 -54.5 -120t-143.5 -44q-81 0 -156 37z" />
<glyph unicode="&#xb9;" horiz-adv-x="498" d="M356 788h-110v752l-160 -80l-49 74l217 115h102v-861z" />
<glyph unicode="&#xba;" horiz-adv-x="809" d="M715 1110q0 -159 -82 -247.5t-236 -88.5q-153 0 -235 89t-82 247q0 159 82 248.5t235 89.5t235.5 -89.5t82.5 -248.5zM608 1110q0 252 -211 252t-211 -252q0 -250 211 -250t211 250z" />
<glyph unicode="&#xbb;" horiz-adv-x="1413" d="M756 532l-627 -460v137l504 369l-504 368v135l627 -460v-89zM1319 532l-627 -460v137l504 369l-504 368v135l627 -460v-89z" />
<glyph unicode="&#xbc;" horiz-adv-x="1624" d="M381 573h-111v752l-159 -80l-50 74l218 115h102v-861zM1110 1434l-684 -1434h-117l686 1434h115zM807 190v80l434 590h145v-579h138v-91h-138v-190h-110v190h-469zM926 281h350v485z" />
<glyph unicode="&#xbd;" horiz-adv-x="1684" d="M381 573h-111v752l-159 -80l-50 74l218 115h102v-861zM1110 1434l-684 -1434h-117l686 1434h115zM1552 92v-92h-606v70q0 49 15.5 92t36 73t61 64.5t68 53.5t80.5 53q6 4 9.5 6t9 5.5t9.5 6.5q54 35 81 54t61 49.5t48.5 59.5t14.5 62q0 59 -46.5 96t-129.5 37 q-68 0 -134 -24t-106 -53l-53 71q146 98 301 98q127 0 202.5 -61.5t75.5 -161.5q0 -24 -5 -47t-12 -41.5t-22 -39t-26 -34.5t-34 -33.5t-35.5 -30t-41.5 -30t-42 -27.5l-45.5 -28t-43.5 -27q-92 -60 -132 -105.5t-40 -115.5h481z" />
<glyph unicode="&#xbe;" horiz-adv-x="1864" d="M92 649l53 78q43 -27 115 -51.5t143 -24.5q91 0 152 45.5t61 120.5q0 47 -27 83.5t-71 56t-91.5 29t-96.5 9.5h-43v95h49q96 0 167.5 38t71.5 109q0 55 -45 87t-120 32q-111 0 -228 -72l-47 70q19 15 52.5 34t100.5 39.5t134 20.5q126 0 195 -59t69 -144 q0 -63 -43 -115.5t-129 -80.5q93 -22 152 -85t59 -149q0 -105 -79.5 -180.5t-231.5 -75.5q-95 0 -181.5 29t-140.5 61zM1356 1434l-684 -1434h-117l686 1434h115zM1051 190v80l434 590h145v-579h137v-91h-137v-190h-110v190h-469zM1169 281h351v485z" />
<glyph unicode="&#xbf;" horiz-adv-x="1026" d="M674 1434v-211h-158v211h158zM94 317q0 299 441 410l10 289h100l12 -365q-103 -23 -176.5 -49t-134 -63.5t-91 -89.5t-30.5 -119q0 -112 82 -174t207 -62q163 0 363 123l67 -90q-82 -59 -200 -104.5t-242 -45.5q-79 0 -150.5 21.5t-130 62t-93 107t-34.5 149.5z" />
<glyph unicode="&#xc0;" horiz-adv-x="1393" d="M1178 0l-140 373h-698l-139 -373h-144l561 1434h142l561 -1434h-143zM688 1305l-305 -818h612zM834 1540h-109l-338 262h197z" />
<glyph unicode="&#xc1;" horiz-adv-x="1393" d="M1178 0l-140 373h-698l-139 -373h-144l561 1434h142l561 -1434h-143zM688 1305l-305 -818h612zM653 1540h-110l250 262h196z" />
<glyph unicode="&#xc2;" horiz-adv-x="1393" d="M1178 0l-140 373h-698l-139 -373h-144l561 1434h142l561 -1434h-143zM688 1305l-305 -818h612zM772 1802l201 -262h-105l-180 184l-178 -184h-102l198 262h166z" />
<glyph unicode="&#xc3;" horiz-adv-x="1393" d="M1178 0l-140 373h-698l-139 -373h-144l561 1434h142l561 -1434h-143zM688 1305l-305 -818h612zM463 1565l-80 32q42 81 80.5 119.5t97.5 38.5q43 0 92 -24.5t91 -49t69 -24.5q26 0 47.5 18t52.5 76l80 -33q-40 -80 -79 -119.5t-99 -39.5q-43 0 -92 25t-91 50t-69 25 q-26 0 -47 -18.5t-53 -75.5z" />
<glyph unicode="&#xc4;" horiz-adv-x="1393" d="M1178 0l-140 373h-698l-139 -373h-144l561 1434h142l561 -1434h-143zM688 1305l-305 -818h612zM449 1563v176h147v-176h-147zM784 1563v176h146v-176h-146z" />
<glyph unicode="&#xc5;" horiz-adv-x="1393" d="M1178 0l-140 373h-698l-139 -373h-144l561 1434h142l561 -1434h-143zM688 1305l-305 -818h612zM483 1726q0 88 60.5 148.5t146.5 60.5q88 0 148.5 -60.5t60.5 -148.5q0 -86 -60.5 -146t-148.5 -60q-86 0 -146.5 60t-60.5 146zM567 1726q0 -52 35 -87t88 -35q54 0 90.5 35 t36.5 87q0 54 -36.5 90.5t-90.5 36.5q-52 0 -87.5 -36.5t-35.5 -90.5z" />
<glyph unicode="&#xc6;" horiz-adv-x="2048" d="M1919 0h-887v373h-612l-252 -373h-156l992 1434h903v-117h-742v-543h615v-115h-615v-542h754v-117zM498 487h534v789z" />
<glyph unicode="&#xc7;" horiz-adv-x="1323" d="M453 -307l36 86q62 -29 107 -29q55 0 87 24.5t32 75.5q0 54 -45 127q-109 4 -203 49.5t-169 132.5t-118 230.5t-43 327.5q0 189 45 334t123 231.5t176 130t211 43.5q73 0 147 -18t144.5 -52t122.5 -65.5t117 -75.5l-74 -96q-54 37 -95.5 62.5t-104.5 57.5t-127 49 t-126 17q-187 0 -303.5 -164.5t-116.5 -453.5t116.5 -454t303.5 -165q62 0 126 17t127 49.5t104 57.5t96 63l74 -97q-126 -86 -241 -141.5t-239 -66.5q64 -79 64 -160q0 -76 -55 -120t-144 -44q-80 0 -155 37z" />
<glyph unicode="&#xc8;" horiz-adv-x="1221" d="M1094 0h-887v1434h874v-117h-741v-543h614v-115h-614v-542h754v-117zM797 1540h-109l-338 262h197z" />
<glyph unicode="&#xc9;" horiz-adv-x="1221" d="M1094 0h-887v1434h874v-117h-741v-543h614v-115h-614v-542h754v-117zM616 1540h-110l250 262h196z" />
<glyph unicode="&#xca;" horiz-adv-x="1221" d="M1094 0h-887v1434h874v-117h-741v-543h614v-115h-614v-542h754v-117zM733 1802l201 -262h-105l-180 184l-178 -184h-102l198 262h166z" />
<glyph unicode="&#xcb;" horiz-adv-x="1221" d="M1094 0h-887v1434h874v-117h-741v-543h614v-115h-614v-542h754v-117zM410 1561v176h147v-176h-147zM745 1561v176h146v-176h-146z" />
<glyph unicode="&#xcc;" horiz-adv-x="563" d="M342 0h-133v1434h133v-1434zM420 1540h-109l-338 262h197z" />
<glyph unicode="&#xcd;" horiz-adv-x="563" d="M338 0h-133v1434h133v-1434zM240 1540h-111l250 262h196z" />
<glyph unicode="&#xce;" horiz-adv-x="563" d="M340 0h-133v1434h133v-1434zM358 1802l201 -262h-104l-181 184l-178 -184h-102l199 262h165z" />
<glyph unicode="&#xcf;" horiz-adv-x="563" d="M340 0h-133v1434h133v-1434zM33 1561v176h147v-176h-147zM369 1561v176h145v-176h-145z" />
<glyph unicode="&#xd0;" horiz-adv-x="1446" d="M1296 717q0 -717 -661 -717h-420v659h-156v115h156v660h420q661 0 661 -717zM1155 717q0 309 -126 454.5t-398 145.5h-283v-543h359v-115h-359v-542h283q272 0 398 145.5t126 454.5z" />
<glyph unicode="&#xd1;" horiz-adv-x="1491" d="M1130 0l-790 1235v-1235h-133v1434h139l791 -1235v1235h133v-1434h-140zM524 1567l-80 32q42 81 81 119.5t98 38.5q43 0 91.5 -24.5t90.5 -49t69 -24.5q26 0 48 18t53 76l80 -33q-40 -80 -79 -119.5t-99 -39.5q-43 0 -92 25t-91 50t-69 25q-26 0 -48 -18.5t-53 -75.5z " />
<glyph unicode="&#xd2;" horiz-adv-x="1510" d="M748 1456q131 0 234.5 -38t173 -104.5t115.5 -160.5t66.5 -202t20.5 -234q0 -124 -20.5 -232t-66.5 -202.5t-115.5 -161.5t-173.5 -105.5t-234 -38.5t-234 38.5t-174 105.5t-116 161.5t-66.5 202.5t-20.5 232q0 126 20.5 234t66.5 202t116 160.5t173.5 104.5t234.5 38z M748 96q104 0 185.5 32t135 87t88.5 135t49.5 170t14.5 197q0 134 -24.5 242t-78 195t-147.5 135t-223 48t-223 -48t-147 -135t-77.5 -195t-24.5 -242q0 -107 14.5 -197t49 -170t88 -135t135 -87t185.5 -32zM891 1540h-109l-338 262h197z" />
<glyph unicode="&#xd3;" horiz-adv-x="1510" d="M748 1456q131 0 234.5 -38t173 -104.5t115.5 -160.5t66.5 -202t20.5 -234q0 -124 -20.5 -232t-66.5 -202.5t-115.5 -161.5t-173.5 -105.5t-234 -38.5t-234 38.5t-174 105.5t-116 161.5t-66.5 202.5t-20.5 232q0 126 20.5 234t66.5 202t116 160.5t173.5 104.5t234.5 38z M748 96q104 0 185.5 32t135 87t88.5 135t49.5 170t14.5 197q0 134 -24.5 242t-78 195t-147.5 135t-223 48t-223 -48t-147 -135t-77.5 -195t-24.5 -242q0 -107 14.5 -197t49 -170t88 -135t135 -87t185.5 -32zM711 1540h-111l250 262h197z" />
<glyph unicode="&#xd4;" horiz-adv-x="1510" d="M748 1456q131 0 234.5 -38t173 -104.5t115.5 -160.5t66.5 -202t20.5 -234q0 -124 -20.5 -232t-66.5 -202.5t-115.5 -161.5t-173.5 -105.5t-234 -38.5t-234 38.5t-174 105.5t-116 161.5t-66.5 202.5t-20.5 232q0 126 20.5 234t66.5 202t116 160.5t173.5 104.5t234.5 38z M748 96q104 0 185.5 32t135 87t88.5 135t49.5 170t14.5 197q0 134 -24.5 242t-78 195t-147.5 135t-223 48t-223 -48t-147 -135t-77.5 -195t-24.5 -242q0 -107 14.5 -197t49 -170t88 -135t135 -87t185.5 -32zM829 1802l201 -262h-104l-181 184l-178 -184h-102l199 262h165z " />
<glyph unicode="&#xd5;" horiz-adv-x="1510" d="M748 1456q131 0 234.5 -38t173 -104.5t115.5 -160.5t66.5 -202t20.5 -234q0 -124 -20.5 -232t-66.5 -202.5t-115.5 -161.5t-173.5 -105.5t-234 -38.5t-234 38.5t-174 105.5t-116 161.5t-66.5 202.5t-20.5 232q0 126 20.5 234t66.5 202t116 160.5t173.5 104.5t234.5 38z M748 96q104 0 185.5 32t135 87t88.5 135t49.5 170t14.5 197q0 134 -24.5 242t-78 195t-147.5 135t-223 48t-223 -48t-147 -135t-77.5 -195t-24.5 -242q0 -107 14.5 -197t49 -170t88 -135t135 -87t185.5 -32zM520 1565l-80 32q42 81 80.5 119.5t97.5 38.5q43 0 92 -24.5 t91 -49t69 -24.5q26 0 48 18t53 76l80 -33q-40 -80 -79.5 -119.5t-99.5 -39.5q-43 0 -91.5 25t-90.5 50t-69 25q-26 0 -48 -18.5t-53 -75.5z" />
<glyph unicode="&#xd6;" horiz-adv-x="1510" d="M748 1456q131 0 234.5 -38t173 -104.5t115.5 -160.5t66.5 -202t20.5 -234q0 -124 -20.5 -232t-66.5 -202.5t-115.5 -161.5t-173.5 -105.5t-234 -38.5t-234 38.5t-174 105.5t-116 161.5t-66.5 202.5t-20.5 232q0 126 20.5 234t66.5 202t116 160.5t173.5 104.5t234.5 38z M748 96q104 0 185.5 32t135 87t88.5 135t49.5 170t14.5 197q0 134 -24.5 242t-78 195t-147.5 135t-223 48t-223 -48t-147 -135t-77.5 -195t-24.5 -242q0 -107 14.5 -197t49 -170t88 -135t135 -87t185.5 -32zM506 1561v176h147v-176h-147zM842 1561v176h145v-176h-145z" />
<glyph unicode="&#xd7;" horiz-adv-x="1327" d="M1053 969l-318 -285l320 -287l-76 -73l-324 288l-319 -286l-78 75l315 285l-319 287l76 78l323 -293l322 289z" />
<glyph unicode="&#xd8;" horiz-adv-x="1501" d="M743 1456q240 0 392 -129l77 107h119l-129 -177q152 -194 152 -540q0 -124 -20.5 -232t-66.5 -202.5t-116 -161.5t-174 -105.5t-234 -38.5q-243 0 -391 129l-78 -106h-116l129 174q-154 194 -154 543q0 126 20.5 234t66.5 202t115.5 160.5t173 104.5t234.5 38zM743 96 q104 0 185.5 32t135.5 87t88.5 135t49.5 170t15 197q0 271 -99 428l-688 -936q113 -113 313 -113zM272 717q0 -276 97 -430l688 936q-117 114 -314 114q-104 0 -185.5 -32t-134.5 -87.5t-87.5 -135t-49 -169.5t-14.5 -196z" />
<glyph unicode="&#xd9;" horiz-adv-x="1436" d="M1229 1434v-928q0 -92 -16 -169t-53.5 -145t-95.5 -114.5t-147.5 -73.5t-203.5 -27q-520 0 -520 529v928h133v-928q0 -73 9.5 -130.5t35.5 -111.5t68.5 -89.5t111.5 -57t162 -21.5q91 0 159.5 21.5t110.5 57t68 89.5t35.5 111.5t9.5 130.5v928h133zM856 1540h-108 l-338 262h196z" />
<glyph unicode="&#xda;" horiz-adv-x="1436" d="M1229 1434v-928q0 -92 -16 -169t-53.5 -145t-95.5 -114.5t-147.5 -73.5t-203.5 -27q-520 0 -520 529v928h133v-928q0 -73 9.5 -130.5t35.5 -111.5t68.5 -89.5t111.5 -57t162 -21.5q91 0 159.5 21.5t110.5 57t68 89.5t35.5 111.5t9.5 130.5v928h133zM676 1540h-111 l250 262h197z" />
<glyph unicode="&#xdb;" horiz-adv-x="1436" d="M1229 1434v-928q0 -92 -16 -169t-53.5 -145t-95.5 -114.5t-147.5 -73.5t-203.5 -27q-520 0 -520 529v928h133v-928q0 -73 9.5 -130.5t35.5 -111.5t68.5 -89.5t111.5 -57t162 -21.5q91 0 159.5 21.5t110.5 57t68 89.5t35.5 111.5t9.5 130.5v928h133zM795 1802l200 -262 h-104l-180 184l-179 -184h-102l199 262h166z" />
<glyph unicode="&#xdc;" horiz-adv-x="1436" d="M1229 1434v-928q0 -92 -16 -169t-53.5 -145t-95.5 -114.5t-147.5 -73.5t-203.5 -27q-520 0 -520 529v928h133v-928q0 -73 9.5 -130.5t35.5 -111.5t68.5 -89.5t111.5 -57t162 -21.5q91 0 159.5 21.5t110.5 57t68 89.5t35.5 111.5t9.5 130.5v928h133zM469 1561v176h147 v-176h-147zM805 1561v176h145v-176h-145z" />
<glyph unicode="&#xdd;" horiz-adv-x="1290" d="M571 0v567l-526 867h150l444 -764l442 764h150l-526 -867v-567h-134zM604 1540h-110l249 262h197z" />
<glyph unicode="&#xde;" horiz-adv-x="1338" d="M1214 743q0 -97 -26.5 -172t-73 -123.5t-113 -80.5t-142 -45t-165.5 -13h-354v-309h-133v1434h133v-265h354q520 0 520 -426zM1077 743q0 310 -381 310h-356v-627h356q176 0 278.5 75t102.5 242z" />
<glyph unicode="&#xdf;" horiz-adv-x="1290" d="M621 1497q188 0 309 -89.5t121 -244.5q0 -51 -14.5 -93.5t-28.5 -59.5l-15 -17q-32 -10 -56.5 -19.5t-57.5 -27t-54.5 -37.5t-37 -49.5t-15.5 -64.5q0 -41 26.5 -78t57 -60.5t109.5 -76.5q7 -5 10 -7q56 -38 87.5 -63t67.5 -64t52 -84.5t16 -101.5q0 -133 -93 -208 t-231 -75q-94 0 -200.5 34t-192.5 79l60 96q196 -100 329 -100q87 0 144 45t57 129q0 68 -42 113.5t-146 111.5q-7 4 -31.5 20t-33.5 22t-31.5 22t-32 25t-28 26t-27 29.5t-20.5 31.5t-17.5 37t-10 40.5t-4.5 45.5q0 197 262 287q17 43 17 86q0 106 -82 169t-217 63 q-320 0 -320 -379v-1010h-127v1010q0 109 23.5 193.5t63.5 139t97 90t120 50t137 14.5z" />
<glyph unicode="&#xe0;" horiz-adv-x="1184" d="M872 0v147q-188 -170 -409 -170q-65 0 -124.5 18t-112.5 55.5t-85 106t-32 160.5q0 90 30.5 160t82.5 111.5t116 62.5t137 21q56 0 128.5 -11t164 -30t104.5 -21v135q0 127 -52 186.5t-185 59.5q-83 0 -176 -24.5t-228 -71.5l-49 100q281 103 463 103q354 0 354 -340 v-758h-127zM487 90q112 0 204 45t181 125v264q-16 3 -69 13.5t-91 17.5t-91.5 13.5t-94.5 6.5q-151 0 -217.5 -70.5t-66.5 -182.5q0 -119 66.5 -175.5t178.5 -56.5zM737 1231h-108l-338 262h196z" />
<glyph unicode="&#xe1;" horiz-adv-x="1184" d="M872 0v147q-188 -170 -409 -170q-65 0 -124.5 18t-112.5 55.5t-85 106t-32 160.5q0 90 30.5 160t82.5 111.5t116 62.5t137 21q56 0 128.5 -11t164 -30t104.5 -21v135q0 127 -52 186.5t-185 59.5q-83 0 -176 -24.5t-228 -71.5l-49 100q281 103 463 103q354 0 354 -340 v-758h-127zM487 90q112 0 204 45t181 125v264q-16 3 -69 13.5t-91 17.5t-91.5 13.5t-94.5 6.5q-151 0 -217.5 -70.5t-66.5 -182.5q0 -119 66.5 -175.5t178.5 -56.5zM557 1231h-111l250 262h197z" />
<glyph unicode="&#xe2;" horiz-adv-x="1184" d="M872 0v147q-188 -170 -409 -170q-65 0 -124.5 18t-112.5 55.5t-85 106t-32 160.5q0 90 30.5 160t82.5 111.5t116 62.5t137 21q56 0 128.5 -11t164 -30t104.5 -21v135q0 127 -52 186.5t-185 59.5q-83 0 -176 -24.5t-228 -71.5l-49 100q281 103 463 103q354 0 354 -340 v-758h-127zM487 90q112 0 204 45t181 125v264q-16 3 -69 13.5t-91 17.5t-91.5 13.5t-94.5 6.5q-151 0 -217.5 -70.5t-66.5 -182.5q0 -119 66.5 -175.5t178.5 -56.5zM674 1493l200 -262h-104l-180 184l-178 -184h-103l199 262h166z" />
<glyph unicode="&#xe3;" horiz-adv-x="1184" d="M872 0v147q-188 -170 -409 -170q-65 0 -124.5 18t-112.5 55.5t-85 106t-32 160.5q0 90 30.5 160t82.5 111.5t116 62.5t137 21q56 0 128.5 -11t164 -30t104.5 -21v135q0 127 -52 186.5t-185 59.5q-83 0 -176 -24.5t-228 -71.5l-49 100q281 103 463 103q354 0 354 -340 v-758h-127zM487 90q112 0 204 45t181 125v264q-16 3 -69 13.5t-91 17.5t-91.5 13.5t-94.5 6.5q-151 0 -217.5 -70.5t-66.5 -182.5q0 -119 66.5 -175.5t178.5 -56.5zM365 1255l-80 33q42 81 80.5 119.5t97.5 38.5q43 0 92 -24.5t91 -49t69 -24.5q26 0 47.5 18t52.5 76l80 -33 q-40 -81 -79.5 -120.5t-98.5 -39.5q-43 0 -92 25.5t-91 50.5t-69 25q-26 0 -47 -18.5t-53 -76.5z" />
<glyph unicode="&#xe4;" horiz-adv-x="1184" d="M872 0v147q-188 -170 -409 -170q-65 0 -124.5 18t-112.5 55.5t-85 106t-32 160.5q0 90 30.5 160t82.5 111.5t116 62.5t137 21q56 0 128.5 -11t164 -30t104.5 -21v135q0 127 -52 186.5t-185 59.5q-83 0 -176 -24.5t-228 -71.5l-49 100q281 103 463 103q354 0 354 -340 v-758h-127zM487 90q112 0 204 45t181 125v264q-16 3 -69 13.5t-91 17.5t-91.5 13.5t-94.5 6.5q-151 0 -217.5 -70.5t-66.5 -182.5q0 -119 66.5 -175.5t178.5 -56.5zM350 1251v176h148v-176h-148zM686 1251v176h145v-176h-145z" />
<glyph unicode="&#xe5;" horiz-adv-x="1184" d="M872 0v147q-188 -170 -409 -170q-65 0 -124.5 18t-112.5 55.5t-85 106t-32 160.5q0 90 30.5 160t82.5 111.5t116 62.5t137 21q56 0 128.5 -11t164 -30t104.5 -21v135q0 127 -52 186.5t-185 59.5q-83 0 -176 -24.5t-228 -71.5l-49 100q281 103 463 103q354 0 354 -340 v-758h-127zM487 90q112 0 204 45t181 125v264q-16 3 -69 13.5t-91 17.5t-91.5 13.5t-94.5 6.5q-151 0 -217.5 -70.5t-66.5 -182.5q0 -119 66.5 -175.5t178.5 -56.5zM383 1417q0 88 60.5 148.5t146.5 60.5q88 0 148.5 -60.5t60.5 -148.5q0 -86 -60.5 -146.5t-148.5 -60.5 q-86 0 -146.5 60.5t-60.5 146.5zM467 1417q0 -53 35.5 -88t87.5 -35q54 0 90.5 35.5t36.5 87.5q0 54 -36.5 90.5t-90.5 36.5q-52 0 -87.5 -36.5t-35.5 -90.5z" />
<glyph unicode="&#xe6;" horiz-adv-x="1899" d="M1749 502h-782q9 -190 99.5 -304t229.5 -114q55 0 113.5 14t116 41t93 46.5t81.5 47.5l67 -88q-6 -3 -17 -10q-56 -33 -92.5 -52.5t-101 -48t-131 -43t-133.5 -14.5q-117 0 -215 54.5t-162 158.5q-93 -96 -208.5 -154.5t-243.5 -58.5q-65 0 -124.5 18t-112.5 55.5 t-85 106t-32 160.5q0 90 30.5 160t82.5 111.5t116 62.5t137 21q113 0 359 -70q6 101 36 184q-8 106 -60.5 155.5t-174.5 49.5q-83 0 -176 -24.5t-228 -71.5l-49 100q281 103 463 103q238 0 318 -154q136 154 356 154q210 0 325 -128t115 -335q0 -34 -2.5 -67t-4.5 -50z M487 90q201 0 390 182q-43 109 -46 238q-9 2 -66 18.5t-84.5 23.5t-74 15t-80.5 8q-151 0 -217.5 -70.5t-66.5 -182.5q0 -119 66.5 -175.5t178.5 -56.5zM1317 993q-151 0 -243.5 -108t-104.5 -291h661q4 204 -78 301.5t-235 97.5z" />
<glyph unicode="&#xe7;" horiz-adv-x="1079" d="M319 -307l37 86q62 -29 107 -29q55 0 87 24.5t32 75.5q0 58 -45 130q-84 8 -158.5 47.5t-132.5 107.5t-91.5 172.5t-33.5 231.5q0 135 37.5 243.5t102 176t145.5 103.5t172 36q31 0 64 -5t58.5 -10.5t59 -18.5t52.5 -20.5t51.5 -24.5t42.5 -22.5t41 -23.5t32 -19l-64 -96 q-4 2 -32.5 19t-47 27.5t-54 27.5t-64.5 27t-65.5 18t-69.5 8q-140 0 -234 -122t-94 -324t94 -325.5t234 -123.5q33 0 69.5 8t65.5 18t64.5 27t54 27.5t47 27.5t32.5 19l64 -96q-57 -35 -96.5 -56.5t-120 -50.5t-152.5 -34q64 -79 64 -160q0 -76 -55 -120t-144 -44 q-81 0 -156 37z" />
<glyph unicode="&#xe8;" horiz-adv-x="1186" d="M1036 502h-782q9 -189 100 -303.5t230 -114.5q55 0 113.5 14t115.5 41t92 46t82 48l68 -88q-6 -3 -17 -10q-56 -33 -92.5 -52.5t-101 -48t-131 -43t-133.5 -14.5q-94 0 -177 36.5t-146.5 105t-100.5 177t-37 243.5q0 265 136 412t351 147q210 0 325.5 -128.5 t115.5 -334.5q0 -34 -2.5 -67t-5.5 -50zM604 993q-151 0 -243.5 -108t-104.5 -291h662q4 204 -78 301.5t-236 97.5zM750 1231h-109l-338 262h197z" />
<glyph unicode="&#xe9;" horiz-adv-x="1186" d="M1036 502h-782q9 -189 100 -303.5t230 -114.5q55 0 113.5 14t115.5 41t92 46t82 48l68 -88q-6 -3 -17 -10q-56 -33 -92.5 -52.5t-101 -48t-131 -43t-133.5 -14.5q-94 0 -177 36.5t-146.5 105t-100.5 177t-37 243.5q0 265 136 412t351 147q210 0 325.5 -128.5 t115.5 -334.5q0 -34 -2.5 -67t-5.5 -50zM604 993q-151 0 -243.5 -108t-104.5 -291h662q4 204 -78 301.5t-236 97.5zM571 1231h-110l250 262h196z" />
<glyph unicode="&#xea;" horiz-adv-x="1186" d="M1036 502h-782q9 -189 100 -303.5t230 -114.5q55 0 113.5 14t115.5 41t92 46t82 48l68 -88q-6 -3 -17 -10q-56 -33 -92.5 -52.5t-101 -48t-131 -43t-133.5 -14.5q-94 0 -177 36.5t-146.5 105t-100.5 177t-37 243.5q0 265 136 412t351 147q210 0 325.5 -128.5 t115.5 -334.5q0 -34 -2.5 -67t-5.5 -50zM604 993q-151 0 -243.5 -108t-104.5 -291h662q4 204 -78 301.5t-236 97.5zM688 1493l201 -262h-105l-180 184l-178 -184h-102l198 262h166z" />
<glyph unicode="&#xeb;" horiz-adv-x="1186" d="M1036 502h-782q9 -189 100 -303.5t230 -114.5q55 0 113.5 14t115.5 41t92 46t82 48l68 -88q-6 -3 -17 -10q-56 -33 -92.5 -52.5t-101 -48t-131 -43t-133.5 -14.5q-94 0 -177 36.5t-146.5 105t-100.5 177t-37 243.5q0 265 136 412t351 147q210 0 325.5 -128.5 t115.5 -334.5q0 -34 -2.5 -67t-5.5 -50zM604 993q-151 0 -243.5 -108t-104.5 -291h662q4 204 -78 301.5t-236 97.5zM365 1251v176h147v-176h-147zM700 1251v176h146v-176h-146z" />
<glyph unicode="&#xec;" horiz-adv-x="502" d="M311 0h-127v1075h127v-1075zM391 1231h-108l-338 262h196z" />
<glyph unicode="&#xed;" horiz-adv-x="504" d="M305 0h-127v1075h127v-1075zM209 1231h-111l250 262h197z" />
<glyph unicode="&#xee;" horiz-adv-x="506" d="M309 0h-127v1075h127v-1075zM328 1493l200 -262h-104l-180 184l-178 -184h-103l199 262h166z" />
<glyph unicode="&#xef;" horiz-adv-x="502" d="M307 0h-127v1075h127v-1075zM2 1251v176h148v-176h-148zM338 1251v176h145v-176h-145z" />
<glyph unicode="&#xf0;" horiz-adv-x="1254" d="M477 1165h-149l196 148q-56 12 -112 12q-38 0 -76 -4.5t-57 -8.5l-19 -5l-29 102q77 25 183 25q112 0 221 -39l129 98h154l-189 -141q177 -101 280 -307t103 -474q0 -134 -27 -238t-72 -170t-109 -108.5t-133 -60t-150 -17.5q-231 0 -364.5 135t-133.5 363q0 226 128 363 t339 137q55 0 105.5 -9.5t87 -24t67.5 -32.5t51.5 -36t34.5 -32.5t20 -24.5l7 -9q-33 147 -118.5 276.5t-217.5 192.5zM979 477q0 185 -94.5 287t-268.5 102q-173 0 -266.5 -107t-93.5 -284q0 -180 94 -284.5t266 -104.5q170 0 266.5 103t96.5 288z" />
<glyph unicode="&#xf1;" d="M307 1075v-160q37 28 78.5 54t103.5 58t133.5 51.5t137.5 19.5q84 0 144.5 -26.5t93 -74t47 -103t14.5 -124.5v-770h-127v750q0 53 -9 94t-31 75t-62.5 52t-98.5 18q-108 0 -230.5 -62.5t-193.5 -127.5v-799h-127v1075h127zM393 1255l-80 33q42 81 81 119.5t98 38.5 q43 0 91.5 -24.5t90.5 -49t69 -24.5q26 0 48 18t53 76l80 -33q-40 -80 -79.5 -120t-99.5 -40q-43 0 -91.5 25.5t-90.5 50.5t-69 25q-26 0 -47.5 -18.5t-53.5 -76.5z" />
<glyph unicode="&#xf2;" horiz-adv-x="1241" d="M1102 537q0 -263 -127.5 -411.5t-362.5 -148.5q-236 0 -362.5 148.5t-126.5 411.5t126.5 412t362.5 149q235 0 362.5 -149t127.5 -412zM971 537q0 213 -88 332.5t-271 119.5q-182 0 -269 -119.5t-87 -332.5t87 -332t269 -119q183 0 271 119t88 332zM758 1231h-109 l-338 262h197z" />
<glyph unicode="&#xf3;" horiz-adv-x="1241" d="M1102 537q0 -263 -127.5 -411.5t-362.5 -148.5q-236 0 -362.5 148.5t-126.5 411.5t126.5 412t362.5 149q235 0 362.5 -149t127.5 -412zM971 537q0 213 -88 332.5t-271 119.5q-182 0 -269 -119.5t-87 -332.5t87 -332t269 -119q183 0 271 119t88 332zM578 1231h-111 l250 262h196z" />
<glyph unicode="&#xf4;" horiz-adv-x="1241" d="M1102 537q0 -263 -127.5 -411.5t-362.5 -148.5q-236 0 -362.5 148.5t-126.5 411.5t126.5 412t362.5 149q235 0 362.5 -149t127.5 -412zM971 537q0 213 -88 332.5t-271 119.5q-182 0 -269 -119.5t-87 -332.5t87 -332t269 -119q183 0 271 119t88 332zM696 1493l201 -262 h-104l-181 184l-178 -184h-102l198 262h166z" />
<glyph unicode="&#xf5;" horiz-adv-x="1241" d="M1102 537q0 -263 -127.5 -411.5t-362.5 -148.5q-236 0 -362.5 148.5t-126.5 411.5t126.5 412t362.5 149q235 0 362.5 -149t127.5 -412zM971 537q0 213 -88 332.5t-271 119.5q-182 0 -269 -119.5t-87 -332.5t87 -332t269 -119q183 0 271 119t88 332zM387 1255l-80 33 q42 81 80.5 119.5t97.5 38.5q43 0 92 -24.5t91 -49t69 -24.5q26 0 48 18t53 76l80 -33q-40 -80 -79.5 -120t-99.5 -40q-43 0 -92 25.5t-91 50.5t-69 25q-26 0 -47 -18.5t-53 -76.5z" />
<glyph unicode="&#xf6;" horiz-adv-x="1241" d="M1102 537q0 -263 -127.5 -411.5t-362.5 -148.5q-236 0 -362.5 148.5t-126.5 411.5t126.5 412t362.5 149q235 0 362.5 -149t127.5 -412zM971 537q0 213 -88 332.5t-271 119.5q-182 0 -269 -119.5t-87 -332.5t87 -332t269 -119q183 0 271 119t88 332zM373 1251v176h147 v-176h-147zM709 1251v176h145v-176h-145z" />
<glyph unicode="&#xf7;" horiz-adv-x="1325" d="M547 1032q0 45 31.5 78t76.5 33t78 -33t33 -78q0 -46 -32.5 -78t-78.5 -32t-77 32t-31 78zM547 332q0 46 31.5 79t76.5 33q46 0 78.5 -33t32.5 -79q0 -44 -32.5 -76.5t-78.5 -32.5q-45 0 -76.5 32t-31.5 77zM145 629v106h1020v-106h-1020z" />
<glyph unicode="&#xf8;" horiz-adv-x="1233" d="M1098 537q0 -263 -127.5 -411.5t-362.5 -148.5q-183 0 -303 91l-51 -68h-113l99 129q-121 145 -121 408t126.5 412t362.5 149q181 0 301 -94l56 71h110l-100 -131q123 -151 123 -407zM967 537q0 189 -70 305l-520 -680q88 -76 231 -76q183 0 271 119t88 332zM252 537 q0 -196 67 -304l519 678q-88 78 -230 78q-182 0 -269 -119.5t-87 -332.5z" />
<glyph unicode="&#xf9;" d="M922 0v158q-36 -27 -79 -53.5t-104.5 -57.5t-133.5 -50.5t-138 -19.5q-83 0 -143 26.5t-92.5 74t-47 103t-14.5 124.5v770h127v-749q0 -53 9 -94t31 -75.5t62.5 -52.5t98.5 -18q73 0 163.5 35.5t152.5 75t108 77.5v801h127v-1075h-127zM752 1231h-109l-338 262h197z" />
<glyph unicode="&#xfa;" d="M922 0v158q-36 -27 -79 -53.5t-104.5 -57.5t-133.5 -50.5t-138 -19.5q-83 0 -143 26.5t-92.5 74t-47 103t-14.5 124.5v770h127v-749q0 -53 9 -94t31 -75.5t62.5 -52.5t98.5 -18q73 0 163.5 35.5t152.5 75t108 77.5v801h127v-1075h-127zM573 1231h-110l250 262h196z" />
<glyph unicode="&#xfb;" d="M922 0v158q-36 -27 -79 -53.5t-104.5 -57.5t-133.5 -50.5t-138 -19.5q-83 0 -143 26.5t-92.5 74t-47 103t-14.5 124.5v770h127v-749q0 -53 9 -94t31 -75.5t62.5 -52.5t98.5 -18q73 0 163.5 35.5t152.5 75t108 77.5v801h127v-1075h-127zM692 1493l201 -262h-105l-180 184 l-178 -184h-102l198 262h166z" />
<glyph unicode="&#xfc;" d="M922 0v158q-36 -27 -79 -53.5t-104.5 -57.5t-133.5 -50.5t-138 -19.5q-83 0 -143 26.5t-92.5 74t-47 103t-14.5 124.5v770h127v-749q0 -53 9 -94t31 -75.5t62.5 -52.5t98.5 -18q73 0 163.5 35.5t152.5 75t108 77.5v801h127v-1075h-127zM367 1251v176h147v-176h-147z M702 1251v176h146v-176h-146z" />
<glyph unicode="&#xfd;" horiz-adv-x="1141" d="M68 1075h141l354 -921l355 921h143l-608 -1493h-142l189 424zM528 1231h-110l250 262h196z" />
<glyph unicode="&#xfe;" horiz-adv-x="1239" d="M694 -23q-210 0 -387 168v-563h-127v1911h127v-565q179 170 387 170q85 0 156.5 -32t128.5 -97t89 -175.5t32 -256.5t-32 -256t-89 -175t-128.5 -97t-156.5 -32zM680 987q-107 0 -205 -52t-168 -132v-533q71 -79 168.5 -130.5t204.5 -51.5q140 0 214.5 119t74.5 330 q0 212 -74 331t-215 119z" />
<glyph unicode="&#xff;" horiz-adv-x="1141" d="M68 1075h141l354 -921l355 921h143l-608 -1493h-142l189 424zM324 1251v176h147v-176h-147zM659 1251v176h146v-176h-146z" />
<glyph unicode="&#x100;" horiz-adv-x="1393" d="M1178 0l-140 373h-698l-139 -373h-144l561 1434h142l561 -1434h-143zM688 1305l-305 -818h612zM395 1591v95h588v-95h-588z" />
<glyph unicode="&#x101;" horiz-adv-x="1184" d="M872 0v147q-188 -170 -409 -170q-65 0 -124.5 18t-112.5 55.5t-85 106t-32 160.5q0 90 30.5 160t82.5 111.5t116 62.5t137 21q56 0 128.5 -11t164 -30t104.5 -21v135q0 127 -52 186.5t-185 59.5q-83 0 -176 -24.5t-228 -71.5l-49 100q281 103 463 103q354 0 354 -340 v-758h-127zM487 90q112 0 204 45t181 125v264q-16 3 -69 13.5t-91 17.5t-91.5 13.5t-94.5 6.5q-151 0 -217.5 -70.5t-66.5 -182.5q0 -119 66.5 -175.5t178.5 -56.5zM297 1282v94h588v-94h-588z" />
<glyph unicode="&#x102;" horiz-adv-x="1393" d="M1178 0l-140 373h-698l-139 -373h-144l561 1434h142l561 -1434h-143zM688 1305l-305 -818h612zM686 1540q-130 0 -203 57t-73 154h100q0 -117 176 -117q178 0 178 117h101q0 -97 -74 -154t-205 -57z" />
<glyph unicode="&#x103;" horiz-adv-x="1184" d="M872 0v147q-188 -170 -409 -170q-65 0 -124.5 18t-112.5 55.5t-85 106t-32 160.5q0 90 30.5 160t82.5 111.5t116 62.5t137 21q56 0 128.5 -11t164 -30t104.5 -21v135q0 127 -52 186.5t-185 59.5q-83 0 -176 -24.5t-228 -71.5l-49 100q281 103 463 103q354 0 354 -340 v-758h-127zM487 90q112 0 204 45t181 125v264q-16 3 -69 13.5t-91 17.5t-91.5 13.5t-94.5 6.5q-151 0 -217.5 -70.5t-66.5 -182.5q0 -119 66.5 -175.5t178.5 -56.5zM592 1231q-130 0 -203.5 57t-73.5 154h101q0 -117 176 -117q178 0 178 117h100q0 -98 -73.5 -154.5 t-204.5 -56.5z" />
<glyph unicode="&#x104;" horiz-adv-x="1393" d="M1178 0l-140 373h-698l-139 -373h-144l561 1434h142l561 -1434h-6q-5 -3 -27 -15.5t-30.5 -17.5t-29.5 -18t-31 -21t-26.5 -21t-25 -24t-18 -24.5t-13.5 -27.5t-4 -28q0 -16 5 -29t11.5 -21.5t20.5 -14t23 -8.5t27.5 -4.5t26.5 -2t28 0t24 0.5l-19 -91q-25 0 -38.5 0.5 t-44.5 3t-51 8t-46.5 16.5t-42 27t-26.5 41.5t-11 57.5q0 61 56 115.5t147 97.5h-22zM688 1305l-305 -818h612z" />
<glyph unicode="&#x105;" horiz-adv-x="1184" d="M872 0v147q-188 -170 -409 -170q-65 0 -124.5 18t-112.5 55.5t-85 106t-32 160.5q0 90 30.5 160t82.5 111.5t116 62.5t137 21q56 0 128.5 -11t164 -30t104.5 -21v135q0 127 -52 186.5t-185 59.5q-83 0 -176 -24.5t-228 -71.5l-49 100q281 103 463 103q354 0 354 -340 v-758h-6q-5 -3 -27 -15.5t-30.5 -17.5t-29.5 -18t-31 -21t-26.5 -21t-25 -24t-18 -24.5t-13.5 -27.5t-4 -28q0 -16 5 -29t11.5 -21.5t20.5 -14t23 -8.5t27.5 -4.5t26.5 -2t28 0t24 0.5l-18 -91q-25 0 -38.5 0.5t-44.5 3t-51 8t-46.5 16.5t-42 27t-26.5 41.5t-11 57.5 q0 61 56 115.5t147 97.5h-7zM487 90q112 0 204 45t181 125v264q-16 3 -69 13.5t-91 17.5t-91.5 13.5t-94.5 6.5q-151 0 -217.5 -70.5t-66.5 -182.5q0 -119 66.5 -175.5t178.5 -56.5z" />
<glyph unicode="&#x106;" horiz-adv-x="1323" d="M1223 1245l-74 -96q-54 37 -95.5 62.5t-104.5 57.5t-127 49t-126 17q-187 0 -303.5 -164.5t-116.5 -453.5t116.5 -454t303.5 -165q62 0 126 17t127 49.5t104 57.5t96 63l74 -97q-65 -44 -117 -75.5t-122.5 -65.5t-144.5 -52t-147 -18q-113 0 -211 43.5t-176 130.5 t-123 232t-45 334t45 334t123 231.5t176 130t211 43.5q73 0 147 -18t144.5 -52t122.5 -65.5t117 -75.5zM735 1540h-110l249 262h197z" />
<glyph unicode="&#x107;" horiz-adv-x="1077" d="M979 954l-64 -96q-4 2 -32.5 19t-47 27.5t-54 27.5t-64.5 27t-65.5 18t-69.5 8q-140 0 -234 -122t-94 -324t94 -325.5t234 -123.5q33 0 69.5 8t65.5 18t64.5 27t54 27.5t47 27.5t32.5 19l64 -96q-42 -25 -57 -34t-66.5 -35.5t-87 -38.5t-89 -24t-101.5 -12 q-91 0 -172 36.5t-145.5 105t-102 177t-37.5 243.5t37.5 243.5t102 176t145.5 103.5t172 36q31 0 64 -5t58.5 -10.5t59 -18.5t52.5 -20.5t51.5 -24.5t42.5 -22.5t41 -23.5t32 -19zM547 1231h-111l250 262h197z" />
<glyph unicode="&#x10a;" horiz-adv-x="1323" d="M1223 1245l-74 -96q-54 37 -95.5 62.5t-104.5 57.5t-127 49t-126 17q-187 0 -303.5 -164.5t-116.5 -453.5t116.5 -454t303.5 -165q62 0 126 17t127 49.5t104 57.5t96 63l74 -97q-65 -44 -117 -75.5t-122.5 -65.5t-144.5 -52t-147 -18q-113 0 -211 43.5t-176 130.5 t-123 232t-45 334t45 334t123 231.5t176 130t211 43.5q73 0 147 -18t144.5 -52t122.5 -65.5t117 -75.5zM627 1561v176h147v-176h-147z" />
<glyph unicode="&#x10b;" horiz-adv-x="1079" d="M979 954l-64 -96q-4 2 -32.5 19t-47 27.5t-54 27.5t-64.5 27t-65.5 18t-69.5 8q-140 0 -234 -122t-94 -324t94 -325.5t234 -123.5q33 0 69.5 8t65.5 18t64.5 27t54 27.5t47 27.5t32.5 19l64 -96q-42 -25 -57 -34t-66.5 -35.5t-87 -38.5t-89 -24t-101.5 -12 q-91 0 -172 36.5t-145.5 105t-102 177t-37.5 243.5t37.5 243.5t102 176t145.5 103.5t172 36q31 0 64 -5t58.5 -10.5t59 -18.5t52.5 -20.5t51.5 -24.5t42.5 -22.5t41 -23.5t32 -19zM506 1251v176h147v-176h-147z" />
<glyph unicode="&#x10c;" horiz-adv-x="1323" d="M1223 1245l-74 -96q-54 37 -95.5 62.5t-104.5 57.5t-127 49t-126 17q-187 0 -303.5 -164.5t-116.5 -453.5t116.5 -454t303.5 -165q62 0 126 17t127 49.5t104 57.5t96 63l74 -97q-65 -44 -117 -75.5t-122.5 -65.5t-144.5 -52t-147 -18q-113 0 -211 43.5t-176 130.5 t-123 232t-45 334t45 334t123 231.5t176 130t211 43.5q73 0 147 -18t144.5 -52t122.5 -65.5t117 -75.5zM1006 1802l-201 -262h-166l-199 262h103l178 -182l180 182h105z" />
<glyph unicode="&#x10d;" horiz-adv-x="1079" d="M979 954l-64 -96q-4 2 -32.5 19t-47 27.5t-54 27.5t-64.5 27t-65.5 18t-69.5 8q-140 0 -234 -122t-94 -324t94 -325.5t234 -123.5q33 0 69.5 8t65.5 18t64.5 27t54 27.5t47 27.5t32.5 19l64 -96q-42 -25 -57 -34t-66.5 -35.5t-87 -38.5t-89 -24t-101.5 -12 q-91 0 -172 36.5t-145.5 105t-102 177t-37.5 243.5t37.5 243.5t102 176t145.5 103.5t172 36q31 0 64 -5t58.5 -10.5t59 -18.5t52.5 -20.5t51.5 -24.5t42.5 -22.5t41 -23.5t32 -19zM864 1493l-200 -262h-166l-199 262h102l179 -182l180 182h104z" />
<glyph unicode="&#x10e;" horiz-adv-x="1440" d="M1288 717q0 -717 -661 -717h-420v1434h420q661 0 661 -717zM1147 717q0 309 -126 454.5t-398 145.5h-283v-1200h283q272 0 398 145.5t126 454.5zM1030 1802l-201 -262h-165l-199 262h102l178 -182l181 182h104z" />
<glyph unicode="&#x10f;" horiz-adv-x="1278" d="M1044 0h-126v145q-181 -168 -388 -168q-86 0 -157.5 32t-128.5 97t-89 175t-32 256t32 256.5t89 175.5t128.5 97t157.5 32q205 0 388 -170v565h126v-1493zM545 88q105 0 202.5 51.5t170.5 130.5v533q-72 80 -169.5 132t-203.5 52q-142 0 -215.5 -118.5t-73.5 -331.5 q0 -211 73.5 -330t215.5 -119zM1174 1311v182h143l18 -186l-131 -222l-47 48l84 178h-67z" />
<glyph unicode="&#x110;" horiz-adv-x="1446" d="M1296 717q0 -717 -661 -717h-420v659h-156v115h156v660h420q661 0 661 -717zM1155 717q0 309 -126 454.5t-398 145.5h-283v-543h359v-115h-359v-542h283q272 0 398 145.5t126 454.5z" />
<glyph unicode="&#x111;" horiz-adv-x="1237" d="M571 1227v94h347v172h126v-172h138v-94h-138v-1227h-126v145q-181 -168 -388 -168q-86 0 -157.5 32t-128.5 97t-89 175t-32 256t32 256.5t89 175.5t128.5 97t157.5 32q205 0 388 -170v299h-347zM545 88q105 0 202.5 51.5t170.5 130.5v533q-72 80 -169.5 132t-203.5 52 q-142 0 -215.5 -118.5t-73.5 -331.5q0 -211 73.5 -330t215.5 -119z" />
<glyph unicode="&#x112;" horiz-adv-x="1221" d="M1094 0h-887v1434h874v-117h-741v-543h614v-115h-614v-542h754v-117zM356 1591v95h588v-95h-588z" />
<glyph unicode="&#x113;" horiz-adv-x="1186" d="M1036 502h-782q9 -189 100 -303.5t230 -114.5q55 0 113.5 14t115.5 41t92 46t82 48l68 -88q-6 -3 -17 -10q-56 -33 -92.5 -52.5t-101 -48t-131 -43t-133.5 -14.5q-94 0 -177 36.5t-146.5 105t-100.5 177t-37 243.5q0 265 136 412t351 147q210 0 325.5 -128.5 t115.5 -334.5q0 -34 -2.5 -67t-5.5 -50zM604 993q-151 0 -243.5 -108t-104.5 -291h662q4 204 -78 301.5t-236 97.5zM315 1282v94h588v-94h-588z" />
<glyph unicode="&#x116;" horiz-adv-x="1221" d="M1094 0h-887v1434h874v-117h-741v-543h614v-115h-614v-542h754v-117zM575 1561v176h148v-176h-148z" />
<glyph unicode="&#x117;" horiz-adv-x="1186" d="M1036 502h-782q9 -189 100 -303.5t230 -114.5q55 0 113.5 14t115.5 41t92 46t82 48l68 -88q-6 -3 -17 -10q-56 -33 -92.5 -52.5t-101 -48t-131 -43t-133.5 -14.5q-94 0 -177 36.5t-146.5 105t-100.5 177t-37 243.5q0 265 136 412t351 147q210 0 325.5 -128.5 t115.5 -334.5q0 -34 -2.5 -67t-5.5 -50zM604 993q-151 0 -243.5 -108t-104.5 -291h662q4 204 -78 301.5t-236 97.5zM530 1251v176h148v-176h-148z" />
<glyph unicode="&#x118;" horiz-adv-x="1221" d="M885 -197q0 -16 5 -29t11.5 -21.5t20.5 -14t23 -8.5t27.5 -4.5t26.5 -2t28 0t24 0.5l-19 -91q-25 0 -38.5 0.5t-44.5 3t-51 8t-46.5 16.5t-42 27t-26.5 41.5t-11 57.5q0 61 56 115.5t147 97.5h-768v1434h874v-117h-741v-543h614v-115h-614v-542h754v-117h-4 q-5 -3 -27 -15.5t-30.5 -17.5t-29.5 -18t-31 -21t-26.5 -21t-25 -24t-18 -24.5t-13.5 -27.5t-4 -28z" />
<glyph unicode="&#x119;" horiz-adv-x="1188" d="M530 -197q0 -16 5 -29t11.5 -21.5t20.5 -14t23 -8.5t27.5 -4.5t26.5 -2t28 0t24 0.5l-18 -91q-25 0 -38.5 0.5t-44.5 3t-51 8t-46.5 16.5t-42 27t-26.5 41.5t-11 57.5q0 101 160 190q-94 1 -176.5 37.5t-146 104.5t-100 176.5t-36.5 243.5q0 265 136 412t351 147 q210 0 325.5 -128.5t115.5 -334.5q0 -34 -2.5 -67t-5.5 -50l-3 -16h-782q9 -189 100 -303.5t230 -114.5q55 0 113.5 14t115.5 41t92 46t82 48l68 -88q-2 -1 -34 -20t-42.5 -24.5t-41 -22t-49.5 -25t-48 -21t-56 -21t-55 -15.5q-4 -2 -24 -13.5t-27 -15.5t-26 -16t-27 -18 l-24 -18t-23.5 -20t-18.5 -20.5t-16 -23t-9 -23t-4 -25.5zM604 993q-151 0 -243.5 -108t-104.5 -291h662q4 204 -78 301.5t-236 97.5z" />
<glyph unicode="&#x11a;" horiz-adv-x="1221" d="M1094 0h-887v1434h874v-117h-741v-543h614v-115h-614v-542h754v-117zM934 1784l-201 -262h-166l-198 262h102l178 -182l180 182h105z" />
<glyph unicode="&#x11b;" horiz-adv-x="1186" d="M1036 502h-782q9 -189 100 -303.5t230 -114.5q55 0 113.5 14t115.5 41t92 46t82 48l68 -88q-6 -3 -17 -10q-56 -33 -92.5 -52.5t-101 -48t-131 -43t-133.5 -14.5q-94 0 -177 36.5t-146.5 105t-100.5 177t-37 243.5q0 265 136 412t351 147q210 0 325.5 -128.5 t115.5 -334.5q0 -34 -2.5 -67t-5.5 -50zM604 993q-151 0 -243.5 -108t-104.5 -291h662q4 204 -78 301.5t-236 97.5zM889 1493l-201 -262h-166l-198 262h102l178 -182l180 182h105z" />
<glyph unicode="&#x11e;" horiz-adv-x="1442" d="M1143 0v178q-239 -201 -457 -201q-111 0 -207.5 43.5t-174 130.5t-122.5 232.5t-45 333.5q0 152 30 276t81.5 209t122.5 143t151.5 84.5t169.5 26.5q149 0 284.5 -62.5t270.5 -162.5l-78 -98q-63 44 -98 66.5t-104.5 60.5t-136 56.5t-132.5 18.5q-187 0 -304.5 -165 t-117.5 -453q0 -287 116.5 -455t305.5 -168q196 0 445 225v336h-416v113h547v-768h-131zM705 1540q-130 0 -203.5 57t-73.5 154h100q0 -117 177 -117q178 0 178 117h100q0 -98 -73.5 -154.5t-204.5 -56.5z" />
<glyph unicode="&#x11f;" horiz-adv-x="1239" d="M918 1075h126v-1157q0 -356 -391 -356q-100 0 -232 20t-249 53q17 70 31 113q274 -78 440 -78q136 0 205.5 58.5t69.5 187.5v229q-181 -168 -388 -168q-86 0 -157.5 32t-128.5 97t-89 175t-32 256t32 256.5t89 175.5t128.5 97t157.5 32q205 0 388 -170v147zM545 88 q105 0 202.5 51.5t170.5 130.5v533q-72 80 -169.5 132t-203.5 52q-142 0 -215.5 -118.5t-73.5 -331.5q0 -211 73.5 -330t215.5 -119zM608 1231q-130 0 -203 57t-73 154h100q0 -117 176 -117q178 0 178 117h101q0 -97 -74 -154t-205 -57z" />
<glyph unicode="&#x120;" horiz-adv-x="1442" d="M1143 0v178q-239 -201 -457 -201q-111 0 -207.5 43.5t-174 130.5t-122.5 232.5t-45 333.5q0 152 30 276t81.5 209t122.5 143t151.5 84.5t169.5 26.5q149 0 284.5 -62.5t270.5 -162.5l-78 -98q-63 44 -98 66.5t-104.5 60.5t-136 56.5t-132.5 18.5q-187 0 -304.5 -165 t-117.5 -453q0 -287 116.5 -455t305.5 -168q196 0 445 225v336h-416v113h547v-768h-131zM629 1561v176h147v-176h-147z" />
<glyph unicode="&#x121;" horiz-adv-x="1239" d="M918 1075h126v-1157q0 -356 -391 -356q-100 0 -232 20t-249 53q17 70 31 113q274 -78 440 -78q136 0 205.5 58.5t69.5 187.5v229q-181 -168 -388 -168q-86 0 -157.5 32t-128.5 97t-89 175t-32 256t32 256.5t89 175.5t128.5 97t157.5 32q205 0 388 -170v147zM545 88 q105 0 202.5 51.5t170.5 130.5v533q-72 80 -169.5 132t-203.5 52q-142 0 -215.5 -118.5t-73.5 -331.5q0 -211 73.5 -330t215.5 -119zM535 1251v176h147v-176h-147z" />
<glyph unicode="&#x122;" horiz-adv-x="1442" d="M1143 0v178q-239 -201 -457 -201q-111 0 -207.5 43.5t-174 130.5t-122.5 232.5t-45 333.5q0 152 30 276t81.5 209t122.5 143t151.5 84.5t169.5 26.5q149 0 284.5 -62.5t270.5 -162.5l-78 -98q-63 44 -98 66.5t-104.5 60.5t-136 56.5t-132.5 18.5q-187 0 -304.5 -165 t-117.5 -453q0 -287 116.5 -455t305.5 -168q196 0 445 225v336h-416v113h547v-768h-131zM676 -315v182h143l19 -186l-131 -222l-48 47l84 179h-67z" />
<glyph unicode="&#x123;" horiz-adv-x="1239" d="M918 1075h126v-1157q0 -356 -391 -356q-100 0 -232 20t-249 53q17 70 31 113q274 -78 440 -78q136 0 205.5 58.5t69.5 187.5v229q-181 -168 -388 -168q-86 0 -157.5 32t-128.5 97t-89 175t-32 256t32 256.5t89 175.5t128.5 97t157.5 32q205 0 388 -170v147zM545 88 q105 0 202.5 51.5t170.5 130.5v533q-72 80 -169.5 132t-203.5 52q-142 0 -215.5 -118.5t-73.5 -331.5q0 -211 73.5 -330t215.5 -119zM680 1434v-183h-143l-19 187l131 221l47 -47l-84 -178h68z" />
<glyph unicode="&#x126;" horiz-adv-x="1473" d="M59 1067v94h156v273h133v-273h764v273h133v-273h154v-94h-154v-1067h-133v694h-764v-694h-133v1067h-156zM348 809h764v258h-764v-258z" />
<glyph unicode="&#x127;" horiz-adv-x="1241" d="M305 1493v-172h348v-94h-348v-312q37 28 78.5 54t103.5 58t133.5 51.5t137.5 19.5q84 0 144.5 -26.5t93 -74t47 -103t14.5 -124.5v-770h-127v750q0 53 -9 94t-31 75t-62.5 52t-98.5 18q-108 0 -230.5 -62.5t-193.5 -127.5v-799h-127v1227h-137v94h137v172h127z" />
<glyph unicode="&#x128;" horiz-adv-x="567" d="M342 0h-133v1434h133v-1434zM51 1565l-80 32q42 81 81 119.5t98 38.5q43 0 91.5 -24.5t90.5 -49t69 -24.5q26 0 48 18t53 76l80 -33q-40 -80 -79.5 -119.5t-99.5 -39.5q-43 0 -91.5 25t-90.5 50t-69 25q-26 0 -48 -18.5t-53 -75.5z" />
<glyph unicode="&#x129;" horiz-adv-x="508" d="M311 0h-127v1075h127v-1075zM20 1255l-79 33q42 81 80.5 119.5t97.5 38.5q43 0 92 -24.5t91 -49t69 -24.5q26 0 47.5 18t52.5 76l80 -33q-40 -81 -79.5 -120.5t-98.5 -39.5q-43 0 -92 25.5t-91 50.5t-69 25q-26 0 -47.5 -18.5t-53.5 -76.5z" />
<glyph unicode="&#x12a;" horiz-adv-x="567" d="M342 0h-133v1434h133v-1434zM-18 1591v95h587v-95h-587z" />
<glyph unicode="&#x12b;" horiz-adv-x="512" d="M313 0h-127v1075h127v-1075zM-45 1282v94h588v-94h-588z" />
<glyph unicode="&#x12c;" horiz-adv-x="565" d="M340 0h-133v1434h133v-1434zM274 1540q-130 0 -203 57t-73 154h100q0 -117 176 -117q179 0 179 117h100q0 -97 -74 -154t-205 -57z" />
<glyph unicode="&#x12d;" horiz-adv-x="504" d="M307 0h-127v1075h127v-1075zM242 1231q-130 0 -203.5 57t-73.5 154h101q0 -117 176 -117q178 0 178 117h100q0 -98 -73.5 -154.5t-204.5 -56.5z" />
<glyph unicode="&#x12e;" horiz-adv-x="565" d="M133 -197q0 -16 5 -29t11.5 -21.5t20.5 -14t23 -8.5t27.5 -4.5t26.5 -2t28 0t24 0.5l-18 -91q-25 0 -38.5 0.5t-45 3t-51 8t-46 16.5t-42 27t-27 41.5t-11.5 57.5q0 61 56 115.5t147 97.5h-14v1434h133v-1434h-4q-5 -3 -27 -15.5t-30.5 -17.5t-29.5 -18t-31 -21 t-26.5 -21t-25 -24t-18 -24.5t-13.5 -27.5t-4 -28z" />
<glyph unicode="&#x12f;" horiz-adv-x="502" d="M98 -197q0 -16 5 -29t11.5 -21.5t20.5 -14t23 -8.5t27.5 -4.5t26.5 -2t28 0t24 0.5l-18 -91q-25 0 -38.5 0.5t-44.5 3t-51 8t-46.5 16.5t-42 27t-26.5 41.5t-11 57.5q0 61 55.5 115.5t146.5 97.5h-6v1075h127v-1075h-6q-5 -3 -27 -15.5t-30.5 -17.5t-29.5 -18t-31 -21 t-26.5 -21t-25 -24t-18 -24.5t-13.5 -27.5t-4 -28zM172 1309v178h147v-178h-147z" />
<glyph unicode="&#x130;" horiz-adv-x="563" d="M340 0h-133v1434h133v-1434zM201 1561v176h147v-176h-147z" />
<glyph unicode="&#x131;" horiz-adv-x="502" d="M307 0h-127v1075h127v-1075z" />
<glyph unicode="&#x132;" horiz-adv-x="1116" d="M340 0h-133v1434h133v-1434zM895 1434v-1354q0 -66 -1.5 -95t-11 -71.5t-29 -62.5t-56.5 -47t-93 -46t-139 -41l-45 105l79.5 26.5t59 24.5t43 22t28 25t18 27t8.5 35t3.5 41t0.5 53v1358h135z" />
<glyph unicode="&#x133;" horiz-adv-x="987" d="M305 0h-127v1075h127v-1075zM170 1309v178h147v-178h-147zM659 1309v178h148v-178h-148zM797 1075v-1138q0 -66 -1.5 -95t-10.5 -71.5t-28.5 -62.5t-56 -47t-92 -46t-137.5 -41l-43 100l79.5 26.5t59 24.5t43 22t28.5 25t18 27t8.5 35.5t3.5 42.5v55v1143h129z" />
<glyph unicode="&#x134;" horiz-adv-x="565" d="M344 1434v-1354q0 -66 -1.5 -95t-11 -71.5t-29 -62.5t-56.5 -47t-93 -46t-139 -41l-45 105l79.5 26.5t59 24.5t43 22t28 25t18 27t8.5 35t3.5 41t0.5 53v1358h135zM360 1802l201 -262h-104l-181 184l-178 -184h-102l199 262h165z" />
<glyph unicode="&#x135;" horiz-adv-x="506" d="M311 1075v-1138q0 -128 -13 -172q-21 -72 -102 -116q-68 -38 -210 -75l-43 100q48 16 79 26.5t59 24.5l43 21.5t28 25t18 27t8.5 35t3.5 42v54.5v2v1143h129zM330 1493l200 -262h-104l-180 184l-178 -184h-103l199 262h166z" />
<glyph unicode="&#x136;" horiz-adv-x="1325" d="M207 0v1434h133v-846l709 846h161l-585 -693l655 -741h-164l-571 649l-205 -241v-408h-133zM584 -315v182h143l18 -186l-131 -222l-47 47l84 179h-67z" />
<glyph unicode="&#x137;" horiz-adv-x="1065" d="M940 1075l-362 -436l430 -639h-140l-368 547l-193 -232v-315h-127v1493h127v-1026l486 608h147zM475 -315v182h143l19 -186l-131 -222l-47 47l84 179h-68z" />
<glyph unicode="&#x138;" horiz-adv-x="1065" d="M940 1075l-362 -436l430 -639h-140l-368 547l-193 -232v-315h-127v1075h127v-608l486 608h147z" />
<glyph unicode="&#x139;" horiz-adv-x="1127" d="M1057 0h-852v1434h133v-1317h719v-117zM240 1540h-111l250 262h196z" />
<glyph unicode="&#x13a;" horiz-adv-x="527" d="M317 0h-127v1493h127v-1493zM221 1599h-110l249 263h197z" />
<glyph unicode="&#x13b;" horiz-adv-x="1127" d="M1059 0h-852v1434h133v-1317h719v-117zM559 -315v182h143l19 -186l-131 -222l-47 47l84 179h-68z" />
<glyph unicode="&#x13c;" horiz-adv-x="527" d="M324 0h-127v1493h127v-1493zM188 -315v182h144l18 -186l-131 -222l-47 47l84 179h-68z" />
<glyph unicode="&#x13d;" horiz-adv-x="1127" d="M1059 0h-852v1434h133v-1317h719v-117zM469 1251v183h143l19 -187l-131 -221l-47 47l84 178h-68z" />
<glyph unicode="&#x13e;" horiz-adv-x="551" d="M317 0h-127v1493h127v-1493zM446 1311v182h144l18 -186l-131 -222l-47 48l84 178h-68z" />
<glyph unicode="&#x13f;" horiz-adv-x="1131" d="M1059 0h-852v1434h133v-1317h719v-117zM780 651v176h148v-176h-148z" />
<glyph unicode="&#x140;" horiz-adv-x="567" d="M317 0h-127v1493h127v-1493zM444 651v176h148v-176h-148z" />
<glyph unicode="&#x141;" horiz-adv-x="1135" d="M1067 0h-852v573l-152 -81v133l152 84v725h133v-652l283 156v-135l-283 -156v-530h719v-117z" />
<glyph unicode="&#x142;" horiz-adv-x="553" d="M336 0h-129v643l-144 -78v133l144 80v715h129v-643l141 78v-135l-141 -78v-715z" />
<glyph unicode="&#x143;" horiz-adv-x="1491" d="M1130 0l-790 1235v-1235h-133v1434h139l791 -1235v1235h133v-1434h-140zM715 1540h-111l250 262h197z" />
<glyph unicode="&#x144;" d="M307 1075v-160q37 28 78.5 54t103.5 58t133.5 51.5t137.5 19.5q84 0 144.5 -26.5t93 -74t47 -103t14.5 -124.5v-770h-127v750q0 53 -9 94t-31 75t-62.5 52t-98.5 18q-108 0 -230.5 -62.5t-193.5 -127.5v-799h-127v1075h127zM584 1231h-111l250 262h197z" />
<glyph unicode="&#x145;" horiz-adv-x="1491" d="M1130 0l-790 1235v-1235h-133v1434h139l791 -1235v1235h133v-1434h-140zM680 -315v182h143l19 -186l-131 -222l-47 47l84 179h-68z" />
<glyph unicode="&#x146;" d="M307 1075v-160q37 28 78.5 54t103.5 58t133.5 51.5t137.5 19.5q84 0 144.5 -26.5t93 -74t47 -103t14.5 -124.5v-770h-127v750q0 53 -9 94t-31 75t-62.5 52t-98.5 18q-108 0 -230.5 -62.5t-193.5 -127.5v-799h-127v1075h127zM547 -315v182h143l19 -186l-131 -222l-48 47 l84 179h-67z" />
<glyph unicode="&#x147;" horiz-adv-x="1491" d="M1130 0l-790 1235v-1235h-133v1434h139l791 -1235v1235h133v-1434h-140zM1034 1802l-200 -262h-166l-199 262h102l179 -182l180 182h104z" />
<glyph unicode="&#x148;" d="M307 1075v-160q37 28 78.5 54t103.5 58t133.5 51.5t137.5 19.5q84 0 144.5 -26.5t93 -74t47 -103t14.5 -124.5v-770h-127v750q0 53 -9 94t-31 75t-62.5 52t-98.5 18q-108 0 -230.5 -62.5t-193.5 -127.5v-799h-127v1075h127zM897 1493l-201 -262h-166l-198 262h102 l178 -182l181 182h104z" />
<glyph unicode="&#x149;" d="M307 1075v-160q37 28 78.5 54t103.5 58t133.5 51.5t137.5 19.5q84 0 144.5 -26.5t93 -74t47 -103t14.5 -124.5v-770h-127v750q0 53 -9 94t-31 75t-62.5 52t-98.5 18q-108 0 -230.5 -62.5t-193.5 -127.5v-799h-127v1075h127zM180 1413v182h144l18 -186l-131 -221l-47 47 l84 178h-68z" />
<glyph unicode="&#x14a;" horiz-adv-x="1493" d="M1270 1434v-1364q0 -63 -1.5 -92t-11 -69.5t-29 -60t-56 -45.5t-91.5 -45t-137 -41l-49 105q146 46 190 77t50 95l-795 1241v-1235h-133v1434h139l791 -1235v1235h133z" />
<glyph unicode="&#x14b;" d="M1059 770v-836q0 -66 -1.5 -94.5t-11 -70.5t-28.5 -61.5t-56 -46t-91.5 -46t-137.5 -41.5l-43 100q50 16 80.5 26.5t59 25t43.5 22t28.5 24.5t18 26.5t8.5 35.5t4 42.5v55.5v818q0 53 -9 94t-31 75t-62.5 52t-98.5 18q-108 0 -230.5 -62.5t-193.5 -127.5v-799h-127v1075 h127v-160q37 28 78.5 54t103.5 58t133.5 51.5t137.5 19.5q84 0 144.5 -26.5t93 -74t47 -103t14.5 -124.5z" />
<glyph unicode="&#x14c;" horiz-adv-x="1510" d="M748 1456q131 0 234.5 -38t173 -104.5t115.5 -160.5t66.5 -202t20.5 -234q0 -124 -20.5 -232t-66.5 -202.5t-115.5 -161.5t-173.5 -105.5t-234 -38.5t-234 38.5t-174 105.5t-116 161.5t-66.5 202.5t-20.5 232q0 126 20.5 234t66.5 202t116 160.5t173.5 104.5t234.5 38z M748 96q104 0 185.5 32t135 87t88.5 135t49.5 170t14.5 197q0 134 -24.5 242t-78 195t-147.5 135t-223 48t-223 -48t-147 -135t-77.5 -195t-24.5 -242q0 -107 14.5 -197t49 -170t88 -135t135 -87t185.5 -32zM453 1591v95h587v-95h-587z" />
<glyph unicode="&#x14d;" horiz-adv-x="1241" d="M1102 537q0 -263 -127.5 -411.5t-362.5 -148.5q-236 0 -362.5 148.5t-126.5 411.5t126.5 412t362.5 149q235 0 362.5 -149t127.5 -412zM971 537q0 213 -88 332.5t-271 119.5q-182 0 -269 -119.5t-87 -332.5t87 -332t269 -119q183 0 271 119t88 332zM319 1282v94h588v-94 h-588z" />
<glyph unicode="&#x14e;" horiz-adv-x="1510" d="M748 1456q131 0 234.5 -38t173 -104.5t115.5 -160.5t66.5 -202t20.5 -234q0 -124 -20.5 -232t-66.5 -202.5t-115.5 -161.5t-173.5 -105.5t-234 -38.5t-234 38.5t-174 105.5t-116 161.5t-66.5 202.5t-20.5 232q0 126 20.5 234t66.5 202t116 160.5t173.5 104.5t234.5 38z M748 96q104 0 185.5 32t135 87t88.5 135t49.5 170t14.5 197q0 134 -24.5 242t-78 195t-147.5 135t-223 48t-223 -48t-147 -135t-77.5 -195t-24.5 -242q0 -107 14.5 -197t49 -170t88 -135t135 -87t185.5 -32zM743 1540q-130 0 -203 57t-73 154h100q0 -117 176 -117 q179 0 179 117h100q0 -97 -74 -154t-205 -57z" />
<glyph unicode="&#x14f;" horiz-adv-x="1241" d="M1102 537q0 -263 -127.5 -411.5t-362.5 -148.5q-236 0 -362.5 148.5t-126.5 411.5t126.5 412t362.5 149q235 0 362.5 -149t127.5 -412zM971 537q0 213 -88 332.5t-271 119.5q-182 0 -269 -119.5t-87 -332.5t87 -332t269 -119q183 0 271 119t88 332zM612 1231 q-130 0 -203 57t-73 154h100q0 -117 176 -117q179 0 179 117h100q0 -97 -74 -154t-205 -57z" />
<glyph unicode="&#x150;" horiz-adv-x="1510" d="M748 1456q131 0 234.5 -38t173 -104.5t115.5 -160.5t66.5 -202t20.5 -234q0 -124 -20.5 -232t-66.5 -202.5t-115.5 -161.5t-173.5 -105.5t-234 -38.5t-234 38.5t-174 105.5t-116 161.5t-66.5 202.5t-20.5 232q0 126 20.5 234t66.5 202t116 160.5t173.5 104.5t234.5 38z M748 96q104 0 185.5 32t135 87t88.5 135t49.5 170t14.5 197q0 134 -24.5 242t-78 195t-147.5 135t-223 48t-223 -48t-147 -135t-77.5 -195t-24.5 -242q0 -107 14.5 -197t49 -170t88 -135t135 -87t185.5 -32zM899 1540h-82l156 262h172zM608 1540h-88l160 262h172z" />
<glyph unicode="&#x151;" horiz-adv-x="1241" d="M1102 537q0 -263 -127.5 -411.5t-362.5 -148.5q-236 0 -362.5 148.5t-126.5 411.5t126.5 412t362.5 149q235 0 362.5 -149t127.5 -412zM971 537q0 213 -88 332.5t-271 119.5q-182 0 -269 -119.5t-87 -332.5t87 -332t269 -119q183 0 271 119t88 332zM762 1231h-82l156 262 h172zM471 1231h-88l160 262h172z" />
<glyph unicode="&#x152;" horiz-adv-x="2237" d="M2111 0h-886v201q-157 -224 -477 -224q-130 0 -234 38.5t-174 105.5t-116 161.5t-66.5 202.5t-20.5 232q0 126 20.5 234t66.5 202t116 160.5t173.5 104.5t234.5 38q321 0 477 -223v201h874v-117h-741v-543h614v-115h-614v-542h753v-117zM748 96q104 0 185.5 32t135 87 t88.5 135t49.5 170t14.5 197q0 134 -24.5 242t-78 195t-147.5 135t-223 48t-223 -48t-147 -135t-77.5 -195t-24.5 -242q0 -107 14.5 -197t49 -170t88 -135t135 -87t185.5 -32z" />
<glyph unicode="&#x153;" horiz-adv-x="2038" d="M1890 502h-782q9 -189 100 -303.5t230 -114.5q55 0 113.5 14t115.5 41t92 46t82 48l68 -88q-6 -3 -17 -10q-56 -33 -92.5 -52.5t-101 -48t-131 -43t-133.5 -14.5q-126 0 -231 64t-165 184q-58 -120 -166 -184t-260 -64q-236 0 -362.5 148.5t-126.5 411.5t126.5 412 t362.5 149q152 0 260 -65t166 -185q62 122 172 186t250 64q210 0 325.5 -128.5t115.5 -334.5q0 -34 -2.5 -67t-5.5 -50zM971 537q0 213 -88 332.5t-271 119.5q-182 0 -269 -119.5t-87 -332.5t87 -332t269 -119q183 0 271 119t88 332zM1458 993q-151 0 -243.5 -108 t-104.5 -291h662q4 204 -78 301.5t-236 97.5z" />
<glyph unicode="&#x154;" horiz-adv-x="1399" d="M1112 0l-385 625h-387v-625h-133v1434h532q90 0 166.5 -12.5t143.5 -42.5t113 -75.5t73 -115t27 -158.5q0 -95 -30.5 -168.5t-86 -120.5t-126.5 -73.5t-159 -36.5l404 -631h-152zM1124 1030q0 150 -101.5 219.5t-274.5 69.5h-408v-580h397q87 0 156 16t121.5 50t81 91 t28.5 134zM700 1540h-110l250 262h196z" />
<glyph unicode="&#x155;" horiz-adv-x="785" d="M307 1075v-231q6 16 19.5 40.5t48 64.5t77.5 71t113.5 52t151.5 15v-122q-75 0 -138 -18.5t-104 -48.5t-73 -66t-49.5 -72t-28.5 -66t-14 -48l-3 -19v-627h-127v1075h127zM414 1231h-111l250 262h197z" />
<glyph unicode="&#x156;" horiz-adv-x="1399" d="M1112 0l-385 625h-387v-625h-133v1434h532q90 0 166.5 -12.5t143.5 -42.5t113 -75.5t73 -115t27 -158.5q0 -95 -30.5 -168.5t-86 -120.5t-126.5 -73.5t-159 -36.5l404 -631h-152zM1124 1030q0 150 -101.5 219.5t-274.5 69.5h-408v-580h397q87 0 156 16t121.5 50t81 91 t28.5 134zM621 -315v182h143l18 -186l-131 -222l-47 47l84 179h-67z" />
<glyph unicode="&#x157;" horiz-adv-x="789" d="M311 1075v-231q6 16 19.5 40.5t48 64.5t77.5 71t113.5 52t151.5 15v-122q-75 0 -138 -18.5t-104 -48.5t-73 -66t-49.5 -72t-28.5 -66t-14 -48l-3 -19v-627h-127v1075h127zM176 -315v182h143l19 -186l-131 -222l-47 47l84 179h-68z" />
<glyph unicode="&#x158;" horiz-adv-x="1399" d="M1112 0l-385 625h-387v-625h-133v1434h532q90 0 166.5 -12.5t143.5 -42.5t113 -75.5t73 -115t27 -158.5q0 -95 -30.5 -168.5t-86 -120.5t-126.5 -73.5t-159 -36.5l404 -631h-152zM1124 1030q0 150 -101.5 219.5t-274.5 69.5h-408v-580h397q87 0 156 16t121.5 50t81 91 t28.5 134zM1018 1802l-201 -262h-166l-198 262h102l178 -182l180 182h105z" />
<glyph unicode="&#x159;" horiz-adv-x="785" d="M307 1075v-231q6 16 19.5 40.5t48 64.5t77.5 71t113.5 52t151.5 15v-122q-75 0 -138 -18.5t-104 -48.5t-73 -66t-49.5 -72t-28.5 -66t-14 -48l-3 -19v-627h-127v1075h127zM731 1493l-201 -262h-165l-199 262h102l178 -182l181 182h104z" />
<glyph unicode="&#x15a;" horiz-adv-x="1233" d="M655 799q55 -18 94 -31.5t92 -37t89.5 -46.5t76.5 -57t64 -71.5t39.5 -88t15.5 -107.5q0 -95 -40 -170t-107.5 -120.5t-150 -69t-173.5 -23.5q-141 0 -291 50t-262 118l66 103q106 -63 240 -108.5t251 -45.5q137 0 234.5 67t97.5 191q0 39 -12 74t-30.5 61.5t-52 52 t-65 44t-81.5 39t-90 35t-101 34.5q-52 16 -87.5 28.5t-84 33t-80.5 41t-67.5 51t-56.5 64t-34.5 79t-13.5 98.5q0 117 61 202t159 126t220 41q119 0 255 -37.5t237 -91.5l-63 -102q-96 50 -214.5 82t-211.5 32q-83 0 -150.5 -24.5t-112.5 -81t-45 -137.5q0 -49 20 -89 t44 -65t78.5 -51.5t89.5 -39.5t111 -38q28 -9 42 -14zM578 1540h-111l250 262h196z" />
<glyph unicode="&#x15b;" horiz-adv-x="1049" d="M547 604q200 -54 294.5 -129.5t94.5 -204.5q0 -74 -31 -131.5t-85 -92t-120.5 -52t-142.5 -17.5q-120 0 -241 38.5t-214 90.5l60 97q87 -49 193.5 -84t195.5 -35q103 0 180.5 46.5t77.5 133.5q0 24 -7.5 46t-17.5 38.5t-31 33.5t-35 27.5t-45 24t-45.5 20t-50.5 17.5 t-47 14t-47 13q-43 12 -72 21t-70 24.5t-68.5 31.5t-57.5 40t-48 51.5t-30 64.5t-12 80q0 136 101.5 211.5t262.5 75.5q188 0 402 -107l-60 -92q-188 92 -342 92q-103 0 -170 -45.5t-67 -126.5q0 -28 10 -53t23 -42.5t38 -34t44 -26.5t52.5 -21.5t51 -16.5t50.5 -14 q18 -5 26 -7zM485 1231h-110l250 262h196z" />
<glyph unicode="&#x15c;" horiz-adv-x="1233" d="M655 799q55 -18 94 -31.5t92 -37t89.5 -46.5t76.5 -57t64 -71.5t39.5 -88t15.5 -107.5q0 -95 -40 -170t-107.5 -120.5t-150 -69t-173.5 -23.5q-141 0 -291 50t-262 118l66 103q106 -63 240 -108.5t251 -45.5q137 0 234.5 67t97.5 191q0 39 -12 74t-30.5 61.5t-52 52 t-65 44t-81.5 39t-90 35t-101 34.5q-52 16 -87.5 28.5t-84 33t-80.5 41t-67.5 51t-56.5 64t-34.5 79t-13.5 98.5q0 117 61 202t159 126t220 41q119 0 255 -37.5t237 -91.5l-63 -102q-96 50 -214.5 82t-211.5 32q-83 0 -150.5 -24.5t-112.5 -81t-45 -137.5q0 -49 20 -89 t44 -65t78.5 -51.5t89.5 -39.5t111 -38q28 -9 42 -14zM696 1802l201 -262h-104l-181 184l-178 -184h-102l198 262h166z" />
<glyph unicode="&#x15d;" horiz-adv-x="1049" d="M547 604q200 -54 294.5 -129.5t94.5 -204.5q0 -74 -31 -131.5t-85 -92t-120.5 -52t-142.5 -17.5q-120 0 -241 38.5t-214 90.5l60 97q87 -49 193.5 -84t195.5 -35q103 0 180.5 46.5t77.5 133.5q0 24 -7.5 46t-17.5 38.5t-31 33.5t-35 27.5t-45 24t-45.5 20t-50.5 17.5 t-47 14t-47 13q-43 12 -72 21t-70 24.5t-68.5 31.5t-57.5 40t-48 51.5t-30 64.5t-12 80q0 136 101.5 211.5t262.5 75.5q188 0 402 -107l-60 -92q-188 92 -342 92q-103 0 -170 -45.5t-67 -126.5q0 -28 10 -53t23 -42.5t38 -34t44 -26.5t52.5 -21.5t51 -16.5t50.5 -14 q18 -5 26 -7zM604 1493l201 -262h-105l-180 184l-178 -184h-102l198 262h166z" />
<glyph unicode="&#x15e;" horiz-adv-x="1233" d="M420 -307l37 86q62 -29 106 -29q55 0 87 24.5t32 75.5q0 54 -45 127q-138 4 -283 53.5t-252 114.5l66 103q106 -63 240 -108.5t251 -45.5q137 0 234.5 67t97.5 191q0 39 -12 74t-30.5 61.5t-52 52t-65 44t-81.5 39t-90 35t-101 34.5q-52 16 -87.5 28.5t-84 33t-80.5 41 t-67.5 51t-56.5 64t-34.5 79t-13.5 98.5q0 117 61 202t159 126t220 41q119 0 255 -37.5t237 -91.5l-63 -102q-96 50 -214.5 82t-211.5 32q-83 0 -150.5 -24.5t-112.5 -81t-45 -137.5q0 -49 20 -89t44 -65t78.5 -51.5t89.5 -39.5t111 -38q28 -9 42 -14q55 -18 94 -31.5 t92 -37t89.5 -46.5t76.5 -57t64 -71.5t39.5 -88t15.5 -107.5q0 -88 -34 -158.5t-93 -116t-132 -72t-156 -33.5q63 -78 63 -160q0 -76 -55 -120t-144 -44q-80 0 -155 37z" />
<glyph unicode="&#x15f;" horiz-adv-x="1049" d="M311 -307l37 86q62 -29 107 -29q55 0 86.5 24.5t31.5 75.5q0 58 -45 130q-114 4 -228 41t-198 85l60 97q87 -49 193.5 -84t195.5 -35q103 0 180.5 46.5t77.5 133.5q0 24 -7.5 46t-17.5 38.5t-31 33.5t-35 27.5t-45 24t-45.5 20t-50.5 17.5t-47 14t-47 13q-43 12 -72 21 t-70 24.5t-68.5 31.5t-57.5 40t-48 51.5t-30 64.5t-12 80q0 136 101.5 211.5t262.5 75.5q188 0 402 -107l-60 -92q-188 92 -342 92q-103 0 -170 -45.5t-67 -126.5q0 -28 10 -53t23 -42.5t38 -34t44 -26.5t52.5 -21.5t51 -16.5t50.5 -14q18 -5 26 -7q200 -54 294.5 -129.5 t94.5 -204.5q0 -133 -95 -206.5t-239 -83.5q64 -84 64 -160t-55 -120t-144 -44q-81 0 -156 37z" />
<glyph unicode="&#x160;" horiz-adv-x="1233" d="M655 799q55 -18 94 -31.5t92 -37t89.5 -46.5t76.5 -57t64 -71.5t39.5 -88t15.5 -107.5q0 -95 -40 -170t-107.5 -120.5t-150 -69t-173.5 -23.5q-141 0 -291 50t-262 118l66 103q106 -63 240 -108.5t251 -45.5q137 0 234.5 67t97.5 191q0 39 -12 74t-30.5 61.5t-52 52 t-65 44t-81.5 39t-90 35t-101 34.5q-52 16 -87.5 28.5t-84 33t-80.5 41t-67.5 51t-56.5 64t-34.5 79t-13.5 98.5q0 117 61 202t159 126t220 41q119 0 255 -37.5t237 -91.5l-63 -102q-96 50 -214.5 82t-211.5 32q-83 0 -150.5 -24.5t-112.5 -81t-45 -137.5q0 -49 20 -89 t44 -65t78.5 -51.5t89.5 -39.5t111 -38q28 -9 42 -14zM897 1802l-201 -262h-166l-198 262h102l178 -182l181 182h104z" />
<glyph unicode="&#x161;" horiz-adv-x="1049" d="M805 1493l-201 -262h-166l-198 262h102l178 -182l180 182h105zM547 604q200 -54 294.5 -129.5t94.5 -204.5q0 -74 -31 -131.5t-85 -92t-120.5 -52t-142.5 -17.5q-120 0 -241 38.5t-214 90.5l60 97q87 -49 193.5 -84t195.5 -35q103 0 180.5 46.5t77.5 133.5q0 24 -7.5 46 t-17.5 38.5t-31 33.5t-35 27.5t-45 24t-45.5 20t-50.5 17.5t-47 14t-47 13q-43 12 -72 21t-70 24.5t-68.5 31.5t-57.5 40t-48 51.5t-30 64.5t-12 80q0 136 101.5 211.5t262.5 75.5q188 0 402 -107l-60 -92q-188 92 -342 92q-103 0 -170 -45.5t-67 -126.5q0 -28 10 -53 t23 -42.5t38 -34t44 -26.5t52.5 -21.5t51 -16.5t50.5 -14q18 -5 26 -7z" />
<glyph unicode="&#x162;" horiz-adv-x="1165" d="M336 -307l37 86q62 -29 106 -29q55 0 87 24.5t32 75.5q0 71 -59 150h-29v1317h-461v117h1053v-117h-459v-1317h-33q80 -96 80 -180q0 -76 -54.5 -120t-143.5 -44q-81 0 -156 37z" />
<glyph unicode="&#x163;" horiz-adv-x="770" d="M190 -307l37 86q62 -29 107 -29q55 0 87 24.5t32 75.5q0 58 -45 130q-183 18 -183 237v756h-149v102h149v271l127 40v-311h297v-102h-297v-764q0 -119 105 -119q76 0 215 57l51 -98q-42 -19 -110.5 -40.5t-131.5 -28.5q64 -79 64 -160q0 -76 -55 -120t-144 -44 q-81 0 -156 37z" />
<glyph unicode="&#x164;" horiz-adv-x="1165" d="M1102 1317h-459v-1317h-133v1317h-461v117h1053v-117zM860 1802l-201 -262h-165l-199 262h102l178 -182l181 182h104z" />
<glyph unicode="&#x165;" horiz-adv-x="772" d="M76 973v102h149v271l127 40v-311h297v-102h-297v-764q0 -119 105 -119q76 0 215 57l51 -98q-51 -24 -131 -48t-148 -24q-219 0 -219 240v756h-149zM494 1413v182h143l18 -186l-131 -221l-47 47l84 178h-67z" />
<glyph unicode="&#x166;" horiz-adv-x="1188" d="M1114 1317h-459v-744h232v-92h-232v-481h-133v481h-235v92h235v744h-461v117h1053v-117z" />
<glyph unicode="&#x167;" horiz-adv-x="774" d="M78 973v102h149v271l127 40v-311h297v-102h-297v-291h234v-94h-234v-379q0 -119 105 -119q76 0 215 57l51 -98q-51 -24 -131 -48t-148 -24q-219 0 -219 240v371h-108v94h108v291h-149z" />
<glyph unicode="&#x168;" horiz-adv-x="1436" d="M1229 1434v-928q0 -92 -16 -169t-53.5 -145t-95.5 -114.5t-147.5 -73.5t-203.5 -27q-520 0 -520 529v928h133v-928q0 -73 9.5 -130.5t35.5 -111.5t68.5 -89.5t111.5 -57t162 -21.5q91 0 159.5 21.5t110.5 57t68 89.5t35.5 111.5t9.5 130.5v928h133zM485 1565l-79 32 q42 81 80.5 119.5t97.5 38.5q43 0 92 -24.5t91 -49t69 -24.5q26 0 47.5 18t52.5 76l80 -33q-40 -80 -79 -119.5t-99 -39.5q-43 0 -92 25t-91 50t-69 25q-26 0 -48 -18.5t-53 -75.5z" />
<glyph unicode="&#x169;" d="M922 0v158q-36 -27 -79 -53.5t-104.5 -57.5t-133.5 -50.5t-138 -19.5q-83 0 -143 26.5t-92.5 74t-47 103t-14.5 124.5v770h127v-749q0 -53 9 -94t31 -75.5t62.5 -52.5t98.5 -18q73 0 163.5 35.5t152.5 75t108 77.5v801h127v-1075h-127zM406 1255l-80 33q42 81 80.5 119.5 t97.5 38.5q43 0 92 -24.5t91 -49t69 -24.5q26 0 47.5 18t52.5 76l80 -33q-40 -81 -79.5 -120.5t-98.5 -39.5q-43 0 -92 25.5t-91 50.5t-69 25q-26 0 -47 -18.5t-53 -76.5z" />
<glyph unicode="&#x16a;" horiz-adv-x="1436" d="M1229 1434v-928q0 -92 -16 -169t-53.5 -145t-95.5 -114.5t-147.5 -73.5t-203.5 -27q-520 0 -520 529v928h133v-928q0 -73 9.5 -130.5t35.5 -111.5t68.5 -89.5t111.5 -57t162 -21.5q91 0 159.5 21.5t110.5 57t68 89.5t35.5 111.5t9.5 130.5v928h133zM418 1591v95h588v-95 h-588z" />
<glyph unicode="&#x16b;" d="M922 0v158q-36 -27 -79 -53.5t-104.5 -57.5t-133.5 -50.5t-138 -19.5q-83 0 -143 26.5t-92.5 74t-47 103t-14.5 124.5v770h127v-749q0 -53 9 -94t31 -75.5t62.5 -52.5t98.5 -18q73 0 163.5 35.5t152.5 75t108 77.5v801h127v-1075h-127zM315 1282v94h588v-94h-588z" />
<glyph unicode="&#x16c;" horiz-adv-x="1436" d="M1229 1434v-928q0 -92 -16 -169t-53.5 -145t-95.5 -114.5t-147.5 -73.5t-203.5 -27q-520 0 -520 529v928h133v-928q0 -73 9.5 -130.5t35.5 -111.5t68.5 -89.5t111.5 -57t162 -21.5q91 0 159.5 21.5t110.5 57t68 89.5t35.5 111.5t9.5 130.5v928h133zM709 1540 q-130 0 -203.5 57t-73.5 154h100q0 -117 177 -117q178 0 178 117h100q0 -98 -73.5 -154.5t-204.5 -56.5z" />
<glyph unicode="&#x16d;" d="M922 0v158q-36 -27 -79 -53.5t-104.5 -57.5t-133.5 -50.5t-138 -19.5q-83 0 -143 26.5t-92.5 74t-47 103t-14.5 124.5v770h127v-749q0 -53 9 -94t31 -75.5t62.5 -52.5t98.5 -18q73 0 163.5 35.5t152.5 75t108 77.5v801h127v-1075h-127zM606 1231q-130 0 -203 57t-73 154 h100q0 -117 176 -117q178 0 178 117h101q0 -97 -74 -154t-205 -57z" />
<glyph unicode="&#x16e;" horiz-adv-x="1436" d="M1229 1434v-928q0 -92 -16 -169t-53.5 -145t-95.5 -114.5t-147.5 -73.5t-203.5 -27q-520 0 -520 529v928h133v-928q0 -73 9.5 -130.5t35.5 -111.5t68.5 -89.5t111.5 -57t162 -21.5q91 0 159.5 21.5t110.5 57t68 89.5t35.5 111.5t9.5 130.5v928h133zM506 1726 q0 88 60.5 148.5t146.5 60.5q88 0 148.5 -60.5t60.5 -148.5q0 -86 -60.5 -146t-148.5 -60q-86 0 -146.5 60t-60.5 146zM590 1726q0 -52 35 -87t88 -35q54 0 90.5 35t36.5 87q0 54 -36.5 90.5t-90.5 36.5q-52 0 -87.5 -36.5t-35.5 -90.5z" />
<glyph unicode="&#x16f;" d="M922 0v158q-36 -27 -79 -53.5t-104.5 -57.5t-133.5 -50.5t-138 -19.5q-83 0 -143 26.5t-92.5 74t-47 103t-14.5 124.5v770h127v-749q0 -53 9 -94t31 -75.5t62.5 -52.5t98.5 -18q73 0 163.5 35.5t152.5 75t108 77.5v801h127v-1075h-127zM401 1417q0 88 60.5 148.5 t146.5 60.5q88 0 148.5 -60.5t60.5 -148.5q0 -86 -60.5 -146.5t-148.5 -60.5q-86 0 -146.5 60.5t-60.5 146.5zM485 1417q0 -53 35.5 -88t87.5 -35q54 0 90.5 35.5t36.5 87.5q0 54 -36.5 90.5t-90.5 36.5q-52 0 -87.5 -36.5t-35.5 -90.5z" />
<glyph unicode="&#x170;" horiz-adv-x="1436" d="M1229 1434v-928q0 -92 -16 -169t-53.5 -145t-95.5 -114.5t-147.5 -73.5t-203.5 -27q-520 0 -520 529v928h133v-928q0 -73 9.5 -130.5t35.5 -111.5t68.5 -89.5t111.5 -57t162 -21.5q91 0 159.5 21.5t110.5 57t68 89.5t35.5 111.5t9.5 130.5v928h133zM860 1540h-82l156 262 h172zM569 1540h-88l160 262h172z" />
<glyph unicode="&#x171;" d="M922 0v158q-36 -27 -79 -53.5t-104.5 -57.5t-133.5 -50.5t-138 -19.5q-83 0 -143 26.5t-92.5 74t-47 103t-14.5 124.5v770h127v-749q0 -53 9 -94t31 -75.5t62.5 -52.5t98.5 -18q73 0 163.5 35.5t152.5 75t108 77.5v801h127v-1075h-127zM756 1231h-82l155 262h172z M465 1231h-88l160 262h172z" />
<glyph unicode="&#x172;" horiz-adv-x="1438" d="M696 -197q0 -16 5 -29t11.5 -21.5t20.5 -14t23 -8.5t27.5 -4.5t26.5 -2t28 0t24 0.5l-18 -91q-25 0 -38.5 0.5t-44.5 3t-51 8t-46.5 16.5t-42 27t-26.5 41.5t-11 57.5q0 102 159 190h-30q-520 0 -520 529v928h133v-928q0 -73 9.5 -130.5t35.5 -111.5t68.5 -89.5 t111.5 -57t162 -21.5q91 0 159.5 21.5t110.5 57t68 89.5t35.5 111.5t9.5 130.5v928h133v-928q0 -421 -328 -506q-5 -3 -27 -15.5t-30.5 -17.5t-29.5 -18t-31 -21t-26.5 -21t-25 -24t-18 -24.5t-13.5 -27.5t-4 -28z" />
<glyph unicode="&#x173;" d="M922 0v158q-36 -27 -79 -53.5t-104.5 -57.5t-133.5 -50.5t-138 -19.5q-83 0 -143 26.5t-92.5 74t-47 103t-14.5 124.5v770h127v-749q0 -53 9 -94t31 -75.5t62.5 -52.5t98.5 -18q73 0 163.5 35.5t152.5 75t108 77.5v801h127v-1075h-5q-3 -2 -27 -15.5t-31 -18t-29 -18 t-31 -21t-26 -21t-25 -24t-17.5 -24t-13.5 -27.5t-4 -28q0 -16 5 -29t11.5 -21.5t20.5 -14t23 -8.5t27.5 -4.5t26.5 -2t28 0t24 0.5l-19 -91q-25 0 -38.5 0.5t-44.5 3t-51 8t-46.5 16.5t-42 27t-26.5 41.5t-11 57.5q0 61 56 115.5t147 97.5h-8z" />
<glyph unicode="&#x174;" horiz-adv-x="1927" d="M1284 0l-330 1243l-327 -1243h-150l-395 1434h145l328 -1280l334 1280h133l334 -1280l330 1280h147l-399 -1434h-150zM1038 1802l201 -262h-104l-181 184l-178 -184h-102l198 262h166z" />
<glyph unicode="&#x175;" horiz-adv-x="1673" d="M1108 0l-279 920l-278 -920h-131l-340 1075h137l270 -936l279 936h127l276 -936l273 936h135l-340 -1075h-129zM913 1493l201 -262h-104l-181 184l-178 -184h-102l199 262h165z" />
<glyph unicode="&#x177;" horiz-adv-x="1141" d="M68 1075h141l354 -921l355 921h143l-608 -1493h-142l189 424zM647 1493l201 -262h-105l-180 184l-178 -184h-102l198 262h166z" />
<glyph unicode="&#x178;" horiz-adv-x="1290" d="M571 0v567l-526 867h150l444 -764l442 764h150l-526 -867v-567h-134zM395 1561v176h148v-176h-148zM731 1561v176h146v-176h-146z" />
<glyph unicode="&#x179;" horiz-adv-x="1256" d="M84 109l887 1208h-842v117h1004v-109l-891 -1208h901v-117h-1059v109zM598 1540h-111l250 262h197z" />
<glyph unicode="&#x17a;" horiz-adv-x="1036" d="M94 0v104l670 861h-649v110h805v-104l-666 -860h666v-111h-826zM471 1231h-111l250 262h197z" />
<glyph unicode="&#x17b;" horiz-adv-x="1256" d="M84 109l887 1208h-842v117h1004v-109l-891 -1208h901v-117h-1059v109zM557 1559v176h148v-176h-148z" />
<glyph unicode="&#x17c;" horiz-adv-x="1036" d="M94 0v104l670 861h-649v110h805v-104l-666 -860h666v-111h-826zM430 1251v176h148v-176h-148z" />
<glyph unicode="&#x17d;" horiz-adv-x="1256" d="M84 109l887 1208h-842v117h1004v-109l-891 -1208h901v-117h-1059v109zM915 1802l-200 -262h-166l-199 262h103l178 -182l180 182h104z" />
<glyph unicode="&#x17e;" horiz-adv-x="1036" d="M94 0v104l670 861h-649v110h805v-104l-666 -860h666v-111h-826zM791 1493l-201 -262h-166l-199 262h103l178 -182l180 182h105z" />
<glyph unicode="&#x17f;" horiz-adv-x="602" d="M74 973v102h149v178q0 240 219 240q107 0 301 -66l-49 -96q-184 49 -239 49q-50 0 -77.5 -26t-27.5 -90v-1264h-127v973h-149z" />
<glyph unicode="&#x192;" horiz-adv-x="1090" d="M260 973l27 102h151l43 180q33 136 91 187t165 51q32 0 69.5 -5.5t76 -16t63.5 -18t60 -19.5t38 -13l-69 -94q-43 16 -118 34t-116 17q-105 0 -131 -116l-45 -187h297l-22 -102h-299l-334 -1391h-127l334 1391h-154z" />
<glyph unicode="&#x1fc;" horiz-adv-x="2048" d="M1919 0h-887v373h-612l-252 -373h-156l992 1434h903v-117h-742v-543h615v-115h-615v-542h754v-117zM498 487h534v789zM1085 1540h-110l250 262h196z" />
<glyph unicode="&#x1fd;" horiz-adv-x="1899" d="M1749 502h-782q9 -190 99.5 -304t229.5 -114q55 0 113.5 14t116 41t93 46.5t81.5 47.5l67 -88q-6 -3 -17 -10q-56 -33 -92.5 -52.5t-101 -48t-131 -43t-133.5 -14.5q-117 0 -215 54.5t-162 158.5q-93 -96 -208.5 -154.5t-243.5 -58.5q-65 0 -124.5 18t-112.5 55.5 t-85 106t-32 160.5q0 90 30.5 160t82.5 111.5t116 62.5t137 21q113 0 359 -70q6 101 36 184q-8 106 -60.5 155.5t-174.5 49.5q-83 0 -176 -24.5t-228 -71.5l-49 100q281 103 463 103q238 0 318 -154q136 154 356 154q210 0 325 -128t115 -335q0 -34 -2.5 -67t-4.5 -50z M487 90q201 0 390 182q-43 109 -46 238q-9 2 -66 18.5t-84.5 23.5t-74 15t-80.5 8q-151 0 -217.5 -70.5t-66.5 -182.5q0 -119 66.5 -175.5t178.5 -56.5zM1317 993q-151 0 -243.5 -108t-104.5 -291h661q4 204 -78 301.5t-235 97.5zM903 1231h-110l249 262h197z" />
<glyph unicode="&#x1fe;" horiz-adv-x="1501" d="M743 1456q240 0 392 -129l77 107h119l-129 -177q152 -194 152 -540q0 -124 -20.5 -232t-66.5 -202.5t-116 -161.5t-174 -105.5t-234 -38.5q-243 0 -391 129l-78 -106h-116l129 174q-154 194 -154 543q0 126 20.5 234t66.5 202t115.5 160.5t173 104.5t234.5 38zM743 96 q104 0 185.5 32t135.5 87t88.5 135t49.5 170t15 197q0 271 -99 428l-688 -936q113 -113 313 -113zM272 717q0 -276 97 -430l688 936q-117 114 -314 114q-104 0 -185.5 -32t-134.5 -87.5t-87.5 -135t-49 -169.5t-14.5 -196zM709 1540h-111l250 262h196z" />
<glyph unicode="&#x1ff;" horiz-adv-x="1233" d="M1098 537q0 -263 -127.5 -411.5t-362.5 -148.5q-183 0 -303 91l-51 -68h-113l99 129q-121 145 -121 408t126.5 412t362.5 149q181 0 301 -94l56 71h110l-100 -131q123 -151 123 -407zM967 537q0 189 -70 305l-520 -680q88 -76 231 -76q183 0 271 119t88 332zM252 537 q0 -196 67 -304l519 678q-88 78 -230 78q-182 0 -269 -119.5t-87 -332.5zM573 1231h-110l250 262h196z" />
<glyph unicode="&#x218;" horiz-adv-x="1233" d="M655 799q55 -18 94 -31.5t92 -37t89.5 -46.5t76.5 -57t64 -71.5t39.5 -88t15.5 -107.5q0 -95 -40 -170t-107.5 -120.5t-150 -69t-173.5 -23.5q-141 0 -291 50t-262 118l66 103q106 -63 240 -108.5t251 -45.5q137 0 234.5 67t97.5 191q0 39 -12 74t-30.5 61.5t-52 52 t-65 44t-81.5 39t-90 35t-101 34.5q-52 16 -87.5 28.5t-84 33t-80.5 41t-67.5 51t-56.5 64t-34.5 79t-13.5 98.5q0 117 61 202t159 126t220 41q119 0 255 -37.5t237 -91.5l-63 -102q-96 50 -214.5 82t-211.5 32q-83 0 -150.5 -24.5t-112.5 -81t-45 -137.5q0 -49 20 -89 t44 -65t78.5 -51.5t89.5 -39.5t111 -38q28 -9 42 -14zM547 -315v182h143l19 -186l-131 -222l-48 47l84 179h-67z" />
<glyph unicode="&#x219;" horiz-adv-x="1047" d="M547 604q200 -54 294.5 -129.5t94.5 -204.5q0 -74 -31 -131.5t-85 -92t-120.5 -52t-142.5 -17.5q-120 0 -241 38.5t-214 90.5l60 97q87 -49 193.5 -84t195.5 -35q103 0 180.5 46.5t77.5 133.5q0 24 -7.5 46t-17.5 38.5t-31 33.5t-35 27.5t-45 24t-45.5 20t-50.5 17.5 t-47 14t-47 13q-43 12 -72 21t-70 24.5t-68.5 31.5t-57.5 40t-48 51.5t-30 64.5t-12 80q0 136 101.5 211.5t262.5 75.5q188 0 402 -107l-60 -92q-188 92 -342 92q-103 0 -170 -45.5t-67 -126.5q0 -28 10 -53t23 -42.5t38 -34t44 -26.5t52.5 -21.5t51 -16.5t50.5 -14 q18 -5 26 -7zM449 -315v182h143l18 -186l-131 -222l-47 47l84 179h-67z" />
<glyph unicode="&#x21a;" horiz-adv-x="1165" d="M1102 1317h-459v-1317h-133v1317h-461v117h1053v-117zM504 -315v182h143l19 -186l-131 -222l-48 47l84 179h-67z" />
<glyph unicode="&#x21b;" horiz-adv-x="772" d="M76 973v102h149v271l127 40v-311h297v-102h-297v-764q0 -119 105 -119q76 0 215 57l51 -98q-51 -24 -131 -48t-148 -24q-219 0 -219 240v756h-149zM281 -315v182h143l18 -186l-131 -222l-47 47l84 179h-67z" />
<glyph unicode="&#x2b0;" horiz-adv-x="813" d="M221 1683v-342q52 40 127 73.5t154 33.5q190 0 190 -201v-459h-106v441q0 133 -115 133q-63 0 -135.5 -34t-114.5 -71v-469h-106v895h106z" />
<glyph unicode="&#x2b2;" horiz-adv-x="350" d="M111 1561v120h118v-120h-118zM223 1434v-668q0 -33 -0.5 -48t-3 -39t-8 -35t-16.5 -28t-26.5 -26.5t-39.5 -21.5t-55.5 -22t-73.5 -20l-35 80q41 13 65 21t43 19t27 18t13 24.5t5.5 29.5t0.5 42v674h104z" />
<glyph unicode="&#x2b7;" horiz-adv-x="1086" d="M702 788l-165 525l-168 -525h-101l-215 646h113l158 -539l163 539h99l164 -543l157 543h111l-209 -646h-107z" />
<glyph unicode="&#x2b8;" horiz-adv-x="752" d="M45 1434h115l209 -521l211 521h112l-379 -895h-114l116 256z" />
<glyph unicode="&#x2c6;" horiz-adv-x="555" d="M352 1493l201 -262h-104l-181 184l-178 -184h-102l198 262h166z" />
<glyph unicode="&#x2c7;" horiz-adv-x="555" d="M553 1493l-201 -262h-166l-198 262h102l178 -182l181 182h104z" />
<glyph unicode="&#x2d8;" horiz-adv-x="549" d="M266 1231q-130 0 -203 57t-73 154h100q0 -117 176 -117q178 0 178 117h101q0 -97 -74 -154t-205 -57z" />
<glyph unicode="&#x2d9;" horiz-adv-x="152" d="M-6 1251v176h147v-176h-147z" />
<glyph unicode="&#x2da;" horiz-adv-x="422" d="M-4 1417q0 88 60.5 148.5t146.5 60.5q88 0 148.5 -60.5t60.5 -148.5q0 -86 -60.5 -146.5t-148.5 -60.5q-86 0 -146.5 60.5t-60.5 146.5zM80 1417q0 -53 35 -88t88 -35q54 0 90.5 35.5t36.5 87.5q0 54 -36.5 90.5t-90.5 36.5q-52 0 -87.5 -36.5t-35.5 -90.5z" />
<glyph unicode="&#x2db;" horiz-adv-x="326" d="M102 -197q0 -16 5 -29t11.5 -21.5t20.5 -14t23 -8.5t27.5 -4.5t26.5 -2t28 0t24 0.5l-18 -91q-25 0 -38.5 0.5t-44.5 3t-51 8t-46.5 16.5t-42 27t-26.5 41.5t-11 57.5q0 69 73 130.5t183 105.5l65 -21q-5 -3 -27 -15.5t-31 -18t-30 -18.5t-31.5 -21t-27.5 -21.5 t-25.5 -24.5t-18.5 -24.5t-14 -27.5t-4 -28z" />
<glyph unicode="&#x2dc;" horiz-adv-x="596" d="M66 1255l-80 33q42 81 80.5 119.5t97.5 38.5q43 0 92 -24.5t91 -49t69 -24.5q26 0 47.5 18t52.5 76l80 -33q-40 -81 -79.5 -120.5t-98.5 -39.5q-43 0 -92 25.5t-91 50.5t-69 25q-26 0 -47 -18.5t-53 -76.5z" />
<glyph unicode="&#x2dd;" horiz-adv-x="615" d="M367 1231h-82l155 262h172zM76 1231h-88l159 262h172z" />
<glyph unicode="&#x2e3;" horiz-adv-x="778" d="M600 788l-217 271l-215 -271h-131l282 324l-268 322h127l205 -265l205 265h127l-269 -322l283 -324h-129z" />
<glyph unicode="&#x3c0;" horiz-adv-x="1168" d="M1077 1075v-117h-184v-958h-123v958h-385v-958h-125v958h-182v117h999z" />
<glyph unicode="&#x1e80;" horiz-adv-x="1927" d="M1284 0l-330 1243l-327 -1243h-150l-395 1434h145l328 -1280l334 1280h133l334 -1280l330 1280h147l-399 -1434h-150zM1102 1540h-109l-338 262h197z" />
<glyph unicode="&#x1e81;" horiz-adv-x="1673" d="M1108 0l-279 920l-278 -920h-131l-340 1075h137l270 -936l279 936h127l276 -936l273 936h135l-340 -1075h-129zM973 1231h-109l-338 262h197z" />
<glyph unicode="&#x1e82;" horiz-adv-x="1927" d="M1284 0l-330 1243l-327 -1243h-150l-395 1434h145l328 -1280l334 1280h133l334 -1280l330 1280h147l-399 -1434h-150zM922 1540h-111l250 262h196z" />
<glyph unicode="&#x1e83;" horiz-adv-x="1673" d="M1108 0l-279 920l-278 -920h-131l-340 1075h137l270 -936l279 936h127l276 -936l273 936h135l-340 -1075h-129zM797 1231h-111l250 262h197z" />
<glyph unicode="&#x1e84;" horiz-adv-x="1927" d="M1284 0l-330 1243l-327 -1243h-150l-395 1434h145l328 -1280l334 1280h133l334 -1280l330 1280h147l-399 -1434h-150zM715 1561v176h147v-176h-147zM1051 1561v176h145v-176h-145z" />
<glyph unicode="&#x1e85;" horiz-adv-x="1673" d="M1108 0l-279 920l-278 -920h-131l-340 1075h137l270 -936l279 936h127l276 -936l273 936h135l-340 -1075h-129zM588 1251v176h147v-176h-147zM924 1251v176h145v-176h-145z" />
<glyph unicode="&#x1e9e;" horiz-adv-x="1622" d="M707 831l434 486h-484q-317 0 -317 -377v-940h-133v946q0 109 24 194t64 139.5t98 90t121 50t137 14.5h664v-97l-441 -489q142 -5 255 -35.5t184 -75t118 -104t66 -119t19 -123.5q0 -77 -28.5 -148.5t-84.5 -132t-152 -97t-219 -36.5q-138 0 -268 41.5t-229 100.5l65 102 q90 -53 203 -90t223 -37q89 0 158.5 26.5t110 70.5t61 95t20.5 105q0 45 -12.5 87.5t-50.5 90.5t-97.5 83.5t-163 59t-237.5 23.5h-108v96z" />
<glyph unicode="&#x1ef2;" horiz-adv-x="1290" d="M571 0v567l-526 867h150l444 -764l442 764h150l-526 -867v-567h-134zM782 1540h-108l-338 262h196z" />
<glyph unicode="&#x1ef3;" horiz-adv-x="1141" d="M68 1075h141l354 -921l355 921h143l-608 -1493h-142l189 424zM709 1231h-109l-338 262h197z" />
<glyph unicode="&#x2013;" horiz-adv-x="1168" d="M993 526h-827v115h827v-115z" />
<glyph unicode="&#x2014;" horiz-adv-x="1385" d="M1206 526h-1042v115h1042v-115z" />
<glyph unicode="&#x2018;" horiz-adv-x="481" d="M313 1217v-218h-153l-23 226l142 250l51 -52l-90 -206h73z" />
<glyph unicode="&#x2019;" horiz-adv-x="471" d="M164 1217v217h153l23 -226l-141 -250l-52 52l91 207h-74z" />
<glyph unicode="&#x201a;" horiz-adv-x="512" d="M178 0v217h154l22 -225l-141 -250l-51 51l90 207h-74z" />
<glyph unicode="&#x201c;" horiz-adv-x="821" d="M313 1217v-218h-153l-23 226l142 250l51 -52l-90 -206h73zM664 1217v-218h-154l-23 226l142 250l51 -52l-90 -206h74z" />
<glyph unicode="&#x201d;" horiz-adv-x="821" d="M164 1217v217h153l23 -226l-141 -250l-52 52l91 207h-74zM512 1217v217h154l22 -226l-141 -250l-51 52l90 207h-74z" />
<glyph unicode="&#x201e;" horiz-adv-x="860" d="M178 0v217h154l22 -225l-141 -250l-51 51l90 207h-74zM528 0v217h154l23 -225l-142 -250l-51 51l90 207h-74z" />
<glyph unicode="&#x2020;" horiz-adv-x="1174" d="M63 823v119l461 -16v508h109v-508l465 16v-119l-465 17v-1258h-109v1258z" />
<glyph unicode="&#x2021;" horiz-adv-x="1278" d="M115 823v119l460 -16v508h111v-508l463 16v-119l-463 17v-451l463 17v-119l-463 16v-721h-111v721l-460 -16v119l460 -17v451z" />
<glyph unicode="&#x2022;" horiz-adv-x="887" d="M193 582q0 102 70 173.5t171 71.5q102 0 174 -71.5t72 -173.5q0 -101 -71.5 -172.5t-174.5 -71.5q-101 0 -171 71t-70 173z" />
<glyph unicode="&#x2026;" horiz-adv-x="1284" d="M553 0v217h162v-217h-162zM162 0v217h162v-217h-162zM944 0v217h162v-217h-162z" />
<glyph unicode="&#x2030;" horiz-adv-x="2884" d="M815 1071q0 -185 -98.5 -284t-263.5 -99q-164 0 -262.5 99t-98.5 284q0 187 98.5 286t262.5 99q165 0 263.5 -99t98.5 -286zM700 1071q0 139 -64.5 214t-182.5 75q-116 0 -180 -75t-64 -214q0 -137 64 -212t180 -75q117 0 182 74.5t65 212.5zM1917 360q0 -185 -99 -284 t-264 -99q-163 0 -261.5 99t-98.5 284q0 187 98 286t262 99q165 0 264 -99t99 -286zM1802 360q0 139 -65 214t-183 75q-116 0 -179.5 -75t-63.5 -214q0 -137 63.5 -211.5t179.5 -74.5q118 0 183 74.5t65 211.5zM2779 360q0 -185 -99 -284t-263 -99t-262.5 99t-98.5 284 q0 187 98.5 286t262.5 99t263 -99.5t99 -285.5zM2662 360q0 139 -64 214t-181 75q-116 0 -181 -75t-65 -214q0 -137 65 -211.5t181 -74.5q117 0 181 74t64 212zM1442 1434l-754 -1434h-119l754 1434h119z" />
<glyph unicode="&#x2039;" horiz-adv-x="850" d="M80 623l627 460v-137l-504 -368l504 -369v-135l-627 461v88z" />
<glyph unicode="&#x203a;" horiz-adv-x="850" d="M756 532l-627 -460v137l504 369l-504 368v135l627 -460v-89z" />
<glyph unicode="&#x2044;" horiz-adv-x="371" d="M580 1434l-684 -1434h-117l686 1434h115z" />
<glyph unicode="&#x2070;" horiz-adv-x="875" d="M432 1663q166 0 252 -115t86 -329q0 -215 -86 -330t-252 -115q-167 0 -253.5 114.5t-86.5 330.5q0 214 86.5 329t253.5 115zM432 862q230 0 230 357q0 171 -56.5 263.5t-173.5 92.5q-227 0 -227 -356q0 -357 227 -357z" />
<glyph unicode="&#x2074;" horiz-adv-x="838" d="M51 979v80l434 590h146v-580h137v-90h-137v-191h-111v191h-469zM170 1069h350v485z" />
<glyph unicode="&#x2075;" horiz-adv-x="772" d="M106 1225l50 424h491v-93h-403l-25 -253q76 32 160 32q139 0 223 -80t84 -196q0 -117 -85.5 -201t-238.5 -84q-142 0 -292 90l51 80q20 -14 48.5 -28.5t81.5 -31t99 -16.5q91 0 155 53t64 138q0 79 -56 132.5t-155 53.5q-92 0 -190 -53z" />
<glyph unicode="&#x2076;" horiz-adv-x="819" d="M557 1571q-136 0 -231.5 -88t-120.5 -240q94 94 239 94q135 0 213 -77.5t78 -194.5q0 -122 -86 -206.5t-229 -84.5q-110 0 -187.5 53t-113 138t-35.5 192q0 216 132 361t339 145q30 0 60.5 -3.5t45.5 -7.5l15 -3l-25 -86q-43 8 -94 8zM426 1251q-81 0 -143 -37t-86 -81 q3 -125 61 -196t160 -71q98 0 152.5 59t54.5 138q0 75 -51 131.5t-148 56.5z" />
<glyph unicode="&#x2077;" horiz-adv-x="676" d="M629 1567q-13 -16 -35.5 -44.5t-80 -117t-101 -176.5t-79.5 -210t-36 -231h-115q0 99 32.5 213t72 198t94 174t78 122.5t45.5 60.5h-459v93h584v-82z" />
<glyph unicode="&#x2078;" horiz-adv-x="838" d="M78 1010q0 157 217 243q-162 71 -162 201q0 95 78 152t203 57t202.5 -57t77.5 -152q0 -128 -166 -201q217 -87 217 -243q0 -108 -93.5 -172t-237.5 -64q-148 0 -242 64t-94 172zM633 1016q0 36 -18.5 67t-53.5 54.5t-68.5 39.5t-80.5 33q-47 -17 -80.5 -33t-69 -39.5 t-54 -54.5t-18.5 -67q0 -70 64.5 -112t159.5 -42t157 42t62 112zM240 1446q0 -31 15.5 -57t44.5 -44.5t53.5 -29.5t58.5 -23q34 12 58.5 23t54 29.5t45.5 44.5t16 57q0 55 -49 94t-123 39q-76 0 -125 -39t-49 -94z" />
<glyph unicode="&#x2079;" horiz-adv-x="821" d="M248 866q137 0 232.5 87t121.5 241q-34 -36 -95 -65t-147 -29q-135 0 -211.5 77.5t-76.5 194.5q0 122 86 206.5t229 84.5q109 0 187 -53.5t113.5 -138.5t35.5 -193q0 -216 -132 -360t-341 -144q-29 0 -59 3.5t-45 6.5l-15 4l29 86q39 -8 88 -8zM381 1186q80 0 141.5 37 t87.5 82q-3 124 -61.5 195t-159.5 71q-98 0 -152.5 -59.5t-54.5 -139.5q0 -76 50.5 -131t148.5 -55z" />
<glyph unicode="&#x207a;" horiz-adv-x="858" d="M379 1477h86v-238h280v-82h-280v-237h-86v237h-281v82h281v238z" />
<glyph unicode="&#x207d;" horiz-adv-x="418" d="M104 844v745q0 38 1.5 58.5t8.5 46t20.5 39.5t39 31t62.5 29.5t92 25.5l32 -68q-57 -18 -84.5 -29t-43 -30t-17.5 -36t-2 -57v-765q0 -40 2 -57t17.5 -36t43 -31t84.5 -30l-32 -68q-55 13 -92 25.5t-62.5 29.5t-39 31t-20.5 40t-8.5 46.5t-1.5 59.5z" />
<glyph unicode="&#x207e;" horiz-adv-x="418" d="M301 1587v-745q0 -46 -2.5 -69.5t-13.5 -51t-35 -43.5t-65.5 -33t-106.5 -33l-33 68q57 18 84.5 29t43.5 29.5t18 35.5t2 57v766q0 27 -0.5 40.5t-5.5 29.5t-13.5 24t-26 19t-41 20t-61.5 21l33 68q55 -13 92 -25.5t62 -29.5t39 -31t20.5 -40t8 -46.5t1.5 -59.5z" />
<glyph unicode="&#x207f;" horiz-adv-x="813" d="M221 1434v-93q52 40 127 73.5t154 33.5q190 0 190 -201v-459h-106v441q0 133 -115 133q-63 0 -135.5 -34t-114.5 -71v-469h-106v646h106z" />
<glyph unicode="&#x2080;" horiz-adv-x="875" d="M432 567q166 0 252 -115t86 -329q0 -215 -86 -330t-252 -115q-167 0 -253.5 114.5t-86.5 330.5q0 214 86.5 329t253.5 115zM432 -233q230 0 230 356q0 171 -56.5 263.5t-173.5 92.5q-227 0 -227 -356t227 -356z" />
<glyph unicode="&#x2081;" horiz-adv-x="498" d="M356 -307h-110v751l-160 -79l-49 73l217 115h102v-860z" />
<glyph unicode="&#x2082;" horiz-adv-x="776" d="M678 -215v-92h-606v69q0 49 15.5 92.5t36.5 74t61 64.5t69 54.5t81 53.5q8 5 13.5 8.5t11.5 7.5q54 35 81 54t61 49.5t48.5 59.5t14.5 62q0 59 -46.5 96t-129.5 37q-68 0 -133.5 -24.5t-105.5 -53.5l-54 72q146 98 301 98q127 0 203 -61.5t76 -161.5q0 -24 -5 -47 t-12 -41.5t-22 -39t-26 -34.5t-34 -33.5t-35.5 -30t-41.5 -30t-42 -27.5l-45.5 -28t-43.5 -27q-92 -60 -132 -105.5t-40 -115.5h481z" />
<glyph unicode="&#x2083;" horiz-adv-x="787" d="M55 -231l54 77q42 -27 114 -51t144 -24q91 0 152 45.5t61 120.5q0 47 -27.5 83.5t-71.5 56t-91.5 29t-96.5 9.5h-43v94h49q96 0 168 38t72 109q0 55 -45 87t-121 32q-111 0 -228 -72l-47 70q19 15 52.5 34t100.5 39.5t134 20.5q126 0 195 -58.5t69 -143.5q0 -63 -43 -116 t-129 -81q93 -22 152 -85t59 -149q0 -105 -79.5 -180.5t-231.5 -75.5q-95 0 -181 29t-141 62z" />
<glyph unicode="&#x2084;" horiz-adv-x="838" d="M51 -117v80l434 590h146v-580h137v-90h-137v-190h-111v190h-469zM170 -27h350v486z" />
<glyph unicode="&#x2085;" horiz-adv-x="772" d="M106 129l50 424h491v-92h-403l-25 -254q79 33 160 33q138 0 222.5 -80.5t84.5 -196.5q0 -117 -85.5 -201t-238.5 -84q-140 0 -292 91l51 79q20 -13 49 -28t81.5 -31t98.5 -16q91 0 155 52.5t64 137.5q0 79 -56 133t-155 54q-90 0 -190 -54z" />
<glyph unicode="&#x2086;" horiz-adv-x="819" d="M557 475q-136 0 -231.5 -88t-120.5 -240q95 95 239 95q135 0 213 -78t78 -195q0 -122 -86 -206.5t-229 -84.5q-110 0 -187.5 53t-113 138t-35.5 192q0 216 132 361t339 145q30 0 60.5 -3.5t45.5 -7.5l15 -3l-25 -86q-43 8 -94 8zM426 156q-81 0 -143 -37.5t-86 -81.5 q3 -125 61 -195.5t160 -70.5q98 0 152.5 58.5t54.5 137.5q0 76 -51 132.5t-148 56.5z" />
<glyph unicode="&#x2087;" horiz-adv-x="676" d="M629 471q-13 -16 -35.5 -44.5t-80 -116.5t-101 -176t-79.5 -210t-36 -231h-115q0 99 32.5 213t72 198t94 174t78 122.5t45.5 60.5h-459v92h584v-82z" />
<glyph unicode="&#x2088;" horiz-adv-x="838" d="M78 -86q0 158 217 244q-162 71 -162 200q0 95 78 152t203 57t202.5 -57t77.5 -152q0 -127 -166 -200q217 -87 217 -244q0 -108 -93.5 -172t-237.5 -64q-148 0 -242 64t-94 172zM633 -80q0 36 -18.5 67t-53.5 55t-68.5 40t-80.5 33q-47 -17 -80.5 -33t-69 -40t-54 -55 t-18.5 -67q0 -70 64.5 -111.5t159.5 -41.5t157 41.5t62 111.5zM240 350q0 -31 15.5 -56.5t44.5 -44t53.5 -29.5t58.5 -23q35 12 59 23t53.5 29.5t45.5 44t16 56.5q0 55 -49 94t-123 39q-76 0 -125 -39t-49 -94z" />
<glyph unicode="&#x2089;" horiz-adv-x="821" d="M248 -229q137 0 232.5 87t121.5 240q-34 -36 -95 -65t-147 -29q-135 0 -211.5 77.5t-76.5 194.5q0 122 86 206.5t229 84.5q109 0 187 -53.5t113.5 -138.5t35.5 -193q0 -216 -132 -360t-341 -144q-29 0 -59 4t-45 8l-15 3l29 86q39 -8 88 -8zM381 90q80 0 141.5 37 t87.5 82q-3 124 -61.5 195t-159.5 71q-98 0 -152.5 -59.5t-54.5 -139.5q0 -76 50.5 -131t148.5 -55z" />
<glyph unicode="&#x208a;" horiz-adv-x="858" d="M379 381h86v-238h280v-82h-280v-237h-86v237h-281v82h281v238z" />
<glyph unicode="&#x208d;" horiz-adv-x="418" d="M104 -252v746q0 38 1.5 58.5t8.5 46t20.5 39.5t39 30.5t62.5 29t92 25.5l32 -68q-46 -14 -71.5 -25t-42.5 -20.5t-23 -26.5t-8 -31.5t-2 -47.5v-766q0 -40 2 -57t17.5 -36t43 -31t84.5 -30l-32 -67q-55 13 -92 25.5t-62.5 29.5t-39 31t-20.5 39.5t-8.5 46t-1.5 59.5z" />
<glyph unicode="&#x208e;" horiz-adv-x="418" d="M301 492v-746q0 -29 -0.5 -45t-3.5 -37.5t-9 -33t-17 -27t-27 -25t-39.5 -21t-54.5 -21t-72 -19.5l-33 67q38 12 61.5 20t41 19t26 19t13.5 24t5.5 29.5t0.5 40.5v766q0 40 -2 57t-18 36t-43.5 30t-84.5 30l33 68q41 -10 72 -19.5t54.5 -21t39.5 -21t27 -25t17 -27.5 t9 -33.5t3.5 -38t0.5 -45.5z" />
<glyph unicode="&#x20a1;" horiz-adv-x="1149" d="M420 0h-92l51 219q-108 65 -173 192.5t-65 307.5q0 135 38 243.5t102.5 176t146 103.5t172.5 36q15 0 23 -2l36 158h93l-39 -170q10 -2 75 -23l46 193h94l-54 -230q62 -33 148 -86l-68 -94q-9 5 -44.5 27t-61.5 36l-189 -813q26 5 53 13t53 19.5t47 21.5t46 24.5t37.5 22 t34 21.5t24.5 16l68 -95q-4 -2 -28.5 -17.5t-34.5 -21.5t-36 -21t-42.5 -23t-43.5 -20.5t-49 -20t-48.5 -16t-53 -13t-53.5 -6.5l-37 -158h-94l37 162q-35 5 -78 18zM274 719q0 -122 35.5 -217.5t98.5 -153.5l188 817q-139 -3 -230.5 -125t-91.5 -321zM487 295 q34 -17 78 -23l197 856q-57 23 -76 27z" />
<glyph unicode="&#x20a4;" horiz-adv-x="1137" d="M160 668v96h166q-12 22 -45 75t-49.5 83.5t-32 82.5t-15.5 105q0 154 108 250t286 96q81 0 168 -24t139.5 -48t124.5 -63l-68 -96q-220 114 -356 114q-128 0 -199.5 -70.5t-71.5 -172.5q0 -58 21.5 -110t66 -121t60.5 -101h385v-96h-346q14 -58 14 -107q0 -31 -2 -45h334 v-94h-354q-30 -95 -85.5 -178t-99.5 -127h676v-117h-848v98q7 6 18.5 16t43.5 43.5t60 69.5t58.5 89t47.5 106h-205v94h225q0 6 1 19t1 20q0 61 -18 113h-209z" />
<glyph unicode="&#x20a7;" horiz-adv-x="1364" d="M147 961v81h66v392h487q108 0 195.5 -20.5t159.5 -64.5t114.5 -122t49.5 -185h57v-81h-57q-6 -86 -35.5 -153.5t-76.5 -111t-112 -71.5t-137.5 -40t-157.5 -12h-354v-573h-133v961h-66zM346 1317v-275h735q-13 144 -112 209.5t-260 65.5h-363zM709 690q345 0 372 271 h-735v-271h363z" />
<glyph unicode="&#x20a9;" horiz-adv-x="2081" d="M1360 0l-330 1243l-328 -1243h-149l-135 487h-287v99h260l-72 258h-190v96h164l-135 494h145l125 -494h408l129 494h133l129 -494h407l127 494h148l-140 -494h168v-96h-194l-72 -258h266v-99h-292l-136 -487h-149zM1251 844l68 -258h223l68 258h-359zM453 844l67 -258 h223l68 258h-358zM1343 487l89 -333l86 333h-175zM545 487l86 -333l86 333h-172z" />
<glyph unicode="&#x20ac;" horiz-adv-x="1454" d="M1321 1245l-74 -96q-55 38 -96 63t-103.5 57t-126.5 49t-126 17q-149 0 -255.5 -106t-144.5 -299h615v-94h-629q-6 -59 -6 -119q0 -69 6 -131h629v-94h-613q39 -188 145 -291t253 -103q62 0 125.5 17t127 49.5t103.5 57.5t96 63l74 -97q-65 -45 -117 -76t-122.5 -65 t-144 -52t-146.5 -18q-95 0 -179.5 30.5t-156.5 92t-124.5 161.5t-76.5 231h-143v94h131q-6 62 -6 131q0 41 4 119h-129v94h141q23 134 75 236.5t124.5 165t158 93.5t181.5 31q73 0 146.5 -18t144 -52t122.5 -65t117 -76z" />
<glyph unicode="&#x2116;" horiz-adv-x="2292" d="M2154 1008q0 -200 -93 -304t-271 -104q-179 0 -273 104.5t-94 303.5q0 198 94 302.5t273 104.5q178 0 271 -104.5t93 -302.5zM2034 1008q0 155 -58 232t-186 77t-186 -77t-58 -232q0 -156 58 -233t186 -77t186 77t58 233zM1491 387v92h598v-92h-598zM1133 0l-791 1235 v-1235h-133v1434h139l791 -1235v1235h133v-1434h-139z" />
<glyph unicode="&#x2117;" horiz-adv-x="1737" d="M1223 885q0 -264 -299 -264h-195v-336h-92v862h287q299 0 299 -262zM1128 885q0 182 -202 182h-197v-367h197q93 0 147.5 45t54.5 140zM131 717q0 156 49 290.5t140 234.5t230.5 157t311.5 57t311 -57t230 -157t139.5 -234.5t48.5 -290.5t-48.5 -290.5t-139.5 -234.5 t-230 -157.5t-311 -57.5t-311.5 57.5t-230.5 157.5t-140 234.5t-49 290.5zM209 717q0 -190 74 -339t223.5 -238t353.5 -89q155 0 280 51t206.5 141t125.5 211.5t44 262.5t-44 262t-125.5 211t-206.5 141t-280 51q-154 0 -278.5 -51t-205 -141t-124 -211t-43.5 -262z" />
<glyph unicode="&#x2120;" horiz-adv-x="1362" d="M1092 975v334l-148 -258h-57l-146 256v-332h-88v459h92l170 -299l172 299h91v-459h-86zM408 1239q27 -7 47 -14t44.5 -19t40.5 -26t27 -34.5t11 -45.5q0 -60 -56.5 -96.5t-140.5 -36.5q-122 0 -238 61l41 57q104 -49 193 -49q44 0 78 15.5t34 44.5q0 14 -8.5 24t-30 19 t-36.5 14t-51 14l-52 13q-33 9 -55.5 18t-47 24t-37.5 37.5t-13 51.5q0 59 50.5 95t129.5 36q113 0 213 -51l-41 -56q-97 37 -168 37q-41 0 -69.5 -14.5t-28.5 -40.5q0 -14 7.5 -23.5t26 -17t34 -12.5t46.5 -12.5t50 -12.5z" />
<glyph unicode="&#x2122;" horiz-adv-x="1360" d="M1085 975v334l-147 -258h-55l-150 264v-340h-86v459h94l168 -299l172 299h90v-459h-86zM567 1362h-170v-387h-88v387h-166v72h424v-72z" />
<glyph unicode="&#x2126;" horiz-adv-x="1520" d="M752 1456q162 0 281 -53.5t190 -153t105 -230t34 -294.5q0 -131 -29 -240.5t-76 -181t-93.5 -116t-94.5 -70.5h248v-117h-447v113q75 30 137 79.5t112 122t78 176t28 228.5q0 143 -24.5 252.5t-78 194t-147 129t-223.5 44.5t-222.5 -44.5t-146 -129t-78 -194 t-24.5 -252.5q0 -125 27.5 -228.5t77.5 -176t112 -122t137 -79.5v-113h-449v117h244q-36 21 -71 51.5t-75.5 84t-70.5 117t-50 156.5t-20 199q0 164 33.5 294.5t104.5 230t190 153t281 53.5z" />
<glyph unicode="&#x2153;" horiz-adv-x="1665" d="M381 573h-111v752l-159 -80l-50 74l218 115h102v-861zM1110 1434l-684 -1434h-117l686 1434h115zM911 76l54 78q43 -27 115 -51.5t143 -24.5q91 0 152 45.5t61 120.5q0 47 -27.5 83.5t-71.5 56t-91.5 29t-96.5 9.5h-43v94h49q96 0 168 38.5t72 109.5q0 55 -45 86.5 t-121 31.5q-113 0 -228 -71l-47 69q19 15 52.5 34t100.5 39.5t134 20.5q126 0 195 -58.5t69 -143.5q0 -63 -43 -116t-129 -81q93 -22 152 -84.5t59 -148.5q0 -105 -79.5 -180.5t-231.5 -75.5q-95 0 -181.5 29t-140.5 61z" />
<glyph unicode="&#x2154;" horiz-adv-x="1952" d="M719 666v-93h-606v70q0 49 15 92t37.5 74.5t59 63t70 54.5t79.5 53q18 11 27 17q53 35 80.5 54.5t61.5 49.5t48.5 59.5t14.5 62.5q0 59 -46.5 96t-129.5 37q-68 0 -134 -24.5t-106 -53.5l-53 72q146 98 301 98q127 0 203 -61.5t76 -161.5q0 -24 -5 -47t-12 -41.5t-22 -39 t-26 -34.5t-34 -33.5t-35.5 -30t-41.5 -30t-42 -27.5l-45.5 -28t-43.5 -27q-92 -60 -132 -105.5t-40 -115.5h481zM1399 1434l-684 -1434h-117l686 1434h115zM1202 76l53 78q43 -27 115 -51.5t143 -24.5q91 0 152 45.5t61 120.5q0 47 -27 83.5t-71 56t-91.5 29t-96.5 9.5h-43 v94h49q96 0 168 38.5t72 109.5q0 55 -45 86.5t-121 31.5q-113 0 -228 -71l-47 69q19 15 52.5 34t100.5 39.5t134 20.5q126 0 195 -58.5t69 -143.5q0 -63 -43 -116t-129 -81q93 -22 152 -84.5t59 -148.5q0 -105 -79.5 -180.5t-231.5 -75.5q-95 0 -181.5 29t-140.5 61z" />
<glyph unicode="&#x2155;" horiz-adv-x="1677" d="M381 573h-111v752l-159 -80l-50 74l218 115h102v-861zM1110 1434l-684 -1434h-117l686 1434h115zM967 436l49 424h491v-92h-403l-25 -254q79 33 160 33q138 0 222.5 -80.5t84.5 -196.5q0 -117 -85 -200.5t-238 -83.5q-143 0 -293 90l51 80q20 -14 48.5 -28.5t81.5 -31 t99 -16.5q91 0 155.5 52.5t64.5 137.5q0 79 -56 133t-155 54q-91 0 -191 -54z" />
<glyph unicode="&#x2156;" horiz-adv-x="1960" d="M719 666v-93h-606v70q0 49 15 92t37.5 74.5t59 63t70 54.5t79.5 53q18 11 27 17q53 35 80.5 54.5t61.5 49.5t48.5 59.5t14.5 62.5q0 59 -46.5 96t-129.5 37q-68 0 -134 -24.5t-106 -53.5l-53 72q146 98 301 98q127 0 203 -61.5t76 -161.5q0 -24 -5 -47t-12 -41.5t-22 -39 t-26 -34.5t-34 -33.5t-35.5 -30t-41.5 -30t-42 -27.5l-45.5 -28t-43.5 -27q-92 -60 -132 -105.5t-40 -115.5h481zM1399 1434l-684 -1434h-117l686 1434h115zM1253 436l50 424h491v-92h-403l-25 -254q79 33 160 33q138 0 222.5 -80.5t84.5 -196.5q0 -117 -85.5 -200.5 t-238.5 -83.5q-142 0 -292 90l51 80q20 -14 48.5 -28.5t81.5 -31t99 -16.5q91 0 155 52.5t64 137.5q0 79 -56 133t-155 54q-90 0 -190 -54z" />
<glyph unicode="&#x2157;" horiz-adv-x="1919" d="M92 649l53 78q43 -27 115 -51.5t143 -24.5q91 0 152 45.5t61 120.5q0 47 -27 83.5t-71 56t-91.5 29t-96.5 9.5h-43v95h49q96 0 167.5 38t71.5 109q0 55 -45 87t-120 32q-111 0 -228 -72l-47 70q19 15 52.5 34t100.5 39.5t134 20.5q126 0 195 -59t69 -144 q0 -63 -43 -115.5t-129 -80.5q93 -22 152 -85t59 -149q0 -105 -79.5 -180.5t-231.5 -75.5q-95 0 -181.5 29t-140.5 61zM1356 1434l-684 -1434h-117l686 1434h115zM1210 436l50 424h491v-92h-403l-25 -254q79 33 160 33q138 0 222.5 -80.5t84.5 -196.5q0 -117 -85.5 -200.5 t-238.5 -83.5q-142 0 -292 90l51 80q20 -14 48.5 -28.5t81.5 -31t99 -16.5q91 0 155 52.5t64 137.5q0 79 -56 133t-155 54q-90 0 -190 -54z" />
<glyph unicode="&#x2158;" horiz-adv-x="1970" d="M72 764v80l434 590h145v-580h137v-90h-137v-191h-110v191h-469zM190 854h351v485zM1407 1434l-684 -1434h-117l686 1434h115zM1262 436l49 424h491v-92h-403l-25 -254q79 33 160 33q138 0 222.5 -80.5t84.5 -196.5q0 -117 -85 -200.5t-238 -83.5q-143 0 -293 90l51 80 q20 -14 48.5 -28.5t81.5 -31t99 -16.5q91 0 155 52.5t64 137.5q0 79 -56 133t-155 54q-90 0 -190 -54z" />
<glyph unicode="&#x2159;" horiz-adv-x="1637" d="M381 573h-111v752l-159 -80l-50 74l218 115h102v-861zM1110 1434l-684 -1434h-117l686 1434h115zM1335 782q-136 0 -231.5 -87.5t-120.5 -239.5q94 94 240 94q135 0 212.5 -78t77.5 -195q0 -122 -86 -206t-229 -84q-110 0 -187.5 53t-113 138t-35.5 192q0 216 132 360.5 t339 144.5q30 0 60.5 -3.5t45.5 -6.5l15 -4l-24 -86q-44 8 -95 8zM1204 463q-81 0 -143 -37.5t-86 -81.5q3 -125 61 -195.5t160 -70.5q98 0 152.5 58.5t54.5 137.5q0 76 -51 132.5t-148 56.5z" />
<glyph unicode="&#x215a;" horiz-adv-x="1841" d="M141 1010l49 424h492v-93h-403l-25 -254q79 33 160 33q139 0 223 -80t84 -196q0 -117 -85.5 -201t-238.5 -84q-143 0 -293 90l52 80q20 -14 48.5 -28.5t81.5 -31t99 -16.5q91 0 155 53t64 138q0 79 -56 132.5t-155 53.5q-92 0 -190 -53zM1319 1434l-684 -1434h-117 l686 1434h115zM1542 782q-136 0 -231.5 -87.5t-120.5 -239.5q94 94 240 94q135 0 212.5 -78t77.5 -195q0 -122 -86 -206t-229 -84q-110 0 -187.5 53t-113 138t-35.5 192q0 216 132 360.5t339 144.5q30 0 60.5 -3.5t45.5 -6.5l15 -4l-25 -86q-43 8 -94 8zM1411 463 q-81 0 -143 -37.5t-86 -81.5q3 -125 61 -195.5t160 -70.5q98 0 152.5 58.5t54.5 137.5q0 76 -51 132.5t-148 56.5z" />
<glyph unicode="&#x215b;" horiz-adv-x="1677" d="M381 573h-111v752l-159 -80l-50 74l218 115h102v-861zM1110 1434l-684 -1434h-117l686 1434h115zM899 221q0 158 217 244q-162 71 -162 201q0 95 77.5 151.5t203.5 56.5t203.5 -56.5t77.5 -151.5q0 -128 -166 -201q217 -87 217 -244q0 -108 -93.5 -171.5t-238.5 -63.5 q-148 0 -242 63.5t-94 171.5zM1454 227q0 36 -18.5 67t-53.5 55t-68.5 40t-80.5 33q-47 -17 -80.5 -33t-68.5 -40t-53.5 -55t-18.5 -67q0 -70 64 -111.5t159 -41.5t157 41.5t62 111.5zM1061 657q0 -31 15.5 -56.5t44.5 -44t53.5 -29.5t58.5 -23q35 12 59 23t53.5 29.5 t45.5 44t16 56.5q0 55 -49 94.5t-123 39.5q-76 0 -125 -39.5t-49 -94.5z" />
<glyph unicode="&#x215c;" horiz-adv-x="1925" d="M92 649l53 78q43 -27 115 -51.5t143 -24.5q91 0 152 45.5t61 120.5q0 47 -27 83.5t-71 56t-91.5 29t-96.5 9.5h-43v95h49q96 0 167.5 38t71.5 109q0 55 -45 87t-120 32q-111 0 -228 -72l-47 70q19 15 52.5 34t100.5 39.5t134 20.5q126 0 195 -59t69 -144 q0 -63 -43 -115.5t-129 -80.5q93 -22 152 -85t59 -149q0 -105 -79.5 -180.5t-231.5 -75.5q-95 0 -181.5 29t-140.5 61zM1356 1434l-684 -1434h-117l686 1434h115zM1145 221q0 158 217 244q-162 71 -162 201q0 95 77.5 151.5t203.5 56.5q125 0 202.5 -56.5t77.5 -151.5 q0 -128 -166 -201q217 -87 217 -244q0 -108 -93.5 -171.5t-237.5 -63.5q-148 0 -242 63.5t-94 171.5zM1700 227q0 36 -18.5 67t-53.5 55t-68.5 40t-80.5 33q-47 -17 -80.5 -33t-69 -40t-54 -55t-18.5 -67q0 -70 64.5 -111.5t159.5 -41.5t157 41.5t62 111.5zM1307 657 q0 -31 15.5 -56.5t44.5 -44t53.5 -29.5t58.5 -23q35 12 59 23t53.5 29.5t45.5 44t16 56.5q0 55 -49 94.5t-123 39.5q-76 0 -125 -39.5t-49 -94.5z" />
<glyph unicode="&#x215d;" horiz-adv-x="1882" d="M141 1010l49 424h492v-93h-403l-25 -254q79 33 160 33q139 0 223 -80t84 -196q0 -117 -85.5 -201t-238.5 -84q-143 0 -293 90l52 80q20 -14 48.5 -28.5t81.5 -31t99 -16.5q91 0 155 53t64 138q0 79 -56 132.5t-155 53.5q-92 0 -190 -53zM1319 1434l-684 -1434h-117 l686 1434h115zM1104 221q0 158 217 244q-162 71 -162 201q0 95 77.5 151.5t203.5 56.5q125 0 202.5 -56.5t77.5 -151.5q0 -128 -166 -201q218 -88 218 -244q0 -108 -93.5 -171.5t-238.5 -63.5q-148 0 -242 63.5t-94 171.5zM1659 227q0 36 -18.5 67t-53.5 55t-68.5 40 t-80.5 33q-47 -17 -80.5 -33t-68.5 -40t-53.5 -55t-18.5 -67q0 -70 64 -111.5t159 -41.5t157 41.5t62 111.5zM1266 657q0 -31 15.5 -56.5t44.5 -44t53.5 -29.5t58.5 -23q35 12 59 23t53.5 29.5t45.5 44t16 56.5q0 55 -49 94.5t-123 39.5q-76 0 -125 -39.5t-49 -94.5z" />
<glyph unicode="&#x215e;" horiz-adv-x="1698" d="M655 1352q-7 -8 -19 -23t-46.5 -63t-65.5 -98.5t-69 -124.5t-65.5 -146t-46.5 -158.5t-19 -165.5h-115q0 99 32 213t71.5 198.5t94 174t78 122t45.5 60.5h-458v93h583v-82zM1133 1434l-684 -1434h-117l686 1434h115zM920 221q0 158 217 244q-162 71 -162 201 q0 95 77.5 151.5t202.5 56.5q126 0 203.5 -56.5t77.5 -151.5q0 -128 -166 -201q217 -87 217 -244q0 -108 -93.5 -171.5t-238.5 -63.5q-148 0 -241.5 63.5t-93.5 171.5zM1475 227q0 36 -18.5 67t-54 55t-69 40t-80.5 33q-47 -17 -80.5 -33t-68.5 -40t-53.5 -55t-18.5 -67 q0 -70 64 -111.5t159 -41.5t157.5 41.5t62.5 111.5zM1081 657q0 -31 15.5 -56.5t44.5 -44t53.5 -29.5t58.5 -23q35 12 59 23t53.5 29.5t45.5 44t16 56.5q0 55 -49 94.5t-123 39.5q-76 0 -125 -39.5t-49 -94.5z" />
<glyph unicode="&#x2202;" horiz-adv-x="1256" d="M952 807q-16 73 -45 143t-77 139t-108 120.5t-143 83.5t-178 32q-38 0 -76 -4.5t-57 -8.5l-18 -5l-29 102q76 25 182 25q152 0 282 -64t221.5 -177t143.5 -274t52 -348q0 -134 -27 -238t-72 -170t-109.5 -108.5t-133.5 -60t-150 -17.5q-231 0 -364 135t-133 363 q0 226 128 363t339 137q76 0 142 -17.5t106.5 -42t70 -49t41.5 -42.5zM969 477q0 185 -94.5 287t-268.5 102q-173 0 -266.5 -107t-93.5 -284q0 -180 94 -284.5t266 -104.5q170 0 266.5 103t96.5 288z" />
<glyph unicode="&#x2206;" horiz-adv-x="1391" d="M1321 0h-1266l555 1434h152zM1143 117l-455 1159l-459 -1159h914z" />
<glyph unicode="&#x220f;" horiz-adv-x="1411" d="M1331 1434v-117h-223v-1317h-133v1317h-551v-1317h-135v1317h-223v117h1265z" />
<glyph unicode="&#x2211;" horiz-adv-x="1127" d="M111 1434h878v-117h-713l578 -600l-578 -600h713v-117h-878v115l571 602l-571 602v115z" />
<glyph unicode="&#x2212;" horiz-adv-x="1325" d="M145 629v106h1020v-106h-1020z" />
<glyph unicode="&#x221a;" horiz-adv-x="1159" d="M1114 1434l-614 -1434h-76l-367 696h142l256 -491l516 1229h143z" />
<glyph unicode="&#x221e;" horiz-adv-x="1905" d="M489 846q69 0 129 -17t123.5 -61t91 -67t94.5 -86q13 -11 19 -17q112 106 165 145q142 103 292 103q154 0 254 -92t100 -226t-100 -225.5t-256 -91.5q-63 0 -120 16t-114 52t-105 75t-116 103q-54 -50 -85.5 -78t-81.5 -65t-90 -56t-92.5 -33t-107.5 -14 q-156 0 -255 91.5t-99 225.5t99 226t255 92zM1403 741q-92 0 -175.5 -51t-203.5 -162q107 -97 149 -127q119 -86 232 -86q111 0 172 66.5t61 146.5q0 36 -14 72.5t-41.5 68.5t-74 52t-105.5 20zM487 315q42 0 85.5 12.5t74.5 27.5t73.5 47t63 50t63.5 57q14 13 21 19 q-83 76 -134.5 116t-115.5 68.5t-129 28.5q-59 0 -105.5 -20t-73 -52t-40.5 -68.5t-14 -72.5q0 -37 14 -73.5t41 -68t73 -51.5t103 -20z" />
<glyph unicode="&#x222b;" horiz-adv-x="803" d="M328 174v1133q0 117 18 192t63.5 125.5t121 72t192.5 21.5h29v-100h-50q-156 0 -206 -90q-33 -59 -35 -207v-70v-1132q0 -117 -18 -192.5t-64 -126.5t-121 -72t-192 -21h-29v100h47q71 0 119 19t72.5 43.5t36.5 81t14 95.5t2 123v5z" />
<glyph unicode="&#x2248;" horiz-adv-x="1325" d="M240 756l-93 37q99 200 281 200q64 0 131 -21.5t114.5 -48t109.5 -48t116 -21.5t96 25.5t82 101.5l92 -37q-101 -201 -280 -201q-52 0 -104.5 14.5t-96.5 35.5t-86.5 42t-90.5 35.5t-93 14.5q-52 0 -94 -26.5t-84 -102.5zM240 393l-93 37q101 203 281 203q64 0 131 -22 t114.5 -48.5t109.5 -48.5t116 -22q53 0 95 25.5t83 100.5l92 -34q-101 -203 -280 -203q-63 0 -130 22t-115 48.5t-110 48.5t-116 22q-52 0 -94 -26.5t-84 -102.5z" />
<glyph unicode="&#x2260;" horiz-adv-x="1325" d="M145 813v107h553l150 348l92 -37l-135 -311h360v-107h-405l-111 -256h516v-108h-563l-147 -345l-90 37l131 308h-351v108h398l108 256h-506z" />
<glyph unicode="&#x2264;" horiz-adv-x="1325" d="M1157 987l-866 -346l866 -344v-129l-1018 426v96l1018 426v-129zM137 0v100h1020v-100h-1020z" />
<glyph unicode="&#x2265;" horiz-adv-x="1325" d="M1169 690v-96l-1017 -426v129l864 344l-864 346v129zM1171 100v-100h-1019v100h1019z" />
<glyph unicode="&#x2318;" horiz-adv-x="1682" d="M1239 82q-118 0 -200.5 77t-82.5 187v160h-245v-160q0 -110 -82.5 -187t-198.5 -77q-120 0 -203.5 77t-83.5 187q0 108 84 185t203 77h174v221h-174q-119 0 -203 78t-84 187t83.5 185.5t203.5 76.5q116 0 198.5 -76.5t82.5 -185.5v-162h245v162q0 109 82.5 185.5 t200.5 76.5t200.5 -76.5t82.5 -185.5t-82.5 -187t-200.5 -78h-176v-221h176q118 0 200.5 -77t82.5 -185q0 -110 -82.5 -187t-200.5 -77zM1239 506h-176v-160q0 -68 51.5 -115t124.5 -47q72 0 124 47.5t52 114.5q0 66 -52 113t-124 47zM604 506h-174q-75 0 -127.5 -47 t-52.5 -113q0 -68 52.5 -115t127.5 -47q72 0 123 47.5t51 114.5v160zM711 829v-221h245v221h-245zM1063 1094v-162h176q72 0 124 47.5t52 114.5q0 66 -52 112.5t-124 46.5q-73 0 -124.5 -46.5t-51.5 -112.5zM430 932h174v162q0 66 -51 112.5t-123 46.5q-75 0 -127.5 -46.5 t-52.5 -112.5q0 -68 52.5 -115t127.5 -47z" />
<glyph unicode="&#x25ca;" horiz-adv-x="1118" d="M631 0h-162l-391 717l391 717h162l393 -717zM883 717l-334 608l-330 -608l330 -608z" />
<glyph unicode="&#x25fc;" horiz-adv-x="1090" d="M0 1075h1075v-1075h-1075v1075z" />
<glyph unicode="&#xf639;" horiz-adv-x="1251" d="M618 1456q256 0 387.5 -190.5t131.5 -548.5t-131.5 -549t-387.5 -191t-389 191.5t-133 548.5t133 548t389 191zM618 88q133 0 220 79.5t125 217t38 332.5q0 145 -22 258t-67.5 196.5t-119.5 127.5t-174 44q-197 0 -291 -165t-94 -461q0 -195 38.5 -332.5t126 -217 t220.5 -79.5z" />
<glyph unicode="&#xf63a;" horiz-adv-x="1251" d="M1079 117v-117h-923v104q0 69 14.5 129t45 110.5t64.5 91.5t85.5 83t95 73t106.5 73q10 6 15.5 10t14 9.5t15.5 10.5q65 45 103.5 73t88 71.5t76 79.5t45.5 82.5t19 95.5q0 108 -80.5 175.5t-220.5 67.5q-111 0 -212.5 -39.5t-168.5 -87.5l-67 93q211 151 452 151 q194 0 312 -97t118 -261q0 -88 -31 -162t-107 -145.5t-126.5 -109.5t-165.5 -115q-14 -10 -22 -15.5t-20.5 -13.5t-22.5 -15q-62 -42 -99 -70.5t-77 -67t-61 -75t-34.5 -85.5t-13.5 -107h782z" />
<glyph unicode="&#xf63b;" horiz-adv-x="1251" d="M133 117l64 100q60 -40 175 -81.5t230 -41.5q156 0 260.5 83.5t104.5 219.5q0 70 -29.5 127.5t-77.5 94.5t-110.5 62.5t-125.5 36.5t-126 11h-64v119h74q103 0 191 29.5t146 92.5t58 148q0 103 -78.5 162t-210.5 59q-183 0 -356 -118l-61 90q23 18 55.5 37t90 46 t133 44.5t153.5 17.5q191 0 299 -97t108 -235q0 -66 -26.5 -126.5t-92.5 -117t-165 -89.5q155 -36 253.5 -142t98.5 -252q0 -80 -30.5 -154t-89 -134t-154 -96t-214.5 -36q-143 0 -273.5 45t-209.5 95z" />
<glyph unicode="&#xf63c;" horiz-adv-x="1251" d="M74 330v106l702 998h168v-988h219v-116h-219v-330h-131v330h-739zM217 446h596v863z" />
<glyph unicode="&#xf63d;" horiz-adv-x="1251" d="M207 731l78 703h743v-117h-639l-41 -479q119 63 264 63q142 0 251 -62.5t165.5 -165.5t56.5 -229q0 -90 -32 -172.5t-92 -149t-157 -106t-216 -39.5q-211 0 -438 138l63 102q30 -20 74 -43.5t129 -50.5t159 -27q98 0 182.5 42.5t137.5 123.5t53 184q0 144 -96.5 242 t-259.5 98q-154 0 -313 -92z" />
<glyph unicode="&#xf63e;" horiz-adv-x="1251" d="M844 1341q-77 0 -150.5 -21.5t-144 -69t-127 -116.5t-98 -170.5t-58.5 -224.5q22 28 54.5 54.5t81 55.5t116.5 46.5t144 17.5q108 0 195.5 -36.5t143.5 -99.5t85.5 -144.5t29.5 -173.5q0 -130 -56.5 -238.5t-167.5 -176t-257 -67.5q-102 0 -188 34t-145.5 91.5 t-100.5 134t-60.5 161t-19.5 173.5q-1 213 60 385.5t163.5 279.5t230 163.5t265.5 56.5q46 0 92 -5.5t69 -10.5l23 -6l-33 -111q-67 18 -147 18zM645 803q-73 0 -140.5 -21.5t-116 -56t-82.5 -72.5t-50 -75v-13q0 -75 14 -143t44 -128.5t73.5 -105t106.5 -70.5t139 -26 q84 0 152.5 32t110.5 84.5t64.5 117t22.5 133.5q0 51 -11.5 99t-38 93t-65 78.5t-96 53.5t-127.5 20z" />
<glyph unicode="&#xf63f;" horiz-adv-x="1251" d="M1069 1333q-11 -14 -30 -39t-74 -107t-105 -167t-111.5 -212t-105.5 -249.5t-74 -271.5t-30 -287h-144q0 123 27 259t66 251.5t95.5 239t103 208.5t102 174t78 121.5t44.5 63.5h-745v117h903v-101z" />
<glyph unicode="&#xf640;" horiz-adv-x="1251" d="M106 365q0 265 357 407q-273 118 -273 340q0 156 119.5 250t306.5 94q189 0 310 -94t121 -250q0 -222 -275 -340q358 -144 358 -407q0 -119 -70 -208.5t-185.5 -134.5t-258.5 -45t-257.5 45t-183.5 134t-69 209zM993 369q0 54 -23 102.5t-58 83t-87.5 67t-100.5 53.5 t-108 42q-60 -21 -107 -42t-99 -53.5t-86.5 -67t-57 -83t-22.5 -102.5q0 -128 107 -203.5t265 -75.5q161 0 269 75.5t108 203.5zM322 1104q0 -47 21 -88.5t49.5 -69t73.5 -53t77 -38.5t75 -28q43 15 75 28t77 38.5t74 53t50 69t21 88.5q0 101 -85 171.5t-214 70.5 q-126 0 -210 -70.5t-84 -171.5z" />
<glyph unicode="&#xf641;" horiz-adv-x="1251" d="M391 92q97 0 188 35.5t171.5 105.5t138 188.5t78.5 270.5q-22 -28 -54.5 -54.5t-80.5 -54.5t-116 -45.5t-143 -17.5q-143 0 -248 64t-155.5 165.5t-50.5 225.5q0 129 57 237.5t168.5 176t257.5 67.5q127 0 227.5 -51.5t161.5 -137t92.5 -189t32.5 -216.5 q1 -213 -60.5 -385.5t-164 -279.5t-230 -163.5t-266.5 -56.5q-46 0 -92 5.5t-69 11.5l-23 6l35 111q65 -19 145 -19zM590 631q138 0 243.5 69t145.5 152v16q0 94 -23 177.5t-67.5 150.5t-118 106t-166.5 39q-85 0 -154 -31.5t-111 -84t-64.5 -117t-22.5 -133.5 q0 -51 11.5 -99t38 -93t65 -78.5t96 -53.5t127.5 -20z" />
<glyph unicode="&#xf6c3;" horiz-adv-x="166" d="M16 -315v182h144l18 -186l-131 -222l-47 47l84 179h-68z" />
<glyph unicode="&#xf6dc;" horiz-adv-x="1251" d="M131 0v117h418v1175l-359 -188l-59 94l436 236h117v-1317h420v-117h-973z" />
<glyph unicode="&#xf6df;" horiz-adv-x="748" d="M444 -307h-84v94q-115 8 -193.5 96t-78.5 240q0 153 78.5 240.5t193.5 93.5v96h84v-100q21 -4 44 -11t39.5 -13t39 -17t33 -16.5t32 -17t25.5 -13.5l-51 -76q-5 3 -28 15.5t-40 21.5t-43.5 19.5t-50.5 16.5v-479q58 14 162 74l51 -78q-135 -72 -213 -86v-100zM197 123 q0 -102 45.5 -167t117.5 -77v486q-72 -11 -117.5 -76t-45.5 -166z" />
<glyph unicode="&#xf6e0;" horiz-adv-x="748" d="M444 788h-84v95q-115 8 -193.5 96t-78.5 240q0 153 78.5 240t193.5 93v97h84v-101q21 -4 44 -11t39.5 -13t39 -17t33 -16.5t32 -17t25.5 -13.5l-51 -76q-6 3 -28 15.5t-39.5 22t-44 20t-50.5 16.5v-479q58 14 162 74l51 -78q-135 -72 -213 -86v-101zM197 1219 q0 -102 45.5 -167t117.5 -77v485q-72 -11 -117.5 -75.5t-45.5 -165.5z" />
<glyph unicode="&#xf6e1;" horiz-adv-x="352" d="M113 -307v149h118l17 -157l-107 -158l-37 39l64 127h-55z" />
<glyph unicode="&#xf6e2;" horiz-adv-x="352" d="M113 788v150h118l17 -158l-107 -157l-37 39l64 126h-55z" />
<glyph unicode="&#xf6e3;" horiz-adv-x="811" d="M444 -430h-82v113q-146 18 -294 102l53 80q110 -67 241 -88v315l-14 6q-43 13 -74 25t-69 32.5t-61.5 44t-39.5 59t-16 77.5q0 104 76.5 165t197.5 66v111h82v-115q130 -17 256 -76l-49 -81q-94 43 -207 63v-293q78 -21 134.5 -49.5t86 -54.5t46 -58t20.5 -53t4 -45 q0 -110 -84 -172.5t-207 -65.5v-108zM625 -90q0 55 -45.5 89.5t-135.5 66.5v-295q77 3 129 38.5t52 100.5zM201 342q0 -54 39 -83t122 -56v272q-70 -5 -115.5 -38t-45.5 -95z" />
<glyph unicode="&#xf6e4;" horiz-adv-x="811" d="M444 666h-82v112q-144 18 -294 103l53 80q112 -68 241 -89v316l-14 6q-43 13 -74 25t-69 32.5t-61.5 44t-39.5 59t-16 77.5q0 104 76.5 165t197.5 66v111h82v-115q130 -17 256 -76l-49 -82q-98 45 -207 64v-293q78 -21 134.5 -49.5t86 -54.5t46 -58t20.5 -53t4 -45 q0 -110 -84 -172.5t-207 -65.5v-108zM625 1006q0 55 -45.5 88.5t-135.5 66.5v-295q77 3 129 39t52 101zM201 1438q0 -54 39.5 -83.5t121.5 -56.5v273q-70 -5 -115.5 -38t-45.5 -95z" />
<glyph unicode="&#xf6e7;" horiz-adv-x="346" d="M104 -307v149h123v-149h-123z" />
<glyph unicode="&#xf6e8;" horiz-adv-x="346" d="M104 788v150h123v-150h-123z" />
<glyph unicode="&#xf6e9;" horiz-adv-x="776" d="M551 788v86q-113 -100 -254 -100q-92 0 -158.5 51.5t-66.5 155.5q0 103 66.5 157t168.5 54q26 0 64.5 -4.5t63 -8.5t68.5 -12.5t48 -9.5v72q0 70 -32 102.5t-111 32.5q-80 0 -252 -53l-37 75q189 62 301 62q115 0 175 -51t60 -164v-445h-104zM324 860q115 0 227 94v142 q-15 2 -55.5 9.5t-79.5 13t-68 5.5q-168 0 -168 -139q0 -63 39 -94t105 -31z" />
<glyph unicode="&#xf6ea;" horiz-adv-x="811" d="M115 788v895h106v-333q115 98 240 98q113 0 184.5 -84t71.5 -254q0 -168 -71.5 -252t-184.5 -84q-123 0 -240 96v-82h-106zM440 1362q-61 0 -118.5 -29.5t-100.5 -75.5v-294q42 -46 100 -74.5t119 -28.5q83 0 126.5 65.5t43.5 184.5q0 120 -43 186t-127 66z" />
<glyph unicode="&#xf6eb;" horiz-adv-x="811" d="M682 788h-104v84q-111 -98 -240 -98q-115 0 -186.5 84t-71.5 252q0 170 71.5 254t186.5 84q127 0 240 -100v335h104v-895zM358 860q121 0 220 103v294q-101 105 -220 105q-84 0 -127 -66t-43 -186q0 -119 43.5 -184.5t126.5 -65.5z" />
<glyph unicode="&#xf6ec;" horiz-adv-x="772" d="M672 1085h-486q6 -106 59 -167.5t138 -61.5q94 0 252 88l49 -67q-49 -28 -80.5 -44.5t-99 -37.5t-127.5 -21q-130 0 -214.5 88t-84.5 250q0 158 88 247t229 89q136 0 210.5 -78t74.5 -203q0 -21 -2 -41.5t-4 -30.5zM391 1366q-88 0 -142 -57t-63 -158h389q0 215 -184 215 z" />
<glyph unicode="&#xf6ed;" horiz-adv-x="346" d="M221 788h-106v646h106v-646zM111 1561v120h116v-120h-116z" />
<glyph unicode="&#xf6ee;" horiz-adv-x="359" d="M225 788h-104v895h104v-895z" />
<glyph unicode="&#xf6ef;" horiz-adv-x="1217" d="M221 1434v-97q47 43 113.5 77t136.5 34q143 0 178 -121q47 45 117 83t145 38q99 0 143 -55.5t44 -145.5v-459h-105v441q0 133 -114 133q-57 0 -117 -34t-103 -77v-463h-106v441q0 133 -113 133q-57 0 -116.5 -33t-102.5 -76v-465h-106v646h106z" />
<glyph unicode="&#xf6f0;" horiz-adv-x="809" d="M715 1110q0 -159 -82 -247.5t-236 -88.5q-153 0 -235 89t-82 247q0 159 82 248.5t235 89.5t235.5 -89.5t82.5 -248.5zM608 1110q0 252 -211 252t-211 -252q0 -250 211 -250t211 250z" />
<glyph unicode="&#xf6f1;" horiz-adv-x="531" d="M221 1434v-140q5 14 19.5 36t43.5 51t80 47t113 14v-99q-65 0 -115 -21t-75.5 -51t-41.5 -60t-20 -51l-4 -21v-351h-106v646h106z" />
<glyph unicode="&#xf6f2;" horiz-adv-x="692" d="M369 1159q121 -30 183 -77.5t62 -127.5q0 -88 -70 -134t-177 -46q-148 0 -299 80l45 74q55 -29 123.5 -50.5t121.5 -21.5q64 0 107 24t43 72q0 26 -15 45.5t-45 34t-54.5 22t-63.5 18.5q-4 1 -6.5 1.5t-6 1.5t-6.5 2q-38 10 -65.5 18.5t-61 25t-54.5 35.5t-35.5 48.5 t-14.5 65.5q0 83 65.5 130.5t173.5 47.5q122 0 267 -68l-47 -67q-116 55 -215 55q-62 0 -102 -25t-40 -69q0 -13 3.5 -24t12 -20t16.5 -16.5t22.5 -14t24.5 -11t28 -9.5t27.5 -7.5t27.5 -6.5t25 -6z" />
<glyph unicode="&#xf6f3;" horiz-adv-x="522" d="M51 1354v80h94v161l107 25v-186h186v-80h-186v-420q0 -70 61 -70q49 0 129 35l41 -80q-116 -45 -186 -45q-152 0 -152 164v416h-94z" />
<glyph unicode="&#xf8ff;" horiz-adv-x="1770" d="M1526 670q-20 -7 -21 -22t15 -25l57 -41q11 -7 14.5 -14.5t-2 -13.5t-18.5 -9l-70 -13q-21 -3 -24.5 -16.5t10.5 -28.5l49 -49q13 -14 9 -24.5t-25 -10.5l-72 5q-20 0 -26.5 -12t5.5 -29l37 -62q10 -17 4 -25.5t-26 -5.5l-70 19q-18 6 -27.5 -5t-3.5 -30l23 -68 q8 -19 0 -26t-27 2l-63 31q-17 9 -28.5 1t-10.5 -30l10 -68q1 -21 -7.5 -25.5t-23.5 7.5l-57 43q-15 12 -28.5 5.5t-14.5 -26.5l-4 -69q-1 -20 -12 -23t-23 11l-47 55q-13 14 -26 12t-19 -22l-20 -68q-3 -13 -9.5 -18t-14 -1t-13.5 15l-35 61q-9 19 -22 19t-25 -19l-31 -61 q-6 -11 -13.5 -15t-14 1t-9.5 18l-20 68q-6 20 -19 22t-26 -12l-47 -55q-12 -14 -22 -11t-13 23l-4 69q-2 20 -15 26.5t-30 -5.5l-54 -43q-17 -13 -26.5 -8t-5.5 26l10 68q1 22 -10.5 30t-30.5 -1l-62 -31q-19 -9 -26.5 -2t0.5 26l22 68q8 19 -1.5 30t-28.5 5l-70 -19 q-20 -3 -26.5 5.5t3.5 25.5l39 62q11 17 4.5 29t-26.5 12l-72 -5q-21 0 -25 10.5t9 24.5l51 49q13 15 9 28.5t-25 16.5l-68 13q-21 4 -23.5 15.5t15.5 21.5l57 41q2 1 3.5 2.5l3 3l2.5 2.5t2 3l1 1q19 16 37 -12l33 -64q6 -12 13 -15.5t13.5 2t10.5 17.5l18 70q6 19 19.5 21 t25.5 -13l48 -53q14 -15 23 -11.5t11 23.5l4 70q3 20 15.5 25t27.5 -7l58 -43q17 -12 25.5 -6.5t4.5 25.5l-8 69q-3 20 8.5 28t28.5 -1l64 -29q19 -9 26.5 -1.5t1.5 26.5l-22 67q-8 19 0.5 29t27.5 4l15 -2q40 -77 70 -202.5t30 -217.5q-15 -18 -34.5 -27.5t-59.5 -9.5h-8 q0 46 -33 72q18 -21 18 -55v-15q-32 3 -32 39q0 43 -28 72t-77 29q-41 0 -68.5 -32t-27.5 -79q0 -60 49.5 -96.5t138.5 -36.5q85 0 172 42t156.5 112t125 154.5t86 175.5t30.5 169q0 59 -36.5 98t-94.5 39q-48 0 -85.5 -33.5t-37.5 -84.5q0 -106 119 -119q-29 -119 -60 -174 q-12 96 -43.5 178t-75.5 129q91 -120 107 -330l-29 -41q0 156 -51 287t-131 172q-5 9 2 18.5t22 12.5l70 12q19 3 21 13.5t-15 21.5l-59 39q-15 13 -13.5 26.5t19.5 20.5l64 29q14 4 19 10.5t0 13.5t-19 12l-64 27q-23 10 -20 29q11 6 14 16l35 62q9 19 20.5 18t16.5 -20 l20 -68q6 -21 18.5 -24t26.5 14l47 53q12 15 23 12.5t12 -22.5l4 -72q1 -21 14.5 -26t28.5 8l57 43q15 12 24 5.5t7 -26.5l-10 -70q-1 -20 10.5 -27.5t28.5 1.5l63 33q19 8 26.5 0t0.5 -29l-23 -64q-6 -20 3 -30t28 -4l70 14q20 6 26.5 -2t-4.5 -27l-37 -59 q-12 -17 -5.5 -29.5t26.5 -11.5l72 4q21 0 25 -11t-9 -24l-49 -53q-14 -13 -10.5 -26.5t24.5 -16.5l70 -12q43 -10 6 -39l-57 -39q-16 -10 -15 -24t21 -21l63 -27q12 -5 16.5 -12t0 -13.5t-16.5 -11.5zM745 254q106 0 212.5 65t183.5 162t125.5 212t48.5 214q0 63 -41 101 q24 -38 24 -84q0 -100 -47.5 -215t-126.5 -215q-85 -105 -188.5 -168.5t-212.5 -63.5q-57 0 -100 19q43 -27 122 -27z" />
<glyph unicode="&#xfb06;" horiz-adv-x="1804" d="M547 604q200 -54 294.5 -129.5t94.5 -204.5q0 -74 -31 -131.5t-85 -92t-120.5 -52t-142.5 -17.5q-120 0 -241 38.5t-214 90.5l60 97q87 -49 193.5 -84t195.5 -35q103 0 180.5 46.5t77.5 133.5q0 24 -7.5 46t-17.5 38.5t-31 33.5t-35 27.5t-45 24t-45.5 20t-50.5 17.5 t-47 14t-47 13q-43 12 -72 21t-70 24.5t-68.5 31.5t-57.5 40t-48 51.5t-30 64.5t-12 80q0 136 101.5 211.5t262.5 75.5q95 0 209 -31q-20 47 -20 115q0 145 93 228t251 83q178 0 270 -98t92 -269v-51h299v-102h-299v-764q0 -65 28 -92t79 -27q41 0 108 20t107 37l51 -98 q-51 -24 -131 -48t-149 -24q-217 0 -217 240v756h-152v102h152v72q0 122 -60 194t-188 72q-118 0 -183 -66.5t-65 -177.5q0 -81 31 -135q40 -16 96 -43l-60 -92q-188 92 -342 92q-103 0 -170 -45.5t-67 -126.5q0 -28 10 -53t23 -42.5t38 -34t44 -26.5t52.5 -21.5t51 -16.5 t50.5 -14q18 -5 26 -7z" />
<glyph horiz-adv-x="860" d="M264 651q137 0 232.5 87t121.5 241q-34 -36 -94.5 -65t-146.5 -29q-135 0 -212 77.5t-77 194.5q0 122 86 206.5t229 84.5q109 0 187 -53.5t113.5 -138.5t35.5 -193q0 -216 -132 -360t-341 -144q-29 0 -59 3.5t-45 7.5l-15 3l29 86q39 -8 88 -8zM397 971q80 0 142 37 t88 82q-3 124 -61.5 195t-159.5 71q-98 0 -152.5 -59.5t-54.5 -139.5q0 -76 50 -131t148 -55z" />
<glyph horiz-adv-x="1307" d="M530 1432q0 -111 -64 -170.5t-171 -59.5q-108 0 -170 59t-62 171t62 171.5t170 59.5q107 0 171 -60t64 -171zM440 1432q0 76 -38 117.5t-107 41.5q-68 0 -104.5 -41.5t-36.5 -117.5q0 -77 37 -118.5t104 -41.5q69 0 107 42t38 118zM930 1649l-484 -875h-90l482 875h92z M1227 1006q0 -112 -62.5 -172t-169.5 -60t-170 60t-63 172q0 111 63 170t170 59t169.5 -59t62.5 -170zM1139 1006q0 76 -37.5 117.5t-106.5 41.5q-68 0 -105.5 -41.5t-37.5 -117.5t37.5 -118t105.5 -42q69 0 106.5 41.5t37.5 118.5z" />
<glyph horiz-adv-x="2323" d="M74 973v102h149v158q0 240 262 240q134 0 426 -64q65 84 219 84q81 0 194 -18t194 -39v57h127v-1026l485 608h147l-362 -436l430 -639h-139l-369 547l-192 -232v-315h-127v1325q-283 55 -388 55q-58 0 -95.5 -28.5t-37.5 -87.5v-189h293v-102h-293v-973h-129v973h-518 v-973h-127v973h-149zM868 1253q0 38 4 54q-285 53 -387 53q-59 0 -97 -29t-38 -88v-168h518v178z" />
<glyph horiz-adv-x="1788" d="M74 973v102h149v158q0 240 262 240q134 0 426 -64q65 84 219 84q81 0 192.5 -18t193.5 -39v57h129v-1493h-129v1325q-283 55 -386 55q-58 0 -95.5 -28.5t-37.5 -87.5v-189h293v-102h-293v-973h-129v973h-518v-973h-127v973h-149zM868 1253q0 38 4 54q-285 53 -387 53 q-59 0 -97 -29t-38 -88v-168h518v178z" />
<glyph horiz-adv-x="1997" d="M74 973v102h149v158q0 240 262 240q145 0 418 -62q52 82 182 82q110 0 304 -66l-50 -96q-192 49 -239 49q-50 0 -77.5 -26t-27.5 -90v-189h484v271l125 40v-311h299v-102h-299v-764q0 -119 106 -119q69 0 215 57l49 -98q-52 -24 -130.5 -48t-147.5 -24q-217 0 -217 240 v756h-484v-973h-127v973h-518v-973h-127v973h-149zM868 1253q0 38 2 54q-285 53 -385 53q-59 0 -97 -29t-38 -88v-168h518v178z" />
<glyph horiz-adv-x="1903" d="M74 973v102h149v178q0 240 262 240q123 0 385 -57v57h129v-575q49 38 109.5 74t158.5 71t183 35q84 0 144.5 -26.5t93 -74t47 -103t14.5 -124.5v-770h-127v750q0 53 -9.5 94t-31.5 75t-62.5 52t-97.5 18q-106 0 -225.5 -61.5t-196.5 -128.5v-799h-129v1325 q-283 55 -385 55q-59 0 -97 -28.5t-38 -87.5v-189h295v-102h-295v-973h-127v973h-149z" />
<glyph horiz-adv-x="1751" d="M74 973v102h149v158q0 240 262 240q134 0 426 -64q65 84 224 84q146 0 403 -66l-53 -98q-2 0 -67.5 12t-103 18.5t-93 13.5t-86.5 7q-61 0 -99.5 -28.5t-38.5 -87.5v-189h594v-1075h-127v973h-467v-973h-129v973h-518v-973h-127v973h-149zM868 1253q0 38 4 54 q-285 53 -387 53q-59 0 -97 -29t-38 -88v-168h518v178z" />
<glyph horiz-adv-x="1137" d="M74 973v102h149v178q0 240 266 240q147 0 404 -66l-53 -98l-67 13q-67 12 -104 18t-93 13t-87 7q-62 0 -100.5 -28.5t-38.5 -87.5v-189h596v-1075h-127v973h-469v-973h-127v973h-149z" />
<glyph horiz-adv-x="1137" d="M74 973v102h149v178q0 240 266 240q147 0 404 -66l-53 -98l-67 13q-67 12 -104 18t-93 13t-87 7q-62 0 -100.5 -28.5t-38.5 -87.5v-189h596v-1138q0 -129 -13 -173q-21 -72 -103 -116q-67 -37 -207 -74l-45 100q39 12 66 21t52 20.5t41 18t30.5 19t22 18.5t14 23t9 25.5 t4.5 31.5t2 36v45v1041h-469v-973h-127v973h-149z" />
<glyph horiz-adv-x="1725" d="M74 973v102h149v178q0 240 262 240q125 0 387 -57v57h127v-1026l486 608h147l-362 -436l430 -639h-139l-369 547l-193 -232v-315h-127v1325q-283 55 -387 55q-59 0 -97 -28.5t-38 -87.5v-189h295v-102h-295v-973h-127v973h-149z" />
<glyph horiz-adv-x="2521" d="M74 973v102h149v158q0 240 262 240q134 0 426 -64q65 84 219 84q81 0 192.5 -18t193.5 -39v57h129v-575q83 64 206 122t244 58q299 0 299 -328v-770h-127v750q0 53 -9.5 94t-31.5 75t-62.5 52t-97.5 18q-107 0 -226 -61t-195 -127v-801h-129v1325q-283 55 -386 55 q-58 0 -95.5 -28.5t-37.5 -87.5v-189h293v-102h-293v-973h-129v973h-518v-973h-127v973h-149zM868 1253q0 38 4 54q-285 53 -387 53q-59 0 -97 -29t-38 -88v-168h518v178z" />
<glyph horiz-adv-x="1174" d="M74 973v102h149v178q0 240 262 240q123 0 385 -57v57h129v-1493h-129v1325q-283 55 -385 55q-59 0 -97 -28.5t-38 -87.5v-189h295v-102h-295v-973h-127v973h-149z" />
<glyph horiz-adv-x="1381" d="M74 973v102h149v178q0 69 16.5 117.5t48 74.5t69 37t85.5 11q107 0 301 -66l-49 -96q-184 49 -239 49q-50 0 -77.5 -26t-27.5 -90v-189h481v271l127 40v-311h299v-102h-299v-764q0 -119 105 -119q78 0 217 57l51 -98q-51 -24 -131.5 -48t-148.5 -24q-220 0 -220 240v756 h-481v-973h-127v973h-149z" />
<glyph horiz-adv-x="488" d="M51 258v80h94v88q0 162 152 162q75 0 201 -41l-39 -78q-105 31 -146 31q-30 0 -45.5 -15.5t-15.5 -54.5v-92h182v-80h-182v-565h-107v565h-94z" />
<glyph horiz-adv-x="1288" d="M1092 1176v-754q0 -440 -453 -440q-459 0 -459 440v754h127v-756q0 -58 8 -103.5t30.5 -88.5t59 -71.5t96 -45.5t138.5 -17q78 0 136 17t94 45.5t58 71.5t30 88.5t8 103.5v756h127zM602 1282h-110l249 262h197z" />
<glyph horiz-adv-x="813" d="M125 436l49 424h492v-92h-404l-24 -254q79 33 159 33q139 0 223.5 -80.5t84.5 -196.5q0 -117 -85.5 -200.5t-238.5 -83.5q-143 0 -293 90l51 80q20 -13 49 -28t82 -31.5t99 -16.5q91 0 155 52.5t64 137.5q0 79 -56 133t-155 54q-91 0 -191 -54z" />
<glyph horiz-adv-x="813" d="M125 1010l49 424h492v-93h-404l-24 -254q79 33 159 33q139 0 223.5 -80t84.5 -196q0 -117 -85.5 -201t-238.5 -84q-143 0 -293 90l51 80q20 -13 49 -28t82 -31.5t99 -16.5q91 0 155 53t64 138q0 79 -56 132.5t-155 53.5q-93 0 -191 -53z" />
<glyph horiz-adv-x="1161" d="M158 473l78 703h743v-117h-639l-41 -479q119 63 264 63q142 0 251 -62.5t165.5 -165.5t56.5 -229q0 -90 -32 -172.5t-92 -149t-157 -106t-216 -39.5q-212 0 -439 138l64 102q30 -20 74 -43.5t129 -50.5t159 -27q98 0 182.5 42.5t137.5 123.5t53 184q0 144 -96.5 242 t-259.5 98q-155 0 -314 -92z" />
<glyph horiz-adv-x="2515" d="M74 973v102h149v158q0 240 262 240q134 0 426 -64q65 84 219 84q81 0 192.5 -18t193.5 -39v57h129v-563q181 168 383 168q86 0 158.5 -32t129.5 -97t89 -175.5t32 -256.5t-32 -256t-89 -175t-129.5 -97t-158.5 -32q-200 0 -383 166v-143h-129v1325q-283 55 -386 55 q-58 0 -95.5 -28.5t-37.5 -87.5v-189h293v-102h-293v-973h-129v973h-518v-973h-127v973h-149zM2015 987q-105 0 -201 -51t-169 -131v-537q72 -79 168 -129.5t202 -50.5q140 0 215.5 119.5t75.5 329.5q0 212 -75 331t-216 119zM868 1253q0 38 4 54q-285 53 -387 53 q-59 0 -97 -29t-38 -88v-168h518v178z" />
<glyph horiz-adv-x="1682" d="M977 182q0 129 190 199q-143 59 -143 166q0 76 69 123t177 47q107 0 175 -47t68 -123q0 -108 -145 -166q85 -33 139 -79.5t54 -119.5q0 -89 -82 -141.5t-209 -52.5q-128 0 -210.5 52.5t-82.5 141.5zM139 827l43 349h426v-78h-352l-18 -205q71 27 137 27 q123 0 194.5 -66.5t71.5 -161.5q0 -96 -73.5 -164.5t-205.5 -68.5q-124 0 -256 73l46 68q17 -11 42.5 -23t71.5 -25t86 -13q78 0 134.5 42.5t56.5 110.5q0 64 -49.5 108t-135.5 44q-82 0 -165 -45zM1163 1176l-598 -1176h-98l596 1176h100zM1462 186q0 30 -16.5 55.5 t-47.5 45t-60.5 32.5t-69.5 27q-193 -62 -193 -160q0 -57 56.5 -91t138.5 -34q81 0 136.5 34t55.5 91zM1116 537q0 -26 14 -47t40 -36t47 -23t51 -17q151 40 151 123q0 45 -43 77.5t-106 32.5q-67 0 -110.5 -33t-43.5 -77z" />
<glyph horiz-adv-x="1639" d="M1358 641q-121 0 -204 -72t-105 -198q80 80 211 80q117 0 184 -64.5t67 -159.5q0 -101 -74 -170t-200 -69q-143 0 -218 89t-75 226q0 177 116 295.5t296 118.5q27 0 53 -3t39 -6l12 -3l-20 -72q-39 8 -82 8zM139 827l43 349h426v-78h-352l-18 -205q71 27 137 27 q123 0 194.5 -66.5t71.5 -161.5q0 -96 -73.5 -164.5t-205.5 -68.5q-124 0 -256 73l46 68q17 -11 42.5 -23t71.5 -25t86 -13q78 0 134.5 42.5t56.5 110.5q0 64 -49.5 108t-135.5 44q-82 0 -165 -45zM1163 1176l-598 -1176h-98l596 1176h100zM1243 377q-72 0 -126 -30.5 t-75 -67.5q3 -99 54 -156t141 -57q85 0 132.5 47.5t47.5 111.5q0 62 -44 107t-130 45z" />
<glyph horiz-adv-x="1338" d="M74 973v102h149v158q0 240 262 240q145 0 418 -62q52 82 184 82q108 0 302 -66l-50 -96q-184 49 -239 49q-50 0 -76.5 -26t-26.5 -90v-189h293v-102h-293v-973h-129v973h-518v-973h-127v973h-149zM350 1243v-168h518v178q0 38 2 54q-285 53 -385 53q-59 0 -97 -29 t-38 -88z" />
<glyph horiz-adv-x="1288" d="M1092 1176v-754q0 -440 -453 -440q-459 0 -459 440v754h127v-756q0 -58 8 -103.5t30.5 -88.5t59 -71.5t96 -45.5t138.5 -17q78 0 136 17t94 45.5t58 71.5t30 88.5t8 103.5v756h127z" />
<glyph horiz-adv-x="764" d="M715 1556h-285v-768h-108v768h-285v93h678v-93z" />
<glyph horiz-adv-x="875" d="M68 190v80l434 590h145v-579h137v-91h-137v-190h-110v190h-469zM186 281h351v485z" />
<glyph horiz-adv-x="875" d="M68 764v80l434 590h145v-580h137v-90h-137v-191h-110v191h-469zM186 854h351v485z" />
<glyph horiz-adv-x="1254" d="M70 72v106l700 998h170v-988h221v-116h-221v-330h-133v330h-737zM213 188h594v859z" />
<glyph horiz-adv-x="1419" d="M74 973v102h149v178q0 69 16.5 117.5t48 74.5t69 37t85.5 11q107 0 301 -66l-49 -96q-184 49 -239 49q-50 0 -77.5 -26t-27.5 -90v-189h291v-102h-291v-973h-127v973h-149zM776 973v102h150v178q0 240 211 240q98 0 247 -51l-43 -96q-126 34 -184 34q-50 0 -77 -26 t-27 -90v-189h295v-102h-295v-973h-127v973h-150z" />
<glyph horiz-adv-x="1753" d="M80 625v67l379 484h123v-476h120v-75h-120v-154h-93v154h-409zM1116 356l41 349h430v-76h-352l-21 -209q71 29 140 29q121 0 192.5 -65.5t71.5 -160.5q0 -97 -73.5 -166t-205.5 -69q-117 0 -254 73l45 68q24 -17 82 -38t117 -21q78 0 134.5 42.5t56.5 110.5 q0 63 -49.5 106.5t-135.5 43.5q-96 0 -166 -45zM1243 1176l-596 -1176h-100l594 1176h102zM182 700h307v400z" />
<glyph horiz-adv-x="1899" d="M74 973v102h149v178q0 240 262 240q123 0 385 -57v57h129v-563q181 168 383 168q86 0 158.5 -32t130 -97t89.5 -175.5t32 -256.5t-32.5 -256t-89.5 -175t-129.5 -97t-158.5 -32q-200 0 -383 166v-143h-129v1325q-283 55 -385 55q-59 0 -97 -28.5t-38 -87.5v-189h295v-102 h-295v-973h-127v973h-149zM1370 987q-105 0 -201.5 -51.5t-169.5 -130.5v-537q72 -79 168.5 -129.5t202.5 -50.5q140 0 215.5 119.5t75.5 329.5q0 212 -75 331t-216 119z" />
<glyph horiz-adv-x="719" d="M74 973v102h149v178q0 240 211 240q99 0 248 -51l-43 -96q-126 34 -184 34q-50 0 -77.5 -26t-27.5 -90v-189h295v-102h-295v-973h-127v973h-149z" />
<glyph horiz-adv-x="1202" d="M1108 1317h-741v-543h596v-117h-596v-280h368v-94h-368v-283h-134v283h-116v94h116v1057h875v-117z" />
<glyph horiz-adv-x="1088" d="M987 1067h-645v-426h516v-109h-516v-221h324v-86h-324v-225h-127v225h-100v86h100v865h772v-109z" />
<glyph horiz-adv-x="795" d="M725 461h-461v-293h369v-90h-369v-158h234v-67h-234v-160h-110v160h-76v67h76v633h571v-92z" />
<glyph horiz-adv-x="795" d="M725 1556h-461v-292h369v-90h-369v-158h234v-68h-234v-160h-110v160h-76v68h76v633h571v-93z" />
<glyph horiz-adv-x="488" d="M51 1354v80h94v88q0 161 152 161q75 0 201 -41l-39 -77q-101 30 -146 30q-30 0 -45.5 -15t-15.5 -54v-92h182v-80h-182v-566h-107v566h-94z" />
<glyph horiz-adv-x="764" d="M715 461h-285v-768h-108v768h-285v92h678v-92z" />
<glyph horiz-adv-x="1200" d="M1079 610q0 -98 -34.5 -169.5t-98 -112t-143.5 -59.5t-180 -19h-306v-250h-127v1176h127v-213h306q100 0 180 -18.5t143.5 -58.5t98 -110t34.5 -166zM948 610q0 242 -327 242h-304v-494h304q150 0 238.5 60t88.5 192z" />
<glyph horiz-adv-x="1049" d="M283 -307l36 86q62 -29 107 -29q55 0 87 24.5t32 75.5q0 70 -60 150h-32v1065h-398v111h924v-111h-397v-1065h-25q80 -96 80 -180q0 -76 -55 -120t-144 -44q-80 0 -155 37z" />
<glyph horiz-adv-x="1049" d="M979 1065h-397v-1065h-129v1065h-398v111h924v-111zM799 1544l-201 -262h-166l-199 262h103l178 -182l180 182h105z" />
<glyph horiz-adv-x="1069" d="M989 1065h-397v-590h199v-86h-199v-389h-129v389h-201v86h201v590h-397v111h923v-111z" />
<glyph horiz-adv-x="858" d="M406 592q126 0 204 -57.5t78 -151.5q0 -32 -10 -58.5t-20 -37.5l-9 -11q-131 -36 -131 -110q0 -12 3 -22t10.5 -19.5t13.5 -16.5t20.5 -17t23 -15.5t28.5 -17.5t30 -19q67 -44 100 -84.5t33 -99.5q0 -81 -59.5 -129t-149.5 -48q-62 0 -131.5 21.5t-120.5 50.5l41 72 q122 -62 203 -62q48 0 80.5 25.5t32.5 69.5q0 36 -24.5 61t-82.5 57q-77 43 -104 69q-49 48 -49 114q0 40 16 71.5t45 52t51.5 31.5t51.5 21q8 24 8 45q0 60 -48 94.5t-130 34.5q-88 0 -138.5 -49t-50.5 -168v-596h-106v598q0 154 78 227.5t213 73.5z" />
<glyph horiz-adv-x="858" d="M406 1688q126 0 204 -57.5t78 -151.5q0 -32 -10 -58.5t-20 -37.5l-9 -11q-131 -36 -131 -110q0 -12 3 -22t10.5 -19.5t13.5 -16.5t20.5 -17t23 -15.5t28.5 -17.5t30 -19q67 -44 100 -85t33 -100q0 -81 -59.5 -128.5t-149.5 -47.5q-62 0 -131.5 21.5t-120.5 50.5l41 72 q122 -62 203 -62q48 0 80.5 25t32.5 69q0 36 -25 61.5t-82 57.5q-75 42 -101 66q-52 49 -52 116q0 40 16 71.5t45 52t51.5 31.5t51.5 21q8 24 8 46q0 60 -48 94.5t-130 34.5q-88 0 -138.5 -49.5t-50.5 -168.5v-596h-106v598q0 154 78 228t213 74z" />
<glyph horiz-adv-x="811" d="M578 338h104v-682q0 -225 -256 -225q-148 0 -315 45q3 9 10.5 40t13.5 46q164 -47 275 -47q86 0 127 32.5t41 106.5v123q-112 -99 -240 -99q-115 0 -186.5 84t-71.5 252q0 170 71.5 254t186.5 84q127 0 240 -100v86zM358 -236q121 0 220 103v295q-100 104 -220 104 q-84 0 -127 -66t-43 -186q0 -119 43.5 -184.5t126.5 -65.5z" />
<glyph horiz-adv-x="1049" d="M979 1065h-397v-1065h-129v1065h-398v111h924v-111z" />
<glyph horiz-adv-x="811" d="M449 1272q47 -14 79.5 -26.5t75 -35t68.5 -48t44.5 -64.5t18.5 -86q0 -113 -87.5 -175.5t-215.5 -62.5q-176 0 -364 107l53 80q68 -38 153 -66.5t156 -28.5q81 0 138 36t57 104q0 34 -18 61t-55.5 47.5t-75 35t-94.5 33.5q-7 2 -11.5 3.5t-11 3.5t-11.5 4q-43 13 -74 25 t-69 32.5t-61.5 44t-39.5 59t-16 77.5q0 107 81.5 169t207.5 62q77 0 165.5 -23.5t157.5 -56.5l-49 -82q-61 29 -137.5 49.5t-132.5 20.5q-76 0 -128 -33.5t-52 -99.5q0 -42 33.5 -73t66 -44t114.5 -38q22 -7 34 -11z" />
<glyph horiz-adv-x="1288" d="M1092 1176v-754q0 -440 -453 -440q-459 0 -459 440v754h127v-756q0 -58 8 -103.5t30.5 -88.5t59 -71.5t96 -45.5t138.5 -17q78 0 136 17t94 45.5t58 71.5t30 88.5t8 103.5v756h127zM635 1282q-130 0 -203.5 57t-73.5 154h101q0 -117 176 -117q178 0 178 117h100 q0 -98 -73.5 -154.5t-204.5 -56.5z" />
<glyph horiz-adv-x="811" d="M578 1434h104v-682q0 -226 -256 -226q-148 0 -315 45q3 9 10.5 40t13.5 46q164 -47 275 -47q86 0 127 33t41 107v122q-111 -98 -240 -98q-115 0 -186.5 84t-71.5 252q0 170 71.5 254t186.5 84q127 0 240 -100v86zM358 860q121 0 220 103v294q-101 105 -220 105 q-84 0 -127 -66t-43 -186q0 -119 43.5 -184.5t126.5 -65.5z" />
<glyph horiz-adv-x="811" d="M449 176q47 -14 79.5 -26.5t75 -35t68.5 -48t44.5 -64.5t18.5 -86q0 -113 -87.5 -175.5t-215.5 -62.5q-176 0 -364 107l53 80q68 -38 153 -66t156 -28q82 0 138.5 35.5t56.5 103.5q0 34 -18 61t-55.5 47.5t-75 35t-94.5 33.5q-23 7 -34 11q-43 13 -74 25t-69 32.5 t-61.5 44t-39.5 59t-16 77.5q0 107 81.5 169t207.5 62q77 0 165.5 -23.5t157.5 -56.5l-49 -81q-61 29 -137 49t-133 20q-76 0 -128 -33.5t-52 -99.5q0 -42 33.5 -73t66 -44t114.5 -38q22 -7 34 -11z" />
<glyph horiz-adv-x="1110" d="M596 659q49 -15 80 -26t78.5 -30.5t78.5 -38t66.5 -47t56 -59t34.5 -71.5t14 -88q0 -103 -60.5 -176.5t-152 -107t-201.5 -33.5q-124 0 -256 42t-232 99l62 94q95 -51 212.5 -89t217.5 -38q114 0 197 52.5t83 150.5q0 42 -21 77.5t-44.5 58t-81.5 48.5t-90.5 37.5 t-111.5 37.5l-27 9q-65 19 -107.5 34.5t-96.5 44t-86 60t-54.5 80t-22.5 107.5q0 96 53.5 167t140 105.5t193.5 34.5q105 0 223.5 -31.5t212.5 -77.5l-61 -94q-88 40 -191 67t-184 27q-107 0 -182.5 -49t-75.5 -143q0 -24 5 -44t17.5 -37.5t24 -30.5t35.5 -26.5t40 -22 t48.5 -20t50.5 -17.5t57.5 -18t57.5 -18zM492 -315v182h143l18 -186l-131 -222l-47 47l84 179h-67z" />
<glyph horiz-adv-x="375" d="M121 788v142h121v-142h-121zM244 1649l-31 -605h-66l-30 605h127z" />
<glyph horiz-adv-x="375" d="M121 -307v141h121v-141h-121zM244 553l-31 -604h-66l-30 604h127z" />
<glyph horiz-adv-x="1110" d="M596 659q49 -15 80 -26t78.5 -30.5t78.5 -38t66.5 -47t56 -59t34.5 -71.5t14 -88q0 -103 -60.5 -176.5t-152 -107t-201.5 -33.5q-124 0 -256 42t-232 99l62 94q95 -51 212.5 -89t217.5 -38q114 0 197 52.5t83 150.5q0 42 -21 77.5t-44.5 58t-81.5 48.5t-90.5 37.5 t-111.5 37.5l-27 9q-65 19 -107.5 34.5t-96.5 44t-86 60t-54.5 80t-22.5 107.5q0 96 53.5 167t140 105.5t193.5 34.5q105 0 223.5 -31.5t212.5 -77.5l-61 -94q-88 40 -191 67t-184 27q-107 0 -182.5 -49t-75.5 -143q0 -24 5 -44t17.5 -37.5t24 -30.5t35.5 -26.5t40 -22 t48.5 -20t50.5 -17.5t57.5 -18t57.5 -18zM635 1544l201 -262h-105l-180 184l-178 -184h-103l199 262h166z" />
<glyph horiz-adv-x="1110" d="M342 -307l37 86q62 -29 106 -29q55 0 87 24.5t32 75.5q0 58 -47 134q-118 6 -241 46.5t-214 92.5l62 94q95 -51 212.5 -89t217.5 -38q114 0 197 52.5t83 150.5q0 42 -21 77.5t-44.5 58t-81.5 48.5t-90.5 37.5t-111.5 37.5l-27 9q-65 19 -107.5 34.5t-96.5 44t-86 60 t-54.5 80t-22.5 107.5q0 96 53.5 167t140 105.5t193.5 34.5q105 0 223.5 -31.5t212.5 -77.5l-61 -94q-88 40 -191 67t-184 27q-107 0 -182.5 -49t-75.5 -143q0 -24 5 -44t17.5 -37.5t24 -30.5t35.5 -26.5t40 -22t48.5 -20t50.5 -17.5t57.5 -18t57.5 -18q49 -15 80 -26 t78.5 -30.5t78.5 -38t66.5 -47t56 -59t34.5 -71.5t14 -88q0 -73 -30.5 -132t-83 -97t-118.5 -59.5t-141 -26.5q65 -75 65 -164q0 -76 -54.5 -120t-143.5 -44q-81 0 -156 37z" />
<glyph horiz-adv-x="813" d="M221 588v-342q52 39 127 72.5t154 33.5q190 0 190 -200v-459h-106v440q0 133 -115 133q-64 0 -136 -34t-114 -70v-469h-106v895h106z" />
<glyph horiz-adv-x="1110" d="M596 659q49 -15 80 -26t78.5 -30.5t78.5 -38t66.5 -47t56 -59t34.5 -71.5t14 -88q0 -103 -60.5 -176.5t-152 -107t-201.5 -33.5q-124 0 -256 42t-232 99l62 94q95 -51 212.5 -89t217.5 -38q114 0 197 52.5t83 150.5q0 42 -21 77.5t-44.5 58t-81.5 48.5t-90.5 37.5 t-111.5 37.5l-27 9q-65 19 -107.5 34.5t-96.5 44t-86 60t-54.5 80t-22.5 107.5q0 96 53.5 167t140 105.5t193.5 34.5q105 0 223.5 -31.5t212.5 -77.5l-61 -94q-88 40 -191 67t-184 27q-107 0 -182.5 -49t-75.5 -143q0 -24 5 -44t17.5 -37.5t24 -30.5t35.5 -26.5t40 -22 t48.5 -20t50.5 -17.5t57.5 -18t57.5 -18zM836 1544l-201 -262h-166l-199 262h103l178 -182l180 182h105z" />
<glyph horiz-adv-x="375" d="M240 1649v-142h-121v142h121zM117 788l30 605h66l31 -605h-127z" />
<glyph horiz-adv-x="1110" d="M596 659q49 -15 80 -26t78.5 -30.5t78.5 -38t66.5 -47t56 -59t34.5 -71.5t14 -88q0 -103 -60.5 -176.5t-152 -107t-201.5 -33.5q-124 0 -256 42t-232 99l62 94q95 -51 212.5 -89t217.5 -38q114 0 197 52.5t83 150.5q0 42 -21 77.5t-44.5 58t-81.5 48.5t-90.5 37.5 t-111.5 37.5l-27 9q-65 19 -107.5 34.5t-96.5 44t-86 60t-54.5 80t-22.5 107.5q0 96 53.5 167t140 105.5t193.5 34.5q105 0 223.5 -31.5t212.5 -77.5l-61 -94q-88 40 -191 67t-184 27q-107 0 -182.5 -49t-75.5 -143q0 -24 5 -44t17.5 -37.5t24 -30.5t35.5 -26.5t40 -22 t48.5 -20t50.5 -17.5t57.5 -18t57.5 -18zM518 1282h-110l249 262h197z" />
<glyph horiz-adv-x="1110" d="M596 659q49 -15 80 -26t78.5 -30.5t78.5 -38t66.5 -47t56 -59t34.5 -71.5t14 -88q0 -103 -60.5 -176.5t-152 -107t-201.5 -33.5q-124 0 -256 42t-232 99l62 94q95 -51 212.5 -89t217.5 -38q114 0 197 52.5t83 150.5q0 42 -21 77.5t-44.5 58t-81.5 48.5t-90.5 37.5 t-111.5 37.5l-27 9q-65 19 -107.5 34.5t-96.5 44t-86 60t-54.5 80t-22.5 107.5q0 96 53.5 167t140 105.5t193.5 34.5q105 0 223.5 -31.5t212.5 -77.5l-61 -94q-88 40 -191 67t-184 27q-107 0 -182.5 -49t-75.5 -143q0 -24 5 -44t17.5 -37.5t24 -30.5t35.5 -26.5t40 -22 t48.5 -20t50.5 -17.5t57.5 -18t57.5 -18z" />
<glyph horiz-adv-x="912" d="M698 788l-235 365h-221v-365h-111v861h352q334 0 334 -250q0 -109 -64.5 -168.5t-177.5 -73.5l244 -369h-121zM707 1399q0 85 -60.5 123.5t-163.5 38.5h-241v-320h235q107 0 168.5 38t61.5 120z" />
<glyph horiz-adv-x="912" d="M698 -307l-235 364h-221v-364h-111v860h352q334 0 334 -250q0 -109 -64.5 -168.5t-177.5 -73.5l244 -368h-121zM707 303q0 85 -60.5 123.5t-163.5 38.5h-241v-320h235q107 0 168.5 38t61.5 120z" />
<glyph horiz-adv-x="1254" d="M977 0l-330 506h-330v-506h-127v1176h472q101 0 181 -18t143 -56t97.5 -104.5t34.5 -157.5q0 -152 -92 -232t-252 -98l346 -510h-143zM987 840q0 120 -86.5 174.5t-234.5 54.5h-349v-457h340q330 0 330 228zM541 -315v182h143l18 -186l-131 -222l-47 47l84 179h-67z" />
<glyph horiz-adv-x="1254" d="M977 0l-330 506h-330v-506h-127v1176h472q101 0 181 -18t143 -56t97.5 -104.5t34.5 -157.5q0 -152 -92 -232t-252 -98l346 -510h-143zM987 840q0 120 -86.5 174.5t-234.5 54.5h-349v-457h340q330 0 330 228zM940 1544l-201 -262h-166l-198 262h102l178 -182l181 182h104z " />
<glyph horiz-adv-x="1254" d="M977 0l-330 506h-330v-506h-127v1176h472q101 0 181 -18t143 -56t97.5 -104.5t34.5 -157.5q0 -152 -92 -232t-252 -98l346 -510h-143zM987 840q0 120 -86.5 174.5t-234.5 54.5h-349v-457h340q330 0 330 228zM621 1282h-111l250 262h196z" />
<glyph horiz-adv-x="346" d="M221 -307h-106v645h106v-645zM111 465v121h116v-121h-116z" />
<glyph horiz-adv-x="1254" d="M977 0l-330 506h-330v-506h-127v1176h472q101 0 181 -18t143 -56t97.5 -104.5t34.5 -157.5q0 -152 -92 -232t-252 -98l346 -510h-143zM987 840q0 120 -86.5 174.5t-234.5 54.5h-349v-457h340q330 0 330 228z" />
<glyph horiz-adv-x="985" d="M485 774q-105 0 -183 34.5t-123.5 97t-67 140.5t-21.5 173t21.5 173t67 140t123.5 96.5t183 34.5q104 0 182 -34.5t124 -96.5t68 -140t22 -173q0 -108 -27 -193.5t-90 -149.5t-158 -88l152 -114l-74 -76zM485 868q77 0 133.5 27t88.5 76t46.5 110.5t14.5 137.5 q0 61 -9 111.5t-29.5 95.5t-52.5 76t-81 49t-111 18q-282 0 -282 -350q0 -351 282 -351z" />
<glyph horiz-adv-x="375" d="M242 553v-141h-121v141h121zM119 -307l31 604h65l31 -604h-127z" />
<glyph horiz-adv-x="527" d="M330 1176v-185h-150v185h150zM182 0l35 829h76l35 -829h-146z" />
<glyph horiz-adv-x="985" d="M485 -322q-105 0 -183 34.5t-123.5 97t-67 140.5t-21.5 173t21.5 173t67 140t123.5 96.5t183 34.5q104 0 182 -34.5t124 -96.5t68 -140t22 -173q0 -165 -67 -280t-208 -150l152 -115l-74 -76zM485 -227q62 0 111 18t81 49t52.5 76t29.5 95.5t9 111.5t-9 111.5t-29.5 95.5 t-52.5 76t-81 49t-111 18q-282 0 -282 -350t282 -350z" />
<glyph horiz-adv-x="1288" d="M1092 1176v-754q0 -440 -453 -440q-459 0 -459 440v754h127v-756q0 -58 8 -103.5t30.5 -88.5t59 -71.5t96 -45.5t138.5 -17q78 0 136 17t94 45.5t58 71.5t30 88.5t8 103.5v756h127zM719 1544l201 -262h-105l-180 184l-178 -184h-103l199 262h166z" />
<glyph horiz-adv-x="1348" d="M664 -18q-114 1 -205 32.5t-152 86t-101.5 131.5t-58.5 165.5t-18 190.5q0 103 18 191.5t58.5 166t102 132t153 85.5t205.5 31q141 0 246.5 -47t167 -131.5t91 -191t29.5 -236.5q0 -111 -21.5 -205.5t-67 -174.5t-122 -135t-178.5 -77l213 -160l-90 -92zM666 94 q111 0 191 38t125.5 107t66 155t20.5 194q0 85 -12.5 156.5t-42 135t-75 107t-115 69t-158.5 25.5t-158.5 -25t-115 -69t-75.5 -107.5t-42.5 -135t-12.5 -156.5t12.5 -157t42.5 -135t75.5 -107t115 -69.5t158.5 -25.5z" />
<glyph horiz-adv-x="858" d="M791 1384q0 -262 -336 -262h-213v-334h-111v861h324q336 0 336 -265zM678 1384q0 172 -223 172h-213v-344h213q223 0 223 172z" />
<glyph horiz-adv-x="858" d="M791 289q0 -262 -336 -262h-213v-334h-111v860h324q336 0 336 -264zM678 289q0 172 -223 172h-213v-344h213q223 0 223 172z" />
<glyph horiz-adv-x="350" d="M111 465v121h118v-121h-118zM223 338v-668q0 -33 -0.5 -48t-3 -39t-8 -35t-16.5 -28t-26.5 -26t-39.5 -21.5t-55.5 -22t-73.5 -19.5l-35 80q62 19 90 29.5t44.5 29.5t18 35t1.5 59v674h104z" />
<glyph horiz-adv-x="527" d="M180 0v184h150v-184h-150zM328 1176l-35 -830h-76l-35 830h146z" />
<glyph horiz-adv-x="1178" d="M1079 819q0 -97 -34.5 -167t-98 -110t-143.5 -58.5t-180 -18.5h-306v-465h-127v1176h433q100 0 180 -19t143.5 -59.5t98 -111t34.5 -167.5zM948 819q0 130 -87 189t-234 59h-310v-494h310q147 0 234 58t87 188z" />
<glyph horiz-adv-x="1346" d="M666 1194q141 0 246.5 -47t167 -131.5t91 -191t29.5 -236.5q0 -102 -18 -190.5t-58.5 -166t-101.5 -132t-151.5 -86t-204.5 -31.5t-205.5 31.5t-153 86t-102 132t-58.5 166t-18 190.5q0 103 18 191.5t58.5 166t102 132t153 85.5t205.5 31zM666 94q111 0 191 38t125.5 107 t66 155t20.5 194q0 85 -12.5 156.5t-42 135t-75 107t-115 69t-158.5 25.5t-158.5 -25t-115 -69t-75.5 -107.5t-42.5 -135t-12.5 -156.5t12.5 -157t42.5 -135t75.5 -107t115 -69.5t158.5 -25.5zM438 1307l-80 32q42 81 81 119.5t98 38.5q43 0 91.5 -24.5t90.5 -49t69 -24.5 q26 0 48 18t53 76l80 -33q-40 -81 -79.5 -120.5t-98.5 -39.5q-34 0 -72.5 16t-66.5 34.5t-59.5 34.5t-53.5 16q-26 0 -48 -18.5t-53 -75.5z" />
<glyph horiz-adv-x="985" d="M485 1663q104 0 182 -34.5t124 -96.5t68 -140t22 -173t-22 -173t-68 -140.5t-124 -97t-182 -34.5q-105 0 -183 34.5t-123.5 97t-67 140.5t-21.5 173t21.5 173t67 140t123.5 96.5t183 34.5zM485 868q77 0 133.5 27t88.5 76t46.5 110.5t14.5 137.5q0 61 -9 111.5 t-29.5 95.5t-52.5 76t-81 49t-111 18q-282 0 -282 -350q0 -351 282 -351z" />
<glyph horiz-adv-x="711" d="M629 338l-230 -260l269 -385h-113l-221 313l-113 -129v-184h-104v895h104v-590l287 340h121z" />
<glyph horiz-adv-x="711" d="M629 1434l-230 -260l269 -386h-113l-221 314l-113 -129v-185h-104v895h104v-591l287 342h121z" />
<glyph horiz-adv-x="1340" d="M666 1194q205 0 338 -102l67 84h109l-113 -146q133 -157 133 -442q0 -102 -18 -190.5t-58.5 -166t-101.5 -132t-151.5 -86t-204.5 -31.5q-213 0 -342 104l-68 -86h-106l112 145q-133 157 -133 443q0 103 18 191.5t58.5 166t102 132t153 85.5t205.5 31zM666 94 q111 0 191 38t125.5 107t66 155t20.5 194q0 215 -82 342l-588 -748q98 -88 267 -88zM262 588q0 -218 82 -340l586 747q-102 86 -264 86q-89 0 -158.5 -25t-115 -69t-75.5 -107.5t-42.5 -135t-12.5 -156.5zM629 1282h-111l250 262h197z" />
<glyph horiz-adv-x="1288" d="M1092 1176v-754q0 -440 -453 -440q-459 0 -459 440v754h127v-756q0 -58 8 -103.5t30.5 -88.5t59 -71.5t96 -45.5t138.5 -17q78 0 136 17t94 45.5t58 71.5t30 88.5t8 103.5v756h127zM395 1303v176h148v-176h-148zM731 1303v176h146v-176h-146z" />
<glyph horiz-adv-x="1346" d="M666 1194q141 0 246.5 -47t167 -131.5t91 -191t29.5 -236.5q0 -102 -18 -190.5t-58.5 -166t-101.5 -132t-151.5 -86t-204.5 -31.5t-205.5 31.5t-153 86t-102 132t-58.5 166t-18 190.5q0 103 18 191.5t58.5 166t102 132t153 85.5t205.5 31zM666 94q111 0 191 38t125.5 107 t66 155t20.5 194q0 85 -12.5 156.5t-42 135t-75 107t-115 69t-158.5 25.5t-158.5 -25t-115 -69t-75.5 -107.5t-42.5 -135t-12.5 -156.5t12.5 -157t42.5 -135t75.5 -107t115 -69.5t158.5 -25.5zM369 1333v94h587v-94h-587z" />
<glyph horiz-adv-x="985" d="M485 567q104 0 182 -34.5t124 -96.5t68 -140t22 -173t-22 -173t-68 -140.5t-124 -97t-182 -34.5q-105 0 -183 34.5t-123.5 97t-67 140.5t-21.5 173t21.5 173t67 140t123.5 96.5t183 34.5zM485 -227q62 0 111 18t81 49t52.5 76t29.5 95.5t9 111.5t-9 111.5t-29.5 95.5 t-52.5 76t-81 49t-111 18q-282 0 -282 -350t282 -350z" />
<glyph horiz-adv-x="1346" d="M666 1194q141 0 246.5 -47t167 -131.5t91 -191t29.5 -236.5q0 -102 -18 -190.5t-58.5 -166t-101.5 -132t-151.5 -86t-204.5 -31.5t-205.5 31.5t-153 86t-102 132t-58.5 166t-18 190.5q0 103 18 191.5t58.5 166t102 132t153 85.5t205.5 31zM666 94q111 0 191 38t125.5 107 t66 155t20.5 194q0 85 -12.5 156.5t-42 135t-75 107t-115 69t-158.5 25.5t-158.5 -25t-115 -69t-75.5 -107.5t-42.5 -135t-12.5 -156.5t12.5 -157t42.5 -135t75.5 -107t115 -69.5t158.5 -25.5zM813 1282h-82l156 262h172zM522 1282h-88l160 262h172z" />
<glyph horiz-adv-x="1346" d="M666 1194q141 0 246.5 -47t167 -131.5t91 -191t29.5 -236.5q0 -102 -18 -190.5t-58.5 -166t-101.5 -132t-151.5 -86t-204.5 -31.5t-205.5 31.5t-153 86t-102 132t-58.5 166t-18 190.5q0 103 18 191.5t58.5 166t102 132t153 85.5t205.5 31zM666 94q111 0 191 38t125.5 107 t66 155t20.5 194q0 85 -12.5 156.5t-42 135t-75 107t-115 69t-158.5 25.5t-158.5 -25t-115 -69t-75.5 -107.5t-42.5 -135t-12.5 -156.5t12.5 -157t42.5 -135t75.5 -107t115 -69.5t158.5 -25.5zM809 1282h-109l-338 262h197z" />
<glyph horiz-adv-x="1288" d="M1092 1176v-754q0 -440 -453 -440q-459 0 -459 440v754h127v-756q0 -58 8 -103.5t30.5 -88.5t59 -71.5t96 -45.5t138.5 -17q78 0 136 17t94 45.5t58 71.5t30 88.5t8 103.5v756h127zM780 1282h-108l-338 262h196z" />
<glyph horiz-adv-x="359" d="M225 -307h-104v895h104v-895z" />
<glyph horiz-adv-x="1288" d="M1092 1176v-754q0 -440 -453 -440q-459 0 -459 440v754h127v-756q0 -58 8 -103.5t30.5 -88.5t59 -71.5t96 -45.5t138.5 -17q78 0 136 17t94 45.5t58 71.5t30 88.5t8 103.5v756h127zM784 1282h-82l156 262h172zM494 1282h-88l159 262h172z" />
<glyph horiz-adv-x="1028" d="M156 549v82h135q-8 13 -38.5 59.5t-42 68.5t-25 64.5t-13.5 85.5q0 128 95 206.5t253 78.5q71 0 148.5 -20.5t123.5 -41t109 -53.5l-61 -88q-193 94 -312 94q-107 0 -167 -55t-60 -135q0 -46 17 -87t56.5 -98.5t51.5 -78.5h334v-82h-297q12 -41 12 -88q0 -21 -2 -29h287 v-84h-305q-43 -126 -156 -239h582v-109h-746v92q6 4 16 12t38 34t52 54t50.5 70.5t40.5 85.5h-176v84h192q2 6 2 21q0 44 -18 96h-176z" />
<glyph horiz-adv-x="748" d="M102 94v66h99q-3 5 -18 27.5t-20 30.5t-16 29t-15.5 34.5t-8.5 34t-4 40.5q0 94 70 152.5t186 58.5q54 0 112.5 -16t90.5 -31t81 -41l-51 -73q-138 69 -225 69q-72 0 -113 -38t-41 -93q0 -25 9 -50.5t19.5 -43t29.5 -46.5t28 -44h244v-66h-215q8 -40 8 -63q0 -13 -2 -19 h209v-65h-221q-18 -52 -50.5 -97.5t-56.5 -64.5h414v-92h-555v78q4 3 11.5 8.5t27.5 23t37.5 37t36.5 48.5t30 59h-131v65h146v13q0 34 -12 69h-134z" />
<glyph horiz-adv-x="748" d="M102 1190v65h99l-16 24t-17 26t-14.5 24.5t-14 28t-10 28t-8 33t-2.5 33.5q0 94 70 152.5t186 58.5q54 0 112.5 -16t90.5 -31t81 -41l-51 -74q-140 70 -225 70q-72 0 -113 -38t-41 -93q0 -25 9 -51t19 -43t29.5 -46.5t28.5 -44.5h244v-65h-215q8 -40 8 -64q0 -12 -2 -18 h209v-66h-221q-18 -52 -50.5 -97t-56.5 -64h414v-93h-555v78q4 3 11.5 8.5t27.5 23t37.5 37t36.5 48.5t30 59h-131v66h146v12q0 36 -12 70h-134z" />
<glyph horiz-adv-x="1346" d="M666 1194q141 0 246.5 -47t167 -131.5t91 -191t29.5 -236.5q0 -102 -18 -190.5t-58.5 -166t-101.5 -132t-151.5 -86t-204.5 -31.5t-205.5 31.5t-153 86t-102 132t-58.5 166t-18 190.5q0 103 18 191.5t58.5 166t102 132t153 85.5t205.5 31zM666 94q111 0 191 38t125.5 107 t66 155t20.5 194q0 85 -12.5 156.5t-42 135t-75 107t-115 69t-158.5 25.5t-158.5 -25t-115 -69t-75.5 -107.5t-42.5 -135t-12.5 -156.5t12.5 -157t42.5 -135t75.5 -107t115 -69.5t158.5 -25.5zM422 1303v176h147v-176h-147zM758 1303v176h145v-176h-145z" />
<glyph horiz-adv-x="1346" d="M666 1194q141 0 246.5 -47t167 -131.5t91 -191t29.5 -236.5q0 -102 -18 -190.5t-58.5 -166t-101.5 -132t-151.5 -86t-204.5 -31.5t-205.5 31.5t-153 86t-102 132t-58.5 166t-18 190.5q0 103 18 191.5t58.5 166t102 132t153 85.5t205.5 31zM666 94q111 0 191 38t125.5 107 t66 155t20.5 194q0 85 -12.5 156.5t-42 135t-75 107t-115 69t-158.5 25.5t-158.5 -25t-115 -69t-75.5 -107.5t-42.5 -135t-12.5 -156.5t12.5 -157t42.5 -135t75.5 -107t115 -69.5t158.5 -25.5zM748 1544l200 -262h-104l-180 184l-179 -184h-102l199 262h166z" />
<glyph horiz-adv-x="936" d="M801 553v-545q0 -330 -338 -330q-340 0 -340 330v545h110v-551q0 -41 5.5 -73t21 -62t40.5 -50t66.5 -32t96.5 -12q129 0 178 60.5t49 168.5v551h111z" />
<glyph horiz-adv-x="1346" d="M666 1194q141 0 246.5 -47t167 -131.5t91 -191t29.5 -236.5q0 -102 -18 -190.5t-58.5 -166t-101.5 -132t-151.5 -86t-204.5 -31.5t-205.5 31.5t-153 86t-102 132t-58.5 166t-18 190.5q0 103 18 191.5t58.5 166t102 132t153 85.5t205.5 31zM666 94q111 0 191 38t125.5 107 t66 155t20.5 194q0 85 -12.5 156.5t-42 135t-75 107t-115 69t-158.5 25.5t-158.5 -25t-115 -69t-75.5 -107.5t-42.5 -135t-12.5 -156.5t12.5 -157t42.5 -135t75.5 -107t115 -69.5t158.5 -25.5zM664 1282q-130 0 -203.5 57t-73.5 154h100q0 -117 177 -117q178 0 178 117h100 q0 -98 -73.5 -154.5t-204.5 -56.5z" />
<glyph horiz-adv-x="1288" d="M1092 1176v-754q0 -440 -453 -440q-459 0 -459 440v754h127v-756q0 -58 8 -103.5t30.5 -88.5t59 -71.5t96 -45.5t138.5 -17q78 0 136 17t94 45.5t58 71.5t30 88.5t8 103.5v756h127zM342 1333v94h588v-94h-588z" />
<glyph horiz-adv-x="1346" d="M666 1194q141 0 246.5 -47t167 -131.5t91 -191t29.5 -236.5q0 -102 -18 -190.5t-58.5 -166t-101.5 -132t-151.5 -86t-204.5 -31.5t-205.5 31.5t-153 86t-102 132t-58.5 166t-18 190.5q0 103 18 191.5t58.5 166t102 132t153 85.5t205.5 31zM666 94q111 0 191 38t125.5 107 t66 155t20.5 194q0 85 -12.5 156.5t-42 135t-75 107t-115 69t-158.5 25.5t-158.5 -25t-115 -69t-75.5 -107.5t-42.5 -135t-12.5 -156.5t12.5 -157t42.5 -135t75.5 -107t115 -69.5t158.5 -25.5zM629 1282h-111l250 262h197z" />
<glyph horiz-adv-x="1985" d="M1855 0h-782v154q-140 -172 -407 -172q-114 0 -205.5 31.5t-153 86t-102 132t-58.5 166t-18 190.5q0 103 18 191.5t58.5 166t102 132t153 85.5t205.5 31q267 0 407 -172v154h772v-109h-645v-424h535v-111h-535v-423h655v-109zM666 94q111 0 191 38t125.5 107t66 155 t20.5 194q0 85 -12.5 156.5t-42 135t-75 107t-115 69t-158.5 25.5t-158.5 -25t-115 -69t-75.5 -107.5t-42.5 -135t-12.5 -156.5t12.5 -157t42.5 -135t75.5 -107t115 -69.5t158.5 -25.5z" />
<glyph horiz-adv-x="1217" d="M221 338v-96q46 43 113 76.5t137 33.5q143 0 178 -121q47 45 117 83t145 38q99 0 143 -55t44 -145v-459h-105v440q0 133 -114 133q-57 0 -117 -33.5t-103 -76.5v-463h-106v440q0 133 -113 133q-57 0 -117 -33t-102 -75v-465h-106v645h106z" />
<glyph horiz-adv-x="1288" d="M598 -197q0 -16 5 -29t11.5 -21.5t20.5 -14t23 -8.5t27.5 -4.5t26.5 -2t28 0t24 0.5l-19 -91q-25 0 -38.5 0.5t-44.5 3t-51 8t-46.5 16.5t-42 27t-26.5 41.5t-11 57.5q0 105 166 195h-12q-459 0 -459 440v754h127v-756q0 -58 8 -103.5t30.5 -88.5t59 -71.5t96 -45.5 t138.5 -17q78 0 136 17t94 45.5t58 71.5t30 88.5t8 103.5v756h127v-754q0 -351 -289 -422q-5 -3 -27 -15.5t-30.5 -17.5t-29.5 -18t-31 -21t-26.5 -21t-25 -24t-18 -24.5t-13.5 -27.5t-4 -28z" />
<glyph horiz-adv-x="772" d="M672 -10h-486q6 -106 59 -168t138 -62q94 0 252 88l49 -67q-49 -28 -80.5 -44.5t-99 -37.5t-127.5 -21q-130 0 -214.5 88t-84.5 250q0 158 88 247t229 89q136 0 210.5 -77.5t74.5 -202.5q0 -21 -2 -41.5t-4 -30.5zM391 270q-88 0 -142 -57t-63 -158h389q0 215 -184 215z " />
<glyph horiz-adv-x="1346" d="M666 1194q141 0 246.5 -47t167 -131.5t91 -191t29.5 -236.5q0 -102 -18 -190.5t-58.5 -166t-101.5 -132t-151.5 -86t-204.5 -31.5t-205.5 31.5t-153 86t-102 132t-58.5 166t-18 190.5q0 103 18 191.5t58.5 166t102 132t153 85.5t205.5 31zM666 94q111 0 191 38t125.5 107 t66 155t20.5 194q0 85 -12.5 156.5t-42 135t-75 107t-115 69t-158.5 25.5t-158.5 -25t-115 -69t-75.5 -107.5t-42.5 -135t-12.5 -156.5t12.5 -157t42.5 -135t75.5 -107t115 -69.5t158.5 -25.5z" />
<glyph horiz-adv-x="1333" d="M993 0l-676 999v-999h-127v1176h136l673 -1000v1000h127v-1176h-133zM442 1307l-80 32q42 81 81 119.5t98 38.5q43 0 92 -24.5t91 -49t69 -24.5q26 0 47.5 18t52.5 76l80 -33q-40 -81 -79.5 -120.5t-98.5 -39.5q-34 0 -72.5 16t-66.5 34.5t-59.5 34.5t-53.5 16 q-26 0 -48 -18.5t-53 -75.5z" />
<glyph horiz-adv-x="969" d="M711 788l-469 705v-705h-111v861h115l469 -705v705h112v-861h-116z" />
<glyph horiz-adv-x="969" d="M711 -307l-469 704v-704h-111v860h115l469 -705v705h112v-860h-116z" />
<glyph horiz-adv-x="1333" d="M993 0l-676 999v-999h-127v1176h136l673 -1000v1000h127v-1176h-133zM596 -315v182h143l19 -186l-131 -222l-47 47l84 179h-68z" />
<glyph horiz-adv-x="1333" d="M993 0l-676 999v-999h-127v1176h136l673 -1000v1000h127v-1176h-133zM952 1544l-200 -262h-166l-199 262h102l179 -182l180 182h104z" />
<glyph horiz-adv-x="1333" d="M993 0l-676 999v-999h-127v1176h136l673 -1000v1000h127v-1176h-133zM625 1282h-111l250 262h197z" />
<glyph horiz-adv-x="1333" d="M993 0l-676 999v-999h-127v1176h136l673 -1000v1000h127v-1176h-133z" />
<glyph horiz-adv-x="860" d="M264 78q137 0 232.5 87t121.5 241q-34 -36 -94.5 -65.5t-146.5 -29.5q-135 0 -212 78t-77 195q0 122 86 206t229 84q109 0 187 -53.5t113.5 -138.5t35.5 -193q0 -215 -132 -359t-341 -144q-29 0 -59 3.5t-45 6.5l-15 4l29 86q39 -8 88 -8zM397 397q80 0 142 37t88 82 q-3 124 -61.5 195t-159.5 71q-98 0 -152.5 -59t-54.5 -139q0 -76 50 -131.5t148 -55.5z" />
<glyph horiz-adv-x="1276" d="M119 365q0 265 356 407q-272 117 -272 340q0 156 119.5 250t306.5 94q189 0 309.5 -94t120.5 -250q0 -222 -275 -340q359 -144 359 -407q0 -119 -70 -208.5t-185.5 -134.5t-258.5 -45t-257.5 45t-183.5 134t-69 209zM1006 369q0 54 -23 102.5t-58 83t-87.5 67 t-100.5 53.5t-108 42q-76 -27 -134 -55.5t-116.5 -70.5t-90.5 -98.5t-32 -123.5q0 -128 107.5 -203.5t265.5 -75.5q161 0 269 75.5t108 203.5zM334 1104q0 -47 21 -88.5t50 -69t74 -53t77 -38.5t75 -28q43 15 75 28t77 38.5t74 53t50 69t21 88.5q0 101 -85 171.5t-214 70.5 q-126 0 -210.5 -70.5t-84.5 -171.5z" />
<glyph horiz-adv-x="1235" d="M375 -170q97 0 188 35.5t171 105.5t137.5 188.5t78.5 270.5q-22 -28 -54 -54.5t-80.5 -54.5t-116 -45.5t-142.5 -17.5q-108 0 -196 37t-143.5 100t-85.5 144.5t-30 173.5q0 129 57 237.5t169 176t258 67.5q127 0 227.5 -51.5t161.5 -137t92.5 -189t32.5 -216.5 q1 -213 -60.5 -385.5t-164 -279.5t-230 -163.5t-266.5 -56.5q-46 0 -92 6t-69 11l-23 6l34 110q66 -18 146 -18zM573 369q138 0 244 69t146 152v16q0 94 -23 177.5t-67.5 150.5t-118 106t-166.5 39q-85 0 -154 -31.5t-111 -84t-64.5 -117t-22.5 -133.5q0 -64 19.5 -123.5 t58 -110t105.5 -80.5t154 -30z" />
<glyph horiz-adv-x="873" d="M94 795q0 157 217 243q-161 70 -161 201q0 95 77.5 152t202.5 57t203 -57t78 -152q0 -128 -166 -201q217 -87 217 -243q0 -108 -94 -172t-238 -64q-148 0 -242 64t-94 172zM649 801q0 36 -18.5 67t-53.5 54.5t-68.5 39.5t-80.5 33q-47 -17 -80.5 -33t-68.5 -39.5 t-53.5 -54.5t-18.5 -67q0 -70 64 -112t159 -42t157 42t62 112zM256 1231q0 -31 15.5 -57t44.5 -44.5t53.5 -29.5t58.5 -23q34 12 58.5 23t54 29.5t45.5 44.5t16 57q0 55 -49 94t-123 39q-76 0 -125 -39t-49 -94z" />
<glyph horiz-adv-x="873" d="M94 221q0 158 217 244q-161 70 -161 201q0 95 77.5 151.5t202.5 56.5q126 0 203.5 -56.5t77.5 -151.5q0 -128 -166 -201q217 -87 217 -244q0 -108 -93.5 -171.5t-238.5 -63.5q-148 0 -242 63.5t-94 171.5zM649 227q0 36 -18.5 67t-53.5 55t-68.5 40t-80.5 33 q-47 -17 -80.5 -33t-68.5 -40t-53.5 -55t-18.5 -67q0 -70 64 -111.5t159 -41.5t157 41.5t62 111.5zM256 657q0 -31 15.5 -56.5t44.5 -44t53.5 -29.5t58.5 -23q35 12 59 23t53.5 29.5t45.5 44t16 56.5q0 55 -49 94.5t-123 39.5q-76 0 -125 -39.5t-49 -94.5z" />
<glyph horiz-adv-x="1288" d="M1092 1176v-754q0 -440 -453 -440q-459 0 -459 440v754h127v-756q0 -58 8 -103.5t30.5 -88.5t59 -71.5t96 -45.5t138.5 -17q78 0 136 17t94 45.5t58 71.5t30 88.5t8 103.5v756h127zM428 1468q0 88 60.5 148.5t146.5 60.5q88 0 148.5 -60.5t60.5 -148.5q0 -86 -60.5 -146 t-148.5 -60q-86 0 -146.5 60t-60.5 146zM512 1468q0 -52 35 -87t88 -35q54 0 90.5 35t36.5 87q0 54 -36.5 90.5t-90.5 36.5q-52 0 -87.5 -36.5t-35.5 -90.5z" />
<glyph horiz-adv-x="813" d="M221 338v-92q52 39 127 72.5t154 33.5q190 0 190 -200v-459h-106v440q0 133 -115 133q-64 0 -136 -34t-114 -70v-469h-106v645h106z" />
<glyph horiz-adv-x="936" d="M801 1649v-545q0 -330 -338 -330q-340 0 -340 330v545h110v-551q0 -52 9.5 -90.5t33.5 -71.5t71 -50.5t116 -17.5q129 0 178 61t49 169v551h111z" />
<glyph horiz-adv-x="1288" d="M1092 1176v-754q0 -440 -453 -440q-459 0 -459 440v754h127v-756q0 -58 8 -103.5t30.5 -88.5t59 -71.5t96 -45.5t138.5 -17q78 0 136 17t94 45.5t58 71.5t30 88.5t8 103.5v756h127zM412 1307l-80 32q42 81 80.5 119.5t97.5 38.5q43 0 92 -24.5t91 -49t69 -24.5 q26 0 47.5 18t52.5 76l80 -33q-40 -81 -79.5 -120.5t-98.5 -39.5q-34 0 -72.5 16t-66.5 34.5t-59.5 34.5t-53.5 16q-26 0 -47 -18.5t-53 -75.5z" />
<glyph horiz-adv-x="1116" d="M862 788v687l-274 -543h-72l-274 543v-687h-111v861h115l305 -602l307 602h113v-861h-109z" />
<glyph horiz-adv-x="1116" d="M862 -307v686l-274 -543h-72l-274 543v-686h-111v860h115l305 -602l307 602h113v-860h-109z" />
<glyph horiz-adv-x="1391" d="M772 0l51 307h-362l-51 -307h-105l51 307h-247v99h264l59 362h-246v98h263l51 310h104l-51 -310h362l54 310h102l-53 -310h250v-98h-267l-59 -362h248v-99h-264l-52 -307h-102zM537 768l-60 -362h363l59 362h-362z" />
<glyph horiz-adv-x="995" d="M545 -307l35 219h-250l-35 -219h-88l35 219h-174v82h188l41 256h-174v82h188l37 221h86l-37 -221h252l37 221h84l-37 -221h176v-82h-188l-41 -256h176v-82h-190l-35 -219h-86zM385 250l-41 -256h250l41 256h-250z" />
<glyph horiz-adv-x="995" d="M545 788l35 220h-250l-35 -220h-88l35 220h-174v82h188l41 256h-174v81h188l37 222h86l-37 -222h252l37 222h84l-37 -222h176v-81h-188l-41 -256h176v-82h-190l-35 -220h-86zM385 1346l-41 -256h250l41 256h-250z" />
<glyph horiz-adv-x="1536" d="M1202 0v975l-397 -778h-88l-400 782v-979h-127v1176h136l434 -844l434 844h135v-1176h-127z" />
<glyph horiz-adv-x="739" d="M688 788h-557v861h111v-768h446v-93z" />
<glyph horiz-adv-x="1022" d="M952 0h-751v465l-133 -70v123l133 70v588h127v-523l245 129v-123l-245 -129v-419h624v-111z" />
<glyph horiz-adv-x="739" d="M688 -307h-557v860h111v-768h446v-92z" />
<glyph horiz-adv-x="1016" d="M942 0h-752v1176h127v-1065h625v-111zM686 526v176h148v-176h-148z" />
<glyph horiz-adv-x="1012" d="M942 0h-752v1176h127v-1065h625v-111zM489 -315v182h144l18 -186l-131 -222l-47 47l84 179h-68z" />
<glyph horiz-adv-x="1256" d="M209 1176l412 -1049l411 1049h144l-486 -1176h-139l-485 1176h143z" />
<glyph horiz-adv-x="1012" d="M942 0h-752v1176h127v-1065h625v-111zM418 993v183h143l19 -187l-131 -221l-48 47l84 178h-67z" />
<glyph horiz-adv-x="1014" d="M942 0h-752v1176h127v-1065h625v-111zM221 1282h-110l249 262h197z" />
<glyph horiz-adv-x="809" d="M715 14q0 -159 -82 -247.5t-236 -88.5q-153 0 -235 89t-82 247q0 159 82 248.5t235 89.5t235.5 -89.5t82.5 -248.5zM608 14q0 252 -211 252t-211 -252q0 -250 211 -250t211 250z" />
<glyph horiz-adv-x="1012" d="M942 0h-752v1176h127v-1065h625v-111z" />
<glyph horiz-adv-x="875" d="M131 788v861h111v-486l426 486h129l-369 -414l408 -447h-131l-340 375l-123 -139v-236h-111z" />
<glyph horiz-adv-x="537" d="M373 0h-111v752l-160 -80l-49 73l217 115h103v-860z" />
<glyph horiz-adv-x="537" d="M373 573h-111v752l-160 -80l-49 74l217 115h103v-861z" />
<glyph horiz-adv-x="719" d="M510 0h-133v1034l-258 -135l-60 96l332 181h119v-1176z" />
<glyph horiz-adv-x="907" d="M160 553l286 -756l287 756h123l-348 -860h-121l-350 860h123z" />
<glyph horiz-adv-x="907" d="M160 1649l286 -756l287 756h123l-348 -861h-121l-350 861h123z" />
<glyph horiz-adv-x="1503" d="M797 182q0 75 53 121.5t137 79.5q-145 60 -145 164q0 76 69 123t176 47q109 0 176.5 -47t67.5 -123q0 -109 -143 -166q39 -15 68.5 -31t59.5 -40t46 -56.5t16 -71.5q0 -89 -82 -141.5t-209 -52.5q-126 0 -208 52.5t-82 141.5zM983 1176l-596 -1176h-102l598 1176h100z M1282 186q0 25 -12 47t-30 37.5t-46.5 30.5t-52 24.5t-56.5 20.5q-87 -29 -139.5 -66t-52.5 -94t56.5 -91t137.5 -34q84 0 139.5 34t55.5 91zM344 471h-94v614l-137 -67l-43 63l188 95h86v-705zM936 537q0 -21 10 -39.5t24.5 -30.5t36.5 -23t38.5 -17t39.5 -13 q152 40 152 123q0 45 -42.5 77.5t-107.5 32.5q-64 0 -107.5 -33t-43.5 -77z" />
<glyph horiz-adv-x="1495" d="M858 356l41 349h428v-76h-354l-19 -209q67 29 140 29q122 0 194 -65.5t72 -160.5q0 -97 -73.5 -166t-205.5 -69q-119 0 -256 73l45 68q17 -10 42 -22t70 -24.5t85 -12.5q81 0 138 42.5t57 110.5q0 63 -49.5 106.5t-135.5 43.5q-96 0 -170 -45zM983 1176l-596 -1176h-102 l598 1176h100zM344 471h-94v614l-137 -67l-43 63l188 95h86v-705z" />
<glyph horiz-adv-x="875" d="M131 -307v860h111v-485l426 485h129l-369 -414l408 -446h-131l-340 375l-123 -140v-235h-111z" />
<glyph horiz-adv-x="1503" d="M344 471h-94v614l-137 -67l-43 63l188 95h86v-705zM983 1176l-596 -1176h-102l598 1176h100zM1366 78v-78h-526v57q0 41 14 77.5t32.5 61.5t53.5 53.5t61 45.5t71 44q4 2 5.5 3l4.5 3t5 3q49 30 71.5 44.5t53.5 39.5t43.5 49t12.5 51q0 46 -41 76.5t-111 30.5 q-60 0 -119 -21t-92 -45l-45 64q128 80 264 80q109 0 174.5 -50t65.5 -132q0 -25 -7.5 -48.5t-15.5 -41t-29 -38.5l-33 -33t-43 -32.5t-43.5 -28t-49.5 -29.5t-47 -28q-80 -46 -115 -83t-35 -95h420z" />
<glyph horiz-adv-x="1718" d="M1135 0l-283 1004l-281 -1004h-141l-344 1176h139l281 -1039l287 1039h120l285 -1037l281 1037h141l-346 -1176h-139z" />
<glyph horiz-adv-x="1190" d="M190 0v1176h127v-682l607 682h155l-510 -566l570 -610h-156l-489 526l-177 -196v-330h-127zM524 -315v182h144l18 -186l-131 -222l-47 47l84 179h-68z" />
<glyph horiz-adv-x="1450" d="M1126 0v156h-407v67l377 482h125v-474h120v-75h-120v-156h-95zM983 1176l-596 -1176h-102l598 1176h100zM344 471h-94v614l-137 -67l-43 63l188 95h86v-705zM821 231h305v396z" />
<glyph horiz-adv-x="1460" d="M1176 641q-118 0 -201.5 -71.5t-106.5 -196.5q84 78 209 78q117 0 185.5 -64.5t68.5 -159.5q0 -101 -74.5 -170t-199.5 -69q-142 0 -215.5 88.5t-73.5 226.5q0 177 114 295.5t292 118.5q27 0 54 -3t40 -6l14 -3l-22 -72q-39 8 -84 8zM983 1176l-596 -1176h-102l598 1176 h100zM1063 377q-71 0 -126 -31t-75 -67q3 -99 54.5 -156t140.5 -57q85 0 132.5 47.5t47.5 111.5q0 62 -44.5 107t-129.5 45zM344 471h-94v614l-137 -67l-43 63l188 95h86v-705z" />
<glyph horiz-adv-x="1190" d="M190 0v1176h127v-682l607 682h155l-510 -566l570 -610h-156l-489 526l-177 -196v-330h-127z" />
<glyph horiz-adv-x="1718" d="M1135 0l-283 1004l-281 -1004h-141l-344 1176h139l281 -1039l287 1039h120l285 -1037l281 1037h141l-346 -1176h-139zM817 1282h-110l249 262h197z" />
<glyph horiz-adv-x="1487" d="M344 471h-94v614l-137 -67l-43 63l188 95h86v-705zM983 1176l-596 -1176h-102l598 1176h100zM811 61l45 66q37 -22 100 -41.5t125 -19.5q79 0 132 36.5t53 96.5q0 52 -41.5 86.5t-94.5 46.5t-114 12h-35v80h43q53 0 98.5 11.5t77 39.5t31.5 68q0 44 -40 70t-106 26 q-97 0 -198 -59l-39 59q17 13 46 28.5t87.5 32.5t116.5 17q107 0 167 -48.5t60 -117.5q0 -51 -36 -94t-113 -68q81 -18 132.5 -69t51.5 -121q0 -86 -69.5 -148.5t-200.5 -62.5q-129 0 -279 73z" />
<glyph horiz-adv-x="389" d="M246 1649v-805q0 -36 -1 -53.5t-4.5 -43t-12.5 -38t-24.5 -29.5t-40.5 -28t-60 -23t-83 -23l-36 82q40 12 65 20.5t43 20.5t26.5 19t13 24.5t5 29t0.5 40.5v807h109z" />
<glyph horiz-adv-x="389" d="M246 553v-805q0 -62 -3.5 -88.5t-25 -59t-67.5 -51t-130 -38.5l-36 81q40 12 65 20.5t43 20.5t26.5 19t13 24.5t5 29t0.5 40.5v807h109z" />
<glyph horiz-adv-x="529" d="M322 1176v-1106q0 -56 -1.5 -81t-9.5 -61.5t-25.5 -53.5t-51 -40t-83.5 -39.5t-124 -34.5l-43 99q42 13 69.5 22t52 20.5t38 18t25 20.5t15.5 22t7.5 28.5t3.5 34v43.5v1108h127zM340 1544l201 -262h-105l-180 184l-178 -184h-103l199 262h166z" />
<glyph horiz-adv-x="529" d="M324 1176v-1106q0 -56 -1.5 -81t-9.5 -61.5t-25.5 -53.5t-51 -40t-83.5 -39.5t-124 -34.5l-43 99q42 13 69.5 22t52 20.5t38 18t25 20.5t15.5 22t7.5 28.5t3.5 34v43.5v1108h127z" />
<glyph horiz-adv-x="1141" d="M618 -168h-96v156q-206 21 -405 135l61 94q173 -96 344 -121v461l-10 4q-65 19 -107.5 34.5t-96.5 44t-86 60t-54.5 80t-22.5 107.5q0 141 107.5 222.5t269.5 84.5v152h96v-158q181 -20 351 -103l-62 -94q-138 64 -289 86v-420q55 -18 92.5 -31.5t89.5 -37t86 -49.5 t67 -61t49 -80.5t16 -98.5q0 -76 -33.5 -137t-90 -99t-127 -58.5t-149.5 -22.5v-150zM889 293q0 44 -19.5 80t-60 63.5t-83.5 47t-108 42.5v-436q111 2 191 54.5t80 148.5zM274 893q0 -35 13.5 -64t33 -48t55.5 -37.5t66 -30t80 -27.5v399q-104 -3 -176 -52t-72 -140z" />
<glyph horiz-adv-x="533" d="M322 0h-127v1176h127v-1176zM33 1307l-80 32q42 81 80.5 119.5t97.5 38.5q43 0 92 -24.5t91 -49t69 -24.5q26 0 47.5 18t52.5 76l80 -33q-40 -81 -79.5 -120.5t-98.5 -39.5q-34 0 -72.5 16t-66.5 34.5t-59.5 34.5t-53.5 16q-26 0 -47 -18.5t-53 -75.5z" />
<glyph horiz-adv-x="385" d="M242 788h-111v861h111v-861z" />
<glyph horiz-adv-x="529" d="M111 -197q0 -16 5 -29t11.5 -21.5t20 -14t22.5 -8.5t27.5 -4.5t26.5 -2t28 0t24 0.5l-18 -91q-25 0 -38.5 0.5t-44.5 3t-51 8t-46.5 16.5t-42 27t-26.5 41.5t-11 57.5q0 61 56 115.5t147 97.5h-8v1176h126v-1176h-4q-3 -2 -27 -15.5t-31 -18t-29 -18t-31 -21t-26 -21 t-25 -24t-17.5 -24t-13.5 -27.5t-4 -28z" />
<glyph horiz-adv-x="1147" d="M514 1176h109v-1487h-113v776q-200 0 -316 91.5t-116 262.5q0 177 110.5 267t325.5 90zM831 -313v1489h113v-1489h-113z" />
<glyph horiz-adv-x="533" d="M322 0h-127v1176h127v-1176zM-37 1333v94h588v-94h-588z" />
<glyph horiz-adv-x="590" d="M166 59v1051q0 50 2 76.5t11 59t26.5 50.5t50.5 40t82 38.5t121 34.5l39 -84q-54 -17 -86 -28t-57 -26t-36 -25t-18 -33t-7.5 -40.5t-0.5 -56.5v-1065q0 -38 1 -55.5t7.5 -40.5t17.5 -33t36 -25t57 -26t86 -27l-39 -84q-72 18 -121 34.5t-82 38.5t-50.5 40t-26.5 50.5 t-11 59t-2 76.5z" />
<glyph horiz-adv-x="1718" d="M1135 0l-283 1004l-281 -1004h-141l-344 1176h139l281 -1039l287 1039h120l285 -1037l281 1037h141l-346 -1176h-139zM936 1544l201 -262h-105l-180 184l-178 -184h-103l199 262h166z" />
<glyph horiz-adv-x="811" d="M682 -307h-104v84q-112 -99 -240 -99q-115 0 -186.5 84t-71.5 252q0 170 71.5 254t186.5 84q127 0 240 -100v336h104v-895zM358 -236q121 0 220 103v295q-100 104 -220 104q-84 0 -127 -66t-43 -186q0 -119 43.5 -184.5t126.5 -65.5z" />
<glyph horiz-adv-x="385" d="M242 -307h-111v860h111v-860z" />
<glyph horiz-adv-x="590" d="M410 1110v-1051q0 -50 -2 -76.5t-11 -59t-26.5 -50.5t-50.5 -40t-82 -38.5t-121 -34.5l-39 84q54 17 86 28t57 26t36 25t18 33t7.5 40.5t0.5 56.5v1065q0 38 -1 55.5t-7.5 40.5t-17.5 33t-36 25t-57 26t-86 27l39 84q72 -18 121 -34.5t82 -38.5t50.5 -40t26.5 -50.5 t11 -59t2 -76.5z" />
<glyph horiz-adv-x="1718" d="M1135 0l-283 1004l-281 -1004h-141l-344 1176h139l281 -1039l287 1039h120l285 -1037l281 1037h141l-346 -1176h-139zM612 1303v176h148v-176h-148zM948 1303v176h146v-176h-146z" />
<glyph horiz-adv-x="1718" d="M1135 0l-283 1004l-281 -1004h-141l-344 1176h139l281 -1039l287 1039h120l285 -1037l281 1037h141l-346 -1176h-139zM997 1282h-108l-338 262h197z" />
<glyph horiz-adv-x="1249" d="M813 -307l-197 715l-194 -715h-119l-250 860h123l191 -733l200 733h103l196 -733l193 733h123l-252 -860h-117z" />
<glyph horiz-adv-x="529" d="M322 0h-127v1176h127v-1176zM401 1282h-108l-338 262h197z" />
<glyph horiz-adv-x="1796" d="M1690 295q0 -151 -87.5 -232t-230.5 -81q-144 0 -230.5 81t-86.5 232q0 152 86.5 233.5t230.5 81.5q143 0 230.5 -81.5t87.5 -233.5zM1579 295q0 109 -55 169t-152 60q-99 0 -154 -59.5t-55 -169.5q0 -107 55 -166t154 -59q97 0 152 59t55 166zM1274 1176l-656 -1176 h-110l655 1176h111zM727 879q0 -151 -87 -232.5t-230 -81.5q-144 0 -231 81.5t-87 232.5q0 152 87 233.5t231 81.5q143 0 230 -81.5t87 -233.5zM621 879q0 108 -56.5 168.5t-154.5 60.5q-97 0 -153 -60.5t-56 -168.5t56 -168t153 -60q98 0 154.5 60t56.5 168z" />
<glyph horiz-adv-x="1307" d="M530 336q0 -111 -64 -170.5t-171 -59.5q-108 0 -170 59t-62 171t62 171.5t170 59.5q107 0 171 -60t64 -171zM440 336q0 76 -38 118t-107 42q-67 0 -104 -41.5t-37 -118.5t37 -118.5t104 -41.5q69 0 107 42t38 118zM930 553l-484 -875h-90l482 875h92zM1227 -90 q0 -112 -62.5 -172t-169.5 -60t-170 60t-63 172q0 111 63 170t170 59t169.5 -59t62.5 -170zM1139 -90q0 77 -37.5 118.5t-106.5 41.5q-68 0 -105.5 -42t-37.5 -118t37.5 -118t105.5 -42q69 0 106.5 41.5t37.5 118.5z" />
<glyph horiz-adv-x="1751" d="M74 973v102h149v158q0 240 262 240q134 0 426 -64q65 84 224 84q146 0 403 -66l-53 -98q-2 0 -67.5 12t-103 18.5t-93 13.5t-86.5 7q-61 0 -99.5 -28.5t-38.5 -87.5v-189h594v-1138q0 -129 -13 -173q-21 -72 -103 -116q-68 -37 -207 -74l-45 100q39 12 66 21t52 20.5 t41 18t30.5 19t22 18.5t14 23t9 25.5t4.5 31.5t2 36v45v1041h-467v-973h-129v973h-518v-973h-127v973h-149zM868 1253q0 38 4 54q-285 53 -387 53q-59 0 -97 -29t-38 -88v-168h518v178z" />
<glyph horiz-adv-x="524" d="M317 0h-127v1176h127v-1176zM12 1303v176h148v-176h-148zM348 1303v176h146v-176h-146z" />
<glyph horiz-adv-x="529" d="M319 0h-126v1176h126v-1176zM340 1544l201 -262h-105l-180 184l-178 -184h-103l199 262h166z" />
<glyph horiz-adv-x="1249" d="M813 788l-197 715l-194 -715h-119l-250 861h123l191 -734l200 734h103l196 -734l193 734h123l-252 -861h-117z" />
<glyph horiz-adv-x="713" d="M645 1354l-51 -76q-1 0 -27 15t-41.5 22.5t-43 19.5t-53.5 17.5t-50 5.5q-83 0 -138 -67.5t-55 -178.5q0 -113 54.5 -180.5t138.5 -67.5q86 0 215 80l51 -76q-50 -28 -74 -41t-86 -33t-114 -20q-122 0 -207.5 89t-85.5 249q0 159 85.5 247.5t207.5 88.5q52 0 114 -20 t86 -33t74 -41z" />
<glyph horiz-adv-x="1540" d="M1010 848l-54 -60q-36 27 -58 41.5t-71.5 32t-99.5 17.5q-95 0 -154 -80.5t-59 -212.5q0 -130 59 -209.5t154 -79.5q50 0 98.5 16.5t73 31.5t57.5 40l54 -59q-44 -30 -75 -48t-91 -37.5t-119 -19.5q-128 0 -213.5 96t-85.5 269q0 174 85.5 270t213.5 96q60 0 119 -19 t91 -37.5t75 -47.5zM125 588q0 172 70 308t210.5 217t331.5 81q143 0 259 -47t191 -129t115.5 -192t40.5 -238t-40.5 -238t-115.5 -192t-191 -129t-259 -47q-191 0 -331.5 81t-210.5 217t-70 308zM195 588q0 -237 143 -390t397 -153q128 0 231.5 42t171 115.5t104 172 t36.5 213.5q0 154 -62 275.5t-187 194t-294 72.5q-254 0 -397 -152.5t-143 -389.5z" />
<glyph horiz-adv-x="2548" d="M727 879q0 -151 -87 -232.5t-230 -81.5q-144 0 -231 81.5t-87 232.5q0 152 87 233.5t231 81.5q143 0 230 -81.5t87 -233.5zM621 879q0 108 -56.5 168.5t-154.5 60.5q-97 0 -153 -60.5t-56 -168.5t56 -168t153 -60q98 0 154.5 60t56.5 168zM1690 295q0 -151 -87.5 -232 t-230.5 -81q-144 0 -230.5 81t-86.5 232q0 152 86.5 233.5t230.5 81.5q143 0 230.5 -81.5t87.5 -233.5zM1579 295q0 109 -55 169t-152 60q-99 0 -154 -59.5t-55 -169.5q0 -107 55 -166t154 -59q97 0 152 59t55 166zM2441 295q0 -151 -86.5 -232t-230.5 -81q-145 0 -232.5 81 t-87.5 232q0 153 87 234t233 81q144 0 230.5 -81.5t86.5 -233.5zM2333 295q0 110 -55 169.5t-154 59.5t-154 -59.5t-55 -169.5q0 -107 55 -166t154 -59t154 59t55 166zM1274 1176l-656 -1176h-110l655 1176h111z" />
<glyph horiz-adv-x="1133" d="M78 1176h145l334 -512l332 512h149l-411 -592l434 -584h-154l-350 502l-348 -502h-154l432 588z" />
<glyph horiz-adv-x="1225" d="M143 784v68h56v324h432q95 0 172 -17.5t139.5 -54.5t99.5 -101t43 -151h48v-68h-48q-21 -319 -454 -319h-305v-465h-127v784h-56zM326 1067v-215h628q-22 215 -319 215h-309zM635 573q298 0 319 211h-628v-211h309z" />
<glyph horiz-adv-x="897" d="M98 258v59h39v236h324q147 0 236 -56.5t98 -179.5h36v-59h-36q-19 -231 -334 -231h-213v-334h-111v565h-39zM248 461v-144h434q-19 144 -221 144h-213zM461 117q202 0 221 141h-434v-141h213z" />
<glyph horiz-adv-x="897" d="M98 1354v59h39v236h324q147 0 236 -56.5t98 -179.5h36v-59h-36q-19 -232 -334 -232h-213v-334h-111v566h-39zM248 1556v-143h434q-19 143 -221 143h-213zM461 1212q202 0 221 142h-434v-142h213z" />
<glyph horiz-adv-x="830" d="M53 553h125l230 -365l233 365h125l-297 -432l313 -428h-131l-243 358l-242 -358h-129l311 428z" />
<glyph horiz-adv-x="811" d="M221 338v-84q115 98 240 98q113 0 184.5 -84t71.5 -254q0 -168 -71.5 -252t-184.5 -84q-121 0 -240 97v-332h-106v895h106zM440 266q-61 0 -118.5 -29t-100.5 -75v-293q43 -46 100.5 -75.5t118.5 -29.5q83 0 126.5 65.5t43.5 184.5q0 120 -43 186t-127 66z" />
<glyph horiz-adv-x="531" d="M319 0h-126v1176h126v-1176zM256 1282q-130 0 -203 57t-73 154h100q0 -117 176 -117q178 0 178 117h101q0 -97 -74 -154t-205 -57z" />
<glyph horiz-adv-x="529" d="M319 0h-126v1176h126v-1176zM221 1282h-110l249 262h197z" />
<glyph horiz-adv-x="352" d="M106 788v150h123v-150h-123zM106 1206v150h123v-150h-123z" />
<glyph horiz-adv-x="750" d="M274 788h-63l31 132q-68 39 -109 115t-41 184q0 160 85.5 247.5t207.5 87.5h10l23 95h67l-24 -103q34 -9 47 -14l29 117h63l-35 -140q22 -10 55 -27.5t42 -21.5l-52 -76l-65 37l-109 -444q64 12 174 76l52 -78q-1 0 -23.5 -12.5t-30.5 -16.5t-31.5 -15t-38.5 -16.5 t-37.5 -13t-44 -12t-42.5 -6.5l-23 -95h-65l22 97q-34 4 -49 10zM201 1219q0 -128 67 -195l105 438q-75 -8 -123.5 -73.5t-48.5 -169.5zM322 987q24 -9 49 -12l116 471l-49 14z" />
<glyph horiz-adv-x="811" d="M221 1434v-84q115 98 240 98q113 0 184.5 -84t71.5 -254q0 -168 -71.5 -252t-184.5 -84q-123 0 -240 96v-331h-106v895h106zM440 1362q-61 0 -118.5 -29.5t-100.5 -75.5v-292q43 -46 100.5 -75.5t118.5 -29.5q83 0 126.5 65.5t43.5 184.5q0 120 -43 186t-127 66z" />
<glyph horiz-adv-x="1041" d="M317 0h-127v1176h127v-1176zM807 1176v-1106q0 -56 -1.5 -81t-9.5 -61.5t-25.5 -53.5t-51 -40t-83.5 -39.5t-124 -34.5l-43 99q42 13 69.5 22t52 20.5t38 18t25 20.5t15.5 22t7.5 28.5t3.5 34v43.5v1108h127z" />
<glyph horiz-adv-x="811" d="M578 -557v334q-112 -99 -240 -99q-115 0 -186.5 84t-71.5 252q0 170 71.5 254t186.5 84q127 0 240 -100v86h104v-895h-104zM358 -236q121 0 220 103v295q-100 104 -220 104q-84 0 -127 -66t-43 -186q0 -119 43.5 -184.5t126.5 -65.5z" />
<glyph horiz-adv-x="811" d="M578 539v333q-111 -98 -240 -98q-115 0 -186.5 84t-71.5 252q0 170 71.5 254t186.5 84q127 0 240 -100v86h104v-895h-104zM358 860q121 0 220 103v294q-101 105 -220 105q-84 0 -127 -66t-43 -186q0 -119 43.5 -184.5t126.5 -65.5z" />
<glyph horiz-adv-x="524" d="M317 0h-127v1176h127v-1176z" />
<glyph horiz-adv-x="928" d="M303 0v184h150v-184h-150zM821 911q0 -243 -387 -340l-8 -225h-96l-11 297q90 19 153.5 40t115.5 51t78 71t26 94q0 87 -69.5 136.5t-173.5 49.5q-140 0 -316 -100l-63 86q193 123 391 123q95 0 175 -30t132.5 -96t52.5 -157z" />
<glyph horiz-adv-x="948" d="M694 788v406h-452v-406h-111v861h111v-363h452v363h111v-861h-111z" />
<glyph horiz-adv-x="930" d="M610 1176v-185h-149v185h149zM92 264q0 243 387 340l8 225h97l10 -297q-90 -19 -153.5 -40t-115.5 -51t-78 -71t-26 -94q0 -87 69.5 -136.5t174.5 -49.5q139 0 315 100l64 -86q-76 -49 -178.5 -85.5t-212.5 -36.5q-70 0 -134 18t-115 51.5t-81.5 88.5t-30.5 124z" />
<glyph horiz-adv-x="682" d="M455 553v-141h-125v141h125zM63 -113q0 182 285 250l6 160h76l10 -217q-133 -27 -199.5 -67t-66.5 -111q0 -61 47.5 -96t120.5 -35q101 0 225 71l51 -71q-143 -93 -286 -93q-111 0 -190 55.5t-79 153.5z" />
<glyph horiz-adv-x="682" d="M455 1649v-142h-125v142h125zM63 983q0 182 285 250l6 160h76l10 -217q-133 -27 -199.5 -67.5t-66.5 -111.5q0 -61 47.5 -96t120.5 -35q100 0 225 72l51 -72q-142 -92 -286 -92q-111 0 -190 55.5t-79 153.5z" />
<glyph horiz-adv-x="684" d="M217 -307v141h125v-141h-125zM608 358q0 -52 -22 -94t-63 -71.5t-89 -49t-110 -34.5l-7 -160h-75l-11 217q134 27 200.5 67t66.5 111q0 61 -47.5 96t-120.5 35q-101 0 -226 -72l-51 72q142 92 287 92q111 0 189.5 -55.5t78.5 -153.5z" />
<glyph horiz-adv-x="684" d="M217 788v142h125v-142h-125zM608 1454q0 -182 -284 -250l-7 -160h-75l-11 218q134 27 200.5 67t66.5 111q0 61 -47.5 96t-120.5 35q-101 0 -226 -72l-51 72q142 92 287 92q111 0 189.5 -55.5t78.5 -153.5z" />
<glyph horiz-adv-x="948" d="M694 -307v405h-452v-405h-111v860h111v-363h452v363h111v-860h-111z" />
<glyph horiz-adv-x="750" d="M274 -307h-63l31 131q-68 39 -109 115t-41 184q0 160 85.5 248t207.5 88h10l23 94h67l-24 -102q29 -7 47 -15l29 117h63l-35 -139q22 -10 55 -27.5t42 -21.5l-52 -76l-65 37l-109 -445q64 12 174 76l52 -78q-1 0 -23.5 -12.5t-30.5 -16.5t-31.5 -15t-38.5 -16.5 t-37.5 -13t-44 -12t-42.5 -6.5l-23 -94h-65l22 96q-34 4 -49 10zM201 123q0 -128 67 -195l105 439q-75 -8 -123.5 -74t-48.5 -170zM322 -109q24 -9 49 -12l116 471l-49 15z" />
<glyph horiz-adv-x="1032" d="M375 0h-84l43 178q-95 54 -151 158.5t-56 253.5q0 111 33.5 200t90 144.5t127.5 85t150 29.5h17l30 127h84l-34 -140q37 -6 67 -18l39 158h84l-47 -189q30 -14 74.5 -37.5t56.5 -29.5l-59 -91q-7 3 -40.5 23t-56.5 31l-157 -645q99 17 254 110l59 -90q-3 -2 -28 -16 t-35.5 -19.5t-37 -19.5t-43.5 -21t-44.5 -18t-49.5 -16.5t-49 -11t-53 -7.5l-31 -129h-84l33 133q-31 3 -67 12zM254 590q0 -194 108 -291l156 645q-115 -6 -189.5 -102.5t-74.5 -251.5zM436 252q33 -13 66 -16l166 679q-38 13 -68 21z" />
<glyph horiz-adv-x="352" d="M106 -307v149h123v-149h-123zM106 111v149h123v-149h-123z" />
<glyph horiz-adv-x="830" d="M53 1649h125l230 -365l233 365h125l-297 -432l313 -429h-131l-243 359l-242 -359h-129l311 429z" />
<glyph horiz-adv-x="713" d="M645 258l-51 -76q-1 0 -27 15t-41.5 22.5t-43 19.5t-53.5 17.5t-50 5.5q-83 0 -138 -67.5t-55 -178.5q0 -113 54.5 -180t138.5 -67q88 0 215 79l51 -75q-1 0 -17.5 -10t-21.5 -12.5t-22.5 -11.5t-26 -13t-26.5 -12t-30 -11.5t-30 -9.5t-33 -8.5t-32.5 -4.5t-34.5 -2 q-122 0 -207.5 89t-85.5 249q0 159 85.5 247.5t207.5 88.5q52 0 114 -20t86 -33t74 -41z" />
<glyph horiz-adv-x="1034" d="M600 0h-96v129q-76 5 -143 36.5t-120 87.5t-83.5 143t-30.5 194q0 106 30.5 192.5t83.5 142t120 86.5t143 36v129h96v-134q23 -4 47 -10t43 -12t44 -16.5t38 -16.5t38 -19t32.5 -16.5t31.5 -17.5t25 -14l-59 -91q-5 3 -40 23t-59.5 32.5t-65 28.5t-75.5 23v-696 q106 24 240 108l59 -90q-1 0 -29 -16t-37.5 -21t-37.5 -19.5t-46 -21.5l-45 -17.5t-52.5 -17t-51.5 -10.5v-135zM254 590q0 -152 70 -248.5t180 -108.5v709q-109 -11 -179.5 -106.5t-70.5 -245.5z" />
</font>
</defs>
</svg>
